<svg width="200" height="39" viewBox="0 0 200 39" fill="none" xmlns="http://www.w3.org/2000/svg">
<g id="Group 1171276115">
<g id="Group 1171276102">
<path id="Vector" d="M111.307 25.9806C111.279 26.1466 111.127 26.3268 110.85 26.5203C110.601 26.6864 110.297 26.8387 109.937 26.9768C109.605 27.1154 109.287 27.1982 108.982 27.2261C108.678 27.2815 108.47 27.2536 108.36 27.1429C108.249 27.0322 108.069 26.825 107.82 26.5203C107.571 26.2162 107.419 25.718 107.363 25.026C107.308 24.3065 107.281 23.4072 107.281 22.3278C107.281 21.2208 107.266 20.0032 107.239 18.6749V17.0145C107.239 16.5164 107.225 15.9355 107.197 15.2714C107.197 14.6072 107.184 13.9152 107.156 13.1957C107.405 13.0575 107.654 12.9331 107.903 12.8224C108.18 12.6838 108.429 12.5731 108.65 12.4904C108.899 12.3797 109.134 12.2964 109.356 12.2411C109.937 12.075 110.38 11.9781 110.684 11.9506C110.989 11.9227 111.169 12.0197 111.224 12.2411C111.251 12.4071 111.238 12.8083 111.182 13.445C111.127 13.9984 111.058 14.8423 110.975 15.9771C110.892 17.0841 110.753 18.6338 110.56 20.6262C110.919 19.7407 111.21 18.9796 111.432 18.3429C111.68 17.7066 111.888 17.1948 112.054 16.8073C112.22 16.3367 112.372 15.963 112.511 15.6862C112.649 15.3267 112.829 14.9256 113.05 14.4828C113.272 14.04 113.493 13.6247 113.714 13.2373C113.963 12.8499 114.185 12.5041 114.379 12.1994C114.6 11.8953 114.766 11.7155 114.877 11.6602C114.96 11.6048 115.209 11.6048 115.624 11.6602C116.039 11.7155 116.482 11.8536 116.952 12.075C117.423 12.269 117.879 12.5594 118.322 12.9468C118.765 13.3064 119.055 13.7491 119.194 14.2751C119.36 14.884 119.415 15.6862 119.36 16.6825C119.332 17.6787 119.263 18.7028 119.152 19.7544C119.069 20.806 119 21.8022 118.944 22.7431C118.889 23.684 118.944 24.4035 119.11 24.9016C119.166 25.1783 119.249 25.4271 119.36 25.6485C119.415 25.8699 119.484 26.0776 119.567 26.2715C119.678 26.4375 119.789 26.562 119.9 26.6448C119.235 26.9494 118.696 27.1708 118.28 27.3089C117.865 27.4475 117.547 27.5445 117.326 27.5998C117.049 27.6826 116.855 27.7105 116.745 27.6826C116.496 27.5998 116.274 27.3922 116.081 27.0601C115.915 26.728 115.762 26.202 115.624 25.4825C115.568 25.2611 115.541 24.9016 115.541 24.4035C115.568 23.8775 115.61 23.2965 115.665 22.6598C115.721 21.9957 115.776 21.3178 115.831 20.6262C115.915 19.9067 115.97 19.2426 115.997 18.6338C116.053 17.9971 116.094 17.4573 116.122 17.0145C116.15 16.5443 116.15 16.226 116.122 16.0599C115.984 15.5618 115.79 15.216 115.541 15.0221C115.292 14.8007 115.098 14.7733 114.96 14.9393C114.6 15.3542 114.213 16.0325 113.797 16.9734C113.41 17.8864 113.037 18.8963 112.677 20.0032C112.317 21.0827 112.012 22.1617 111.764 23.2412C111.514 24.3202 111.362 25.2337 111.307 25.9806Z" fill="white"/>
<path id="Vector_2" d="M104.747 19.9618C104.691 21.0408 104.497 22.0371 104.165 22.9505C103.861 23.8635 103.432 24.6662 102.879 25.3578C102.325 26.022 101.661 26.548 100.886 26.9354C100.139 27.3228 99.3091 27.5305 98.3956 27.5579C97.5933 27.5858 96.8322 27.3919 96.1127 26.977C95.4207 26.5617 94.8119 25.9808 94.2863 25.2334C93.7603 24.4865 93.3591 23.6009 93.0824 22.5768C92.8336 21.5252 92.7641 20.3908 92.8748 19.1732C92.958 17.7617 93.221 16.5578 93.6638 15.5616C94.1065 14.5379 94.5767 13.6935 95.0749 13.0294C95.573 12.3652 96.0295 11.8813 96.4448 11.5767C96.8876 11.2446 97.1643 11.0511 97.275 10.9958C97.4685 10.9125 97.6487 10.8988 97.8147 10.9541C97.9808 10.982 98.1605 11.0232 98.354 11.0785C98.4094 11.1064 98.4647 11.1755 98.52 11.2862C98.6307 11.4797 98.7002 11.8397 98.7277 12.3657C98.8663 12.0611 99.046 11.8122 99.2674 11.6183C99.4888 11.4248 99.7102 11.2862 99.9316 11.203C100.208 11.0923 100.485 11.0232 100.762 10.9958C100.955 10.9679 101.287 11.1202 101.758 11.4522C102.256 11.7843 102.726 12.3099 103.169 13.0294C103.64 13.7489 104.041 14.6898 104.373 15.852C104.705 16.9868 104.829 18.3568 104.747 19.9618Z" fill="white"/>
<path id="Vector_3" d="M99.2705 23.2828C99.1351 23.3306 98.9119 23.3306 98.7764 23.2828C97.6208 22.8887 95.0386 21.2452 95.0386 18.4593C95.0386 17.2293 96.0308 16.2344 97.2542 16.2344C97.9794 16.2344 98.621 16.5846 99.0235 17.1257C99.426 16.5846 100.072 16.2344 100.793 16.2344C102.016 16.2344 103.008 17.2293 103.008 18.4593C103.008 21.2452 100.426 22.8887 99.2705 23.2828Z" fill="#FF74DA"/>
</g>
<g id="Group 1171276107">
<path id="Vector_4" d="M194.189 27.217C192.252 27.217 190.758 26.5666 189.706 25.2658C188.654 23.9654 188.128 22.2634 188.128 20.1602C188.128 18.6938 188.336 17.3238 188.751 16.0509C189.194 14.75 189.775 13.6294 190.495 12.6885C191.214 11.7476 192.044 11.0144 192.985 10.4884C193.954 9.93493 194.964 9.6582 196.015 9.6582C197.039 9.6582 197.911 10.0319 198.63 10.7788C199.35 11.4988 199.71 12.5362 199.71 13.8924C199.71 14.7779 199.516 15.6635 199.129 16.549C198.741 17.4066 198.229 18.1815 197.593 18.8735C196.984 19.5377 196.306 20.077 195.559 20.4923C194.812 20.9076 194.092 21.1148 193.4 21.1148C192.958 21.1148 192.584 21.0595 192.279 20.9488C191.975 20.8381 191.698 20.6721 191.449 20.4507C191.532 22.0283 191.878 23.1352 192.487 23.7714C193.096 24.3802 193.884 24.6849 194.853 24.6849C195.517 24.6849 196.098 24.5463 196.596 24.2695C197.122 23.9928 197.565 23.6749 197.925 23.3149C198.285 22.955 198.575 22.5954 198.796 22.2359C199.018 21.848 199.17 21.5576 199.253 21.3641C199.336 21.1981 199.474 21.1148 199.668 21.1148C199.89 21.1148 200 21.2809 200 21.6129C200 21.9176 199.89 22.3878 199.668 23.0245C199.474 23.6333 199.142 24.2558 198.672 24.8925C198.201 25.5009 197.593 26.0406 196.846 26.5113C196.126 26.9815 195.241 27.217 194.189 27.217ZM196.098 11.443C195.932 11.443 195.614 11.6232 195.144 11.9827C194.701 12.3148 194.216 12.8129 193.691 13.4771C193.193 14.1412 192.722 14.944 192.279 15.8848C191.864 16.7978 191.601 17.8357 191.491 18.9979C193.151 18.6105 194.466 18.0017 195.434 17.1715C196.403 16.3413 196.887 15.1237 196.887 13.5187C196.887 12.7164 196.79 12.1767 196.596 11.8999C196.403 11.5953 196.237 11.443 196.098 11.443Z" fill="white"/>
<path id="Vector_5" d="M177.134 25.505C177.107 25.671 176.955 25.8508 176.678 26.0447C176.429 26.2107 176.124 26.3626 175.765 26.5012C175.433 26.6398 175.114 26.7226 174.81 26.7505C174.506 26.8054 174.298 26.7779 174.187 26.6672C174.077 26.5565 173.897 26.3489 173.648 26.0447C173.399 25.7401 173.246 25.242 173.191 24.5504C173.136 23.8309 173.108 22.9312 173.108 21.8521C173.108 20.7452 173.095 19.5276 173.067 18.1993V16.5389C173.067 16.0408 173.053 15.4599 173.025 14.7957C173.025 14.1316 173.011 13.4395 172.984 12.72C173.233 12.5819 173.482 12.457 173.731 12.3464C174.008 12.2082 174.256 12.0975 174.478 12.0143C174.727 11.9036 174.962 11.8208 175.184 11.7654C175.765 11.5994 176.208 11.5024 176.512 11.475C176.816 11.4471 176.996 11.5441 177.052 11.7654C177.079 11.9315 177.065 12.3326 177.01 12.9689C176.955 13.5223 176.886 14.3667 176.802 15.5011C176.72 16.608 176.581 18.1577 176.387 20.1501C176.747 19.2646 177.038 18.5035 177.259 17.8672C177.508 17.231 177.716 16.7187 177.882 16.3313C178.048 15.861 178.2 15.4873 178.338 15.2106C178.477 14.8506 178.657 14.4495 178.878 14.0067C179.099 13.564 179.321 13.1491 179.542 12.7617C179.791 12.3742 180.012 12.0284 180.206 11.7238C180.428 11.4192 180.594 11.2394 180.704 11.1841C180.787 11.1287 181.037 11.1287 181.451 11.1841C181.867 11.2394 182.309 11.378 182.78 11.5994C183.25 11.7929 183.707 12.0833 184.15 12.4712C184.592 12.8307 184.883 13.2735 185.021 13.7995C185.187 14.4079 185.243 15.2106 185.187 16.2068C185.16 17.2031 185.09 18.2272 184.98 19.2783C184.897 20.3303 184.828 21.3266 184.772 22.267C184.717 23.2083 184.772 23.9274 184.939 24.4259C184.994 24.7022 185.077 24.9515 185.187 25.1729C185.243 25.3943 185.312 25.6019 185.395 25.7954C185.506 25.9615 185.617 26.0863 185.727 26.1691C185.063 26.4733 184.523 26.6947 184.108 26.8333C183.693 26.9719 183.375 27.0684 183.153 27.1237C182.877 27.207 182.683 27.2344 182.572 27.207C182.323 27.1237 182.102 26.9161 181.908 26.584C181.742 26.2519 181.59 25.7264 181.451 25.0069C181.396 24.7855 181.369 24.426 181.369 23.9274C181.396 23.4018 181.438 22.8205 181.493 22.1842C181.548 21.5201 181.604 20.8422 181.659 20.1501C181.742 19.4306 181.798 18.7665 181.825 18.1577C181.88 17.5214 181.922 16.9817 181.95 16.5389C181.977 16.0683 181.977 15.7503 181.95 15.5843C181.811 15.0862 181.618 14.74 181.369 14.5465C181.119 14.3251 180.926 14.2972 180.787 14.4637C180.428 14.8785 180.04 15.5564 179.625 16.4973C179.238 17.4107 178.864 18.4207 178.504 19.5276C178.145 20.6066 177.84 21.6861 177.591 22.7656C177.342 23.8446 177.19 24.758 177.134 25.505Z" fill="white"/>
<path id="Vector_6" d="M164.775 28.2339C162.838 28.2339 161.344 27.5835 160.292 26.2826C159.24 24.9822 158.714 23.2802 158.714 21.1771C158.714 19.7106 158.922 18.3407 159.337 17.0677C159.78 15.7669 160.361 14.6462 161.081 13.7054C161.8 12.7645 162.63 12.0312 163.571 11.5052C164.54 10.9518 165.55 10.675 166.601 10.675C167.625 10.675 168.497 11.0487 169.216 11.7957C169.936 12.5156 170.296 13.553 170.296 14.9092C170.296 15.7948 170.102 16.6803 169.714 17.5658C169.327 18.4235 168.815 19.1983 168.179 19.8904C167.57 20.5545 166.892 21.0938 166.145 21.5091C165.397 21.9245 164.678 22.1317 163.986 22.1317C163.544 22.1317 163.17 22.0763 162.866 21.9656C162.561 21.8549 162.284 21.6889 162.035 21.4675C162.118 23.0451 162.464 24.152 163.073 24.7883C163.682 25.3971 164.47 25.7017 165.439 25.7017C166.103 25.7017 166.684 25.5631 167.183 25.2864C167.708 25.0097 168.151 24.6918 168.511 24.3318C168.871 23.9718 169.161 23.6123 169.382 23.2528C169.604 22.8649 169.756 22.5744 169.839 22.3809C169.922 22.2149 170.061 22.1317 170.254 22.1317C170.476 22.1317 170.586 22.2977 170.586 22.6298C170.586 22.9344 170.476 23.4046 170.254 24.0413C170.061 24.6501 169.729 25.2727 169.258 25.9094C168.787 26.5177 168.179 27.0575 167.432 27.5281C166.712 27.9983 165.827 28.2339 164.775 28.2339ZM166.684 12.4598C166.519 12.4598 166.2 12.6401 165.73 12.9996C165.287 13.3317 164.802 13.8298 164.277 14.4939C163.779 15.1581 163.309 15.9608 162.866 16.9017C162.45 17.8147 162.187 18.8525 162.077 20.0148C163.737 19.6274 165.052 19.0186 166.02 18.1884C166.989 17.3582 167.473 16.1406 167.473 14.5355C167.473 13.7332 167.376 13.1935 167.183 12.9168C166.989 12.6122 166.823 12.4598 166.684 12.4598Z" fill="white"/>
<path id="Vector_7" d="M156.315 23.0177C156.315 23.3218 156.204 23.7925 155.982 24.4288C155.789 25.0376 155.457 25.6605 154.986 26.2968C154.516 26.9056 153.907 27.4453 153.16 27.9156C152.44 28.3862 151.555 28.6213 150.503 28.6213C149.009 28.6213 147.75 28.2202 146.726 27.4174C145.73 26.5873 145.024 25.4113 144.609 23.8895C144.277 22.6165 144.18 21.2603 144.318 19.8213C144.484 18.3549 144.886 16.9987 145.522 15.7536C146.159 14.5081 147.044 13.4565 148.179 12.5989C149.314 11.7133 150.697 11.229 152.33 11.1457C153.16 11.1183 153.852 11.2706 154.405 11.6027C154.959 11.9347 155.387 12.3633 155.692 12.8893C155.996 13.4149 156.176 13.9963 156.232 14.6325C156.287 15.2413 156.218 15.8227 156.024 16.3761C155.858 16.9296 155.581 17.3998 155.194 17.7872C154.834 18.1472 154.364 18.3407 153.782 18.3686C153.201 18.4239 152.717 18.3549 152.33 18.1609C151.97 17.9396 151.679 17.6765 151.458 17.3724C151.264 17.0677 151.126 16.7498 151.043 16.4178C150.988 16.0857 150.988 15.7948 151.043 15.5459C151.126 15.186 151.264 14.8539 151.458 14.5497C151.624 14.273 151.859 13.9963 152.164 13.7195C152.496 13.4428 152.925 13.2214 153.45 13.0554C153.367 13 153.284 12.9721 153.201 12.9721C153.118 12.9721 153.035 12.9584 152.952 12.931C152.841 12.931 152.759 12.9168 152.703 12.8893C152.261 12.8893 151.749 13.0417 151.167 13.3458C150.614 13.6505 150.074 14.1344 149.549 14.7986C149.051 15.4627 148.621 16.3208 148.262 17.3724C147.93 18.396 147.764 19.6416 147.764 21.108C147.764 21.7447 147.833 22.381 147.971 23.0177C148.11 23.6265 148.317 24.1799 148.594 24.678C148.898 25.1483 149.258 25.5357 149.673 25.8403C150.116 26.117 150.628 26.2552 151.209 26.2552C151.873 26.2552 152.454 26.117 152.952 25.8403C153.478 25.5357 153.921 25.1899 154.28 24.8025C154.64 24.415 154.917 24.0276 155.111 23.6402C155.332 23.2528 155.484 22.9623 155.568 22.7684C155.65 22.6023 155.789 22.5195 155.982 22.5195C156.204 22.5195 156.315 22.6856 156.315 23.0177Z" fill="white"/>
<path id="Vector_8" d="M128.534 21.0084C128.064 21.3954 127.801 22.0874 127.746 23.0836C127.718 24.052 127.884 25.0482 128.244 26.0723C128.631 27.0685 129.213 27.9541 129.987 28.7289C130.762 29.5038 131.731 29.8912 132.893 29.8912C133.64 29.8912 134.277 29.7114 134.803 29.3515C135.356 28.9919 135.799 28.5492 136.131 28.0232C136.49 27.4697 136.753 26.8609 136.919 26.1967C137.085 25.5326 137.168 24.8826 137.168 24.2459C137.168 23.3329 136.988 22.5718 136.629 21.963C136.297 21.3542 135.84 20.8282 135.259 20.3854C134.706 19.9152 134.055 19.5278 133.308 19.2231C132.589 18.8911 131.855 18.559 131.108 18.2269C130.416 17.9502 129.586 17.6044 128.618 17.1891C127.649 16.7463 126.722 16.1791 125.836 15.4875C124.951 14.768 124.19 13.8962 123.553 12.8721C122.945 11.8209 122.64 10.5338 122.64 9.01202C122.64 8.01579 122.903 7.0054 123.429 5.98172C123.955 4.95804 124.702 4.03088 125.67 3.20069C126.639 2.3426 127.801 1.65101 129.157 1.125C130.541 0.599433 132.091 0.336426 133.806 0.336426C135.494 0.336426 136.864 0.488741 137.916 0.792922C138.967 1.09755 139.784 1.49869 140.365 1.99681C140.946 2.46703 141.333 2.99303 141.527 3.57394C141.748 4.1274 141.859 4.65341 141.859 5.15153C141.859 5.64964 141.707 6.16148 141.402 6.68749C141.098 7.1856 140.738 7.65583 140.323 8.09859C139.908 8.51391 139.479 8.88716 139.036 9.21924C138.594 9.52386 138.234 9.73152 137.957 9.84221C138.095 9.48224 138.234 8.98413 138.372 8.34787C138.511 7.71117 138.469 7.07491 138.248 6.43821C138.054 5.80196 137.57 5.2485 136.795 4.77783C136.048 4.30761 134.83 4.0725 133.142 4.0725C132.173 4.0725 131.232 4.22437 130.32 4.52899C129.406 4.83318 128.59 5.23433 127.87 5.73288C127.179 6.2031 126.625 6.74283 126.21 7.35164C125.795 7.96045 125.587 8.58298 125.587 9.21924C125.587 9.82849 125.795 10.3957 126.21 10.9212C126.653 11.4194 127.234 11.9037 127.953 12.3744C128.701 12.8172 129.545 13.2599 130.486 13.7027C131.454 14.1455 132.464 14.5882 133.515 15.031C134.54 15.4738 135.549 15.9577 136.546 16.4837C137.542 16.9818 138.427 17.5628 139.202 18.2269C140.005 18.8911 140.641 19.6385 141.112 20.4686C141.582 21.2988 141.817 22.2534 141.817 23.3329C141.817 24.4947 141.596 25.6158 141.153 26.6949C140.738 27.7464 140.129 28.6736 139.327 29.4759C138.552 30.2786 137.597 30.9149 136.463 31.3855C135.328 31.8836 134.041 32.1325 132.602 32.1325C131.329 32.1325 130.126 31.9253 128.991 31.51C127.856 31.0951 126.86 30.5553 126.003 29.8912C125.172 29.227 124.508 28.4938 124.01 27.6911C123.512 26.8888 123.263 26.1002 123.263 25.3254C123.263 24.4947 123.442 23.7894 123.802 23.2081C124.19 22.6271 124.66 22.1702 125.214 21.8381C125.767 21.4786 126.335 21.2298 126.916 21.0912C127.524 20.9526 128.064 20.9251 128.534 21.0084Z" fill="white"/>
</g>
<g id="Group 1171276108">
<path id="Vector_9" d="M24.793 10.8387C24.6876 10.8746 24.5141 10.8746 24.4087 10.8387C23.5099 10.5434 21.5015 9.3107 21.5015 7.22128C21.5015 6.29855 22.2732 5.55249 23.2247 5.55249C23.7888 5.55249 24.2878 5.81505 24.6008 6.22107C24.9139 5.81505 25.416 5.55249 25.977 5.55249C26.9285 5.55249 27.7002 6.29855 27.7002 7.22128C27.7002 9.3107 25.6918 10.5434 24.793 10.8387Z" fill="#FF74DA"/>
<path id="s" d="M84.7282 20.1388C85.3006 20.347 85.847 20.5421 86.3674 20.7242C86.8878 20.9064 87.3431 21.1275 87.7334 21.3877C88.1237 21.6479 88.4359 21.9601 88.67 22.3244C88.9042 22.6626 89.0213 23.0919 89.0213 23.6123C89.0213 24.2368 88.8782 24.8222 88.592 25.3686C88.3318 25.915 87.9415 26.3963 87.4212 26.8126C86.9008 27.2289 86.2633 27.5541 85.5088 27.7883C84.7803 28.0485 83.9607 28.1786 83.05 28.1786C82.0353 28.1786 81.2157 28.0745 80.5913 27.8664C79.9668 27.6842 79.4855 27.4631 79.1472 27.2029C78.809 26.9427 78.5878 26.6825 78.4837 26.4223C78.3797 26.1621 78.3276 25.954 78.3276 25.7979C78.3276 25.4857 78.3927 25.1474 78.5228 24.7831C78.6529 24.3929 78.9 23.9766 79.2643 23.5343C79.4204 23.3521 79.5895 23.183 79.7717 23.0269C80.1359 22.7147 80.5002 22.5195 80.8645 22.4415C80.8124 23.0399 80.8775 23.5343 81.0596 23.9245C81.2677 24.2888 81.5279 24.575 81.8402 24.7831C82.1784 24.9913 82.5427 25.1344 82.9329 25.2125C83.3492 25.2905 83.7395 25.3295 84.1038 25.3295C84.468 25.3295 84.8323 25.2775 85.1966 25.1734C85.5868 25.0694 85.9381 24.9393 86.2503 24.7831C86.5625 24.601 86.8097 24.4059 86.9918 24.1977C87.2 23.9636 87.3041 23.7164 87.3041 23.4562C87.3041 23.17 87.187 22.9358 86.9528 22.7537C86.7187 22.5716 86.4194 22.4285 86.0552 22.3244C85.7169 22.1943 85.3397 22.1032 84.9234 22.0512C84.5331 21.9731 84.1558 21.8951 83.7916 21.817C83.4273 21.739 82.9329 21.6349 82.3085 21.5048C81.7101 21.3487 81.1116 21.1145 80.5132 20.8023C79.9408 20.4901 79.4334 20.0738 78.9911 19.5534C78.5748 19.033 78.3667 18.3435 78.3667 17.4849C78.3667 16.4962 78.6138 15.6376 79.1082 14.9091C79.6286 14.1545 80.253 13.5301 80.9815 13.0357C81.7361 12.5154 82.5296 12.1251 83.3622 11.8649C84.1948 11.6047 84.9364 11.4746 85.5868 11.4746C85.9251 11.4746 86.2893 11.5266 86.6796 11.6307C87.0699 11.7088 87.4342 11.8649 87.7724 12.0991C88.1106 12.3072 88.3838 12.5934 88.592 12.9577C88.8262 13.3219 88.9432 13.7903 88.9432 14.3627C88.9432 14.9351 88.8912 15.4034 88.7871 15.7677C88.7091 16.1059 88.579 16.3791 88.3969 16.5873C88.2407 16.7694 88.0456 16.8865 87.8114 16.9385C87.5773 16.9906 87.3041 17.0166 86.9918 17.0166C86.7837 17.0166 86.5886 16.9906 86.4064 16.9385C86.2503 16.8865 86.0812 16.8345 85.8991 16.7824C85.7169 16.7304 85.5478 16.6393 85.3917 16.5092C85.6519 16.197 85.847 15.8978 85.9771 15.6116C86.1332 15.3254 86.2113 14.9741 86.2113 14.5578C86.2113 14.1936 86.1072 13.8683 85.8991 13.5821C85.7169 13.2959 85.4047 13.1528 84.9624 13.1528C84.4941 13.1528 84.0387 13.2439 83.5964 13.426C83.1801 13.6081 82.8028 13.8553 82.4646 14.1675C82.1524 14.4798 81.8922 14.844 81.684 15.2603C81.5019 15.6506 81.4108 16.0799 81.4108 16.5482C81.4108 17.2507 81.671 17.9142 82.1914 18.5387C82.7378 19.1631 83.5834 19.6965 84.7282 20.1388Z" fill="white"/>
<path id="Vector_10" d="M72.5171 29.033C70.58 29.033 69.0857 28.3826 68.0341 27.0822C66.9825 25.7818 66.4565 24.0798 66.4565 21.9766C66.4565 20.5097 66.6642 19.1403 67.0795 17.8668C67.5223 16.5664 68.1032 15.4458 68.8227 14.5049C69.5422 13.564 70.3724 12.8308 71.3133 12.3048C72.282 11.7513 73.292 11.4746 74.3436 11.4746C75.3672 11.4746 76.2391 11.8483 76.9586 12.5953C77.6781 13.3148 78.038 14.3526 78.038 15.7088C78.038 16.5943 77.8441 17.4799 77.4567 18.3654C77.0692 19.2231 76.5574 19.9979 75.9207 20.6899C75.3119 21.3541 74.634 21.8934 73.8866 22.3087C73.1397 22.7236 72.4202 22.9312 71.7286 22.9312C71.2858 22.9312 70.9121 22.8759 70.6075 22.7652C70.3033 22.6545 70.0266 22.4885 69.7773 22.2671C69.8605 23.8442 70.2063 24.9511 70.8151 25.5878C71.424 26.1966 72.2125 26.5008 73.1813 26.5008C73.8454 26.5008 74.4264 26.3627 74.9245 26.086C75.4505 25.8092 75.8933 25.4909 76.2528 25.1313C76.6128 24.7714 76.9032 24.4118 77.1246 24.0519C77.346 23.6645 77.4983 23.374 77.5811 23.1801C77.6643 23.0145 77.8025 22.9312 77.9964 22.9312C78.2178 22.9312 78.3285 23.0973 78.3285 23.4293C78.3285 23.7335 78.2178 24.2042 77.9964 24.8404C77.8025 25.4497 77.4704 26.0722 77.0002 26.7085C76.5295 27.3173 75.9207 27.857 75.1738 28.3277C74.4543 28.7979 73.5687 29.033 72.5171 29.033ZM74.4264 13.2594C74.2603 13.2594 73.9424 13.4392 73.4718 13.7991C73.029 14.1312 72.5446 14.6293 72.019 15.2935C71.5209 15.9576 71.0503 16.7599 70.6075 17.7013C70.1926 18.6142 69.9296 19.6521 69.8189 20.8144C71.4793 20.4269 72.7939 19.8181 73.7622 18.9879C74.731 18.1577 75.2149 16.9401 75.2149 15.3351C75.2149 14.5324 75.1184 13.9926 74.9245 13.7163C74.731 13.4117 74.565 13.2594 74.4264 13.2594Z" fill="white"/>
<path id="Vector_11" d="M65.0029 1.67803C64.9476 2.67426 64.8506 3.8228 64.7125 5.12321C64.5739 6.42407 64.422 7.82144 64.2555 9.31578C64.1174 10.8101 63.9651 12.3735 63.799 14.0065C63.6609 15.6389 63.5365 17.2856 63.4258 18.946C63.3151 20.6064 63.2593 21.9621 63.2593 23.0141C63.2872 24.0378 63.3563 24.8817 63.467 25.5459C63.5777 26.21 63.73 26.736 63.9235 27.1235C64.1174 27.5109 64.3662 27.8846 64.6708 28.2441C64.3113 28.4655 63.9792 28.6315 63.6746 28.7422C63.37 28.8529 63.1074 28.9357 62.886 28.9915C62.6093 29.0743 62.36 29.1159 62.1387 29.1159C61.7238 29.1159 61.3638 28.922 61.0596 28.5346C60.755 28.1197 60.5062 27.5937 60.3122 26.9574C60.1462 26.3207 60.0081 25.615 59.8974 24.8401C59.8141 24.0378 59.7729 23.2492 59.7729 22.4744C59.7729 21.6442 59.8004 20.6896 59.8557 19.6101C59.9111 18.5032 59.9664 17.341 60.0218 16.1233C60.105 14.8778 60.1878 13.5912 60.2706 12.2628C60.3539 10.9071 60.4229 9.56462 60.4783 8.23631C60.5336 7.21263 60.589 6.28548 60.6443 5.45529C60.6997 4.73579 60.7413 4.08581 60.7692 3.50445C60.7966 2.89565 60.7829 2.53612 60.7276 2.42543C60.8936 2.20404 61.1013 2.03756 61.3501 1.92687C61.5989 1.81618 61.8345 1.71966 62.0559 1.63642C62.3326 1.55362 62.6093 1.4841 62.886 1.4292H63.6746C63.896 1.4292 64.1311 1.45665 64.3804 1.512C64.6292 1.53989 64.8369 1.59479 65.0029 1.67803Z" fill="white"/>
<path id="Vector_12" d="M49.1739 29.0055C48.5925 29.0055 47.9975 28.8532 47.3887 28.5486C46.7798 28.2444 46.2127 27.7879 45.6866 27.1791C45.1611 26.5424 44.732 25.7675 44.4 24.8546C44.0679 23.9137 43.9019 22.8205 43.9019 21.575C43.9019 19.749 44.137 18.2405 44.6076 17.0508C45.0783 15.8332 45.6455 14.8644 46.3096 14.1449C47.0012 13.3979 47.7486 12.8719 48.5509 12.5677C49.3537 12.2631 50.0869 12.1112 50.751 12.1112C51.4426 12.1112 52.0103 12.2357 52.453 12.4845C52.9232 12.7059 53.3107 12.9689 53.6153 13.2731V12.4845C53.7813 12.3464 53.9611 12.2219 54.155 12.1112C54.3764 12.0006 54.5978 11.9173 54.8192 11.862C55.0406 11.7792 55.2757 11.7375 55.5245 11.7375H56.1475C56.3131 11.765 56.4796 11.7929 56.6452 11.8204C56.8391 11.8482 56.9772 11.9173 57.0605 12.028C56.8944 15.6534 56.7558 18.5863 56.6452 20.828C56.5345 23.0698 56.4517 24.8129 56.3963 26.0584C56.3131 27.5249 56.2582 28.5902 56.2303 29.2543C56.1749 30.4166 56.0226 31.5651 55.7738 32.7C55.5245 33.8618 55.1371 34.8996 54.6115 35.8131C54.0855 36.726 53.3939 37.4597 52.5358 38.0132C51.6782 38.5666 50.6266 38.8429 49.3811 38.8429C48.3021 38.8429 47.4303 38.6357 46.7661 38.2204C46.1294 37.8055 45.6317 37.2932 45.2718 36.6849C44.9397 36.0756 44.7183 35.4256 44.6076 34.7336C44.4969 34.0694 44.4416 33.4606 44.4416 32.9072C44.4416 32.769 44.5107 32.5614 44.6492 32.2846C44.8153 32.0079 45.0367 31.7175 45.3134 31.4128C45.6176 31.1361 45.9913 30.8873 46.434 30.6659C46.8768 30.4445 47.3749 30.3059 47.9284 30.2506C47.6791 30.998 47.5272 31.6758 47.4719 32.2846C47.4165 32.6167 47.4028 32.9488 47.4303 33.2809C47.4303 34.1939 47.61 34.955 47.97 35.5638C48.3295 36.1726 48.883 36.4772 49.6304 36.4772C50.4327 36.4772 51.0831 36.1314 51.5812 35.4394C52.0793 34.7752 52.453 33.9587 52.7019 32.9904C52.9786 32.0495 53.1588 31.0533 53.2416 30.0017C53.3523 28.9776 53.4076 28.1058 53.4076 27.3867V26.1829C53.2416 26.487 53.0339 26.8054 52.7851 27.1375C52.5637 27.4695 52.287 27.7737 51.9549 28.0509C51.6228 28.3272 51.2213 28.5486 50.751 28.715C50.3083 28.9085 49.7823 29.0055 49.1739 29.0055ZM50.8755 14.477C50.4052 14.477 49.9487 14.6846 49.506 15.0999C49.0907 15.5148 48.717 16.0683 48.3849 16.7603C48.0528 17.4245 47.7898 18.1851 47.5963 19.0432C47.4028 19.9009 47.3059 20.759 47.3059 21.6166C47.3059 22.1701 47.3333 22.7377 47.3887 23.3186C47.4719 23.8995 47.61 24.4392 47.804 24.9374C48.0253 25.408 48.3021 25.7954 48.6342 26.0996C48.9662 26.4042 49.409 26.5561 49.9625 26.5561C50.3773 26.5287 50.7648 26.3626 51.1247 26.0584C51.4289 25.8092 51.7335 25.408 52.0377 24.8546C52.3698 24.3011 52.6328 23.5125 52.8267 22.4884C53.0481 22.7098 53.2137 22.9174 53.3244 23.1109C53.463 23.3049 53.5737 23.4846 53.6565 23.6507C53.6844 23.4293 53.6981 23.1663 53.6981 22.8621C53.726 22.5575 53.7397 22.2117 53.7397 21.8242C53.7397 21.0773 53.6981 20.2746 53.6153 19.4169C53.5321 18.5314 53.3802 17.7286 53.1588 17.0091C52.9649 16.2896 52.6744 15.6946 52.287 15.2243C51.927 14.7262 51.4568 14.477 50.8755 14.477Z" fill="white"/>
<path id="Vector_13" d="M33.5801 27.4557C33.5527 27.6217 33.4004 27.8015 33.1237 27.9954C32.8748 28.161 32.5702 28.3133 32.2107 28.4519C31.8786 28.59 31.5602 28.6733 31.2556 28.7007C30.9514 28.7561 30.7438 28.7286 30.6331 28.6179C30.5224 28.5072 30.3426 28.2996 30.0934 27.9954C29.8445 27.6908 29.6922 27.1927 29.6369 26.5006C29.5815 25.7816 29.5541 24.8818 29.5541 23.8028C29.5541 22.6959 29.5399 21.4783 29.5124 20.15V18.4896C29.5124 17.9915 29.4983 17.4101 29.4708 16.746C29.4708 16.0818 29.4571 15.3902 29.4292 14.6707C29.6785 14.5321 29.9273 14.4077 30.1766 14.297C30.4533 14.1589 30.7022 14.0482 30.9235 13.965C31.1728 13.8543 31.4079 13.771 31.6293 13.7161C32.2107 13.5496 32.6534 13.4531 32.9576 13.4252C33.2618 13.3978 33.442 13.4947 33.4974 13.7161C33.5248 13.8817 33.5111 14.2833 33.4557 14.9196C33.4004 15.473 33.3313 16.3169 33.2481 17.4518C33.1653 18.5587 33.0267 20.1084 32.8332 22.1008C33.1927 21.2153 33.4832 20.4542 33.7046 19.8179C33.9538 19.1812 34.1615 18.6694 34.3275 18.2819C34.4936 17.8117 34.6459 17.438 34.784 17.1613C34.9222 16.8013 35.1024 16.4002 35.3238 15.9574C35.5452 15.5146 35.7665 15.0993 35.9879 14.7124C36.2368 14.3245 36.4581 13.9787 36.6521 13.6745C36.8735 13.3699 37.0395 13.1901 37.1502 13.1348C37.233 13.0794 37.4823 13.0794 37.8971 13.1348C38.3125 13.1901 38.7552 13.3283 39.2254 13.5496C39.6961 13.7436 40.1526 14.034 40.5954 14.4215C41.0381 14.7814 41.3286 15.2242 41.4672 15.7498C41.6332 16.3586 41.6886 17.1613 41.6332 18.1575C41.6053 19.1538 41.5362 20.1774 41.4256 21.229C41.3423 22.2806 41.2732 23.2768 41.2179 24.2177C41.1626 25.1586 41.2179 25.8781 41.3839 26.3762C41.4393 26.6529 41.5225 26.9022 41.6332 27.1236C41.6886 27.345 41.7576 27.5526 41.8409 27.7461C41.9516 27.9122 42.0623 28.0366 42.1729 28.1198C41.5088 28.424 40.9691 28.6454 40.5537 28.784C40.1389 28.9221 39.8205 29.0191 39.5991 29.0744C39.3224 29.1572 39.1285 29.1851 39.0178 29.1572C38.7689 29.0744 38.5476 28.8668 38.3536 28.5347C38.188 28.2026 38.0357 27.677 37.8971 26.9575C37.8418 26.7362 37.8143 26.3762 37.8143 25.8781C37.8418 25.3525 37.8834 24.7712 37.9388 24.1349C37.9941 23.4707 38.0494 22.7929 38.1048 22.1008C38.188 21.3813 38.2429 20.7172 38.2708 20.1084C38.3262 19.4721 38.3678 18.9324 38.3953 18.4896C38.4231 18.0189 38.4231 17.701 38.3953 17.5346C38.2571 17.0369 38.0632 16.6906 37.8143 16.4971C37.5651 16.2758 37.3716 16.2479 37.233 16.4139C36.8735 16.8292 36.486 17.5071 36.0707 18.448C35.6833 19.3614 35.31 20.3714 34.9501 21.4783C34.5901 22.5573 34.2859 23.6368 34.0366 24.7158C33.7878 25.7953 33.6355 26.7083 33.5801 27.4557Z" fill="white"/>
<path id="Vector_14" d="M22.0815 13.8824C22.0815 13.7164 22.3029 13.5361 22.7457 13.3427C23.1885 13.1487 23.6727 12.9969 24.1986 12.8862C24.752 12.7476 25.2501 12.6785 25.6929 12.6785C26.1633 12.6506 26.3985 12.7476 26.3985 12.969C26.3985 13.3843 26.3709 13.9789 26.3155 14.7538C26.2602 15.5012 26.191 16.3034 26.1079 17.1615C26.025 17.9917 25.9419 18.8356 25.8589 19.6937C25.7759 20.5239 25.7205 21.2292 25.6929 21.8106C25.6375 22.4194 25.5822 23.0836 25.5269 23.803C25.4715 24.4119 25.43 25.0897 25.4023 25.8371C25.3746 26.5841 25.3746 27.3452 25.4023 28.12C25.4023 28.2582 25.2639 28.3968 24.9872 28.5349C24.7105 28.6735 24.4061 28.7705 24.074 28.8258C23.7419 28.9086 23.4237 28.9502 23.1193 28.9502C22.8149 28.9502 22.6489 28.8949 22.6211 28.7842C22.5658 28.6735 22.5105 28.4796 22.4551 28.2028C22.3998 27.9261 22.3444 27.5387 22.2891 27.0406C22.2337 26.515 22.1922 25.8509 22.1646 25.0481C22.1369 24.2179 22.1507 23.2217 22.2061 22.0594C22.3168 19.7628 22.3306 17.9917 22.2476 16.7462C22.1646 15.4733 22.1092 14.5187 22.0815 13.8824Z" fill="white"/>
<path id="Vector_15" d="M5.89386 21.0631C5.42342 21.4505 5.16055 22.1426 5.1052 23.1388C5.07748 24.1071 5.24352 25.1034 5.60332 26.1275C5.99074 27.1237 6.57183 28.0093 7.34667 28.7841C8.12152 29.5589 9.09011 29.9464 10.2524 29.9464C10.9995 29.9464 11.636 29.7666 12.1618 29.4066C12.7152 29.0467 13.158 28.6039 13.4901 28.0783C13.8499 27.5249 14.1127 26.9161 14.2788 26.2519C14.4448 25.5878 14.5278 24.9373 14.5278 24.3011C14.5278 23.3876 14.348 22.6265 13.9882 22.0182C13.6561 21.4089 13.1995 20.8834 12.6184 20.4406C12.0649 19.9699 11.4146 19.5829 10.6674 19.2783C9.94793 18.9462 9.21462 18.6142 8.46745 18.2821C7.77562 18.0054 6.94543 17.6596 5.97688 17.2442C5.00832 16.8015 4.08126 16.2343 3.19572 15.5422C2.31019 14.8232 1.5492 13.9514 0.912721 12.9273C0.303915 11.8757 -0.000488281 10.589 -0.000488281 9.0672C-0.000488281 8.07097 0.262383 7.06057 0.788214 6.03689C1.31396 5.01277 2.06117 4.08606 3.02968 3.25543C3.99828 2.39778 5.16055 1.70574 6.51648 1.18017C7.90013 0.654608 9.44982 0.391602 11.1655 0.391602C12.8536 0.391602 14.2234 0.543916 15.275 0.848098C16.3266 1.15228 17.1429 1.55387 17.7241 2.05198C18.3052 2.5222 18.6926 3.04821 18.8864 3.62913C19.1077 4.18259 19.2184 4.70859 19.2184 5.2067C19.2184 5.70482 19.0662 6.21666 18.7618 6.74267C18.4574 7.24034 18.0977 7.711 17.6826 8.15377C17.2675 8.56864 16.8386 8.94234 16.3958 9.27442C15.953 9.57904 15.5932 9.78625 15.3165 9.89695C15.4549 9.53742 15.5932 9.03931 15.7316 8.40305C15.87 7.76635 15.8285 7.12965 15.6071 6.49339C15.4134 5.85713 14.9291 5.30367 14.1542 4.83301C13.4071 4.36235 12.1895 4.12724 10.5014 4.12724C9.53288 4.12724 8.592 4.27955 7.67875 4.58373C6.76558 4.88835 5.94921 5.28951 5.22971 5.78762C4.53788 6.25828 3.98442 6.79757 3.56933 7.40682C3.15423 8.01519 2.94671 8.63816 2.94671 9.27442C2.94671 9.88322 3.15423 10.4504 3.56933 10.9764C4.0121 11.4745 4.59323 11.9589 5.31273 12.4291C6.0599 12.8719 6.9039 13.3147 7.84478 13.7574C8.81338 14.2002 9.82343 14.643 10.875 15.0857C11.8989 15.5285 12.909 16.0129 13.9052 16.5385C14.9014 17.037 15.787 17.6179 16.5618 18.2821C17.3643 18.9462 18.0008 19.6936 18.4712 20.5234C18.9417 21.354 19.1769 22.3086 19.1769 23.3876C19.1769 24.5499 18.9555 25.671 18.5127 26.75C18.0977 27.8016 17.4888 28.7288 16.6863 29.5311C15.9115 30.3338 14.9568 30.97 13.8222 31.4407C12.6876 31.9388 11.4008 32.1877 9.96179 32.1877C8.68883 32.1877 7.48508 31.9804 6.35044 31.5651C5.21589 31.1498 4.21967 30.6105 3.36176 29.9464C2.53157 29.2822 1.86742 28.549 1.3693 27.7463C0.871189 26.9435 0.622176 26.1549 0.622176 25.3801C0.622176 24.5499 0.802029 23.8441 1.16178 23.2632C1.5492 22.6823 2.01964 22.2254 2.5731 21.8933C3.12656 21.5338 3.69383 21.2845 4.27501 21.1464C4.88382 21.0078 5.42342 20.9803 5.89386 21.0631Z" fill="white"/>
</g>
</g>
</svg>
