<svg width="182" height="88" viewBox="0 0 182 88" fill="none" xmlns="http://www.w3.org/2000/svg">
<path d="M15.3621 1.86897C15.3621 1.86897 15.4447 1.86756 15.6099 1.86475C18.1999 1.93081 20.8651 3.17986 23.6055 5.61188C23.7185 5.7752 23.8851 5.85499 24.1053 5.85124C24.8763 5.83811 25.4941 4.91874 25.9587 3.09313C26.0613 2.65073 26.1364 2.20879 26.184 1.76733L26.7622 1.75748L26.9257 16.2137L25.8519 16.232C24.7808 8.31842 21.7313 3.90871 16.7034 3.00285C16.3721 2.95341 16.0683 2.9035 15.792 2.85312C15.6819 2.85499 15.5993 2.8564 15.5442 2.85734C11.6345 2.92391 9.26027 4.20368 8.42141 6.69664C8.31971 7.19411 8.24555 7.69111 8.19893 8.18764C8.35125 10.6637 9.85409 13.1995 12.7075 15.7948C17.8532 20.3891 20.9586 23.2281 22.0236 24.3116C27.2936 29.73 29.9651 34.5868 30.0382 38.882C30.0607 40.2035 29.862 41.4738 29.4421 42.6928C27.3677 47.0245 23.8031 49.5638 18.7483 50.3109C17.9792 50.4342 17.2368 50.5019 16.5209 50.5141C12.335 50.5303 8.48678 49.3564 4.97638 46.9926C4.53022 46.6697 4.08688 46.512 3.64636 46.5195C2.48997 46.5392 1.65052 47.3797 1.12798 49.0411C0.972162 49.5945 0.871406 50.1471 0.825717 50.6987L0.164926 50.7099L0 36.1711L1.15638 36.1514C1.41321 38.2953 3.05419 40.8562 6.07932 43.8342C9.5506 47.135 12.6909 48.7891 15.5002 48.7964C18.0313 48.6431 19.8223 47.0703 20.8729 44.078C20.9243 43.8568 20.9485 43.6636 20.9457 43.4984C20.9129 41.5711 18.8808 38.6864 14.8495 34.8442C10.0883 30.1882 7.56718 27.6974 7.28622 27.3717C2.79844 22.6009 0.524083 18.4258 0.46314 14.8466C0.459389 14.6263 0.456108 14.4336 0.453295 14.2684C1.23871 8.63664 4.20405 4.86813 9.34931 2.96282C11.2654 2.26921 13.2696 1.9046 15.3621 1.86897Z" fill="white"/>
<path d="M34.1429 17.578C34.1139 15.871 34.8917 14.6459 36.4764 13.9029C36.9692 13.7292 37.4904 13.6102 38.0402 13.5458C39.7472 13.5167 40.9447 14.295 41.6327 15.8807C41.8614 16.3725 41.9804 16.8937 41.9898 17.4444C42.0189 19.1514 41.2406 20.349 39.6549 21.0369C39.1621 21.2106 38.6684 21.3291 38.1738 21.3927C36.4667 21.4217 35.2417 20.6439 34.4986 19.0592C34.325 18.5664 34.2064 18.0727 34.1429 17.578ZM39.4409 23.0235L41.9188 22.9813L42.2525 47.432C42.8182 48.3037 43.6251 48.7857 44.6732 48.878C45.0587 48.8714 45.4441 48.8649 45.8296 48.8583L45.8465 49.8495L30.9787 50.1026L30.8792 49.1129C32.6955 49.0269 33.8985 48.5106 34.4883 47.5642L34.1915 30.1359C34.0104 29.2025 33.2011 28.5829 31.7638 28.2769C31.4315 28.1724 31.1002 28.1229 30.7698 28.1285L30.7529 27.1374C32.5122 26.9422 34.8641 25.9657 37.8086 24.208C38.6812 23.6975 39.2253 23.3026 39.4409 23.0235Z" fill="white"/>
<path d="M76.3711 27.6L76.6078 46.3513C76.6265 47.4526 77.2706 48.0751 78.5399 48.2187C78.9814 48.2663 79.5325 48.2845 80.1933 48.2732L80.2088 49.1818L64.5976 49.4476L64.5821 48.539C66.3993 48.5081 67.467 48.1319 67.7852 47.4104C67.8365 47.1892 67.8883 46.9955 67.9406 46.8294L67.7795 27.6636C67.7785 27.6086 67.7776 27.5535 67.7766 27.4984C67.6506 26.5642 67.2016 26.0761 66.4298 26.0342C64.7778 26.0623 62.7628 27.4186 60.3849 30.103C59.8987 30.6621 59.4671 31.1927 59.0901 31.6949L59.2705 47.1422C59.2845 47.9682 59.7055 48.4293 60.5334 48.5253C60.9748 48.5729 61.7462 48.5873 62.8475 48.5686L62.863 49.4771L47.9952 49.7303L47.9798 48.8217C49.9621 48.7879 51.0868 48.5209 51.3536 48.0206C51.5151 47.7976 51.5935 47.5484 51.5888 47.273L51.3047 30.5881C51.1655 28.8829 50.0496 28.0481 47.9571 28.0838C47.847 28.0856 47.7369 28.0875 47.6268 28.0894L47.6085 27.0156C49.3678 26.8204 51.7472 25.8435 54.7467 24.0849C55.6735 23.5183 56.2447 23.0955 56.4602 22.8164L58.9382 22.7742L59.0423 28.8865C61.0394 26.484 63.7617 24.6199 67.2093 23.2943C71.6975 21.6205 74.5722 22.2326 75.8334 25.1304C76.1218 25.8967 76.3011 26.7198 76.3711 27.6Z" fill="white"/>
<path d="M92.5987 23.2751C91.167 23.2995 90.1167 24.6945 89.4477 27.4599C88.7778 30.1704 88.7411 32.87 89.3377 35.5588C89.9343 38.2477 91.0026 39.5239 92.5426 39.3875C94.0294 39.3622 95.1077 37.9944 95.7776 35.2839C96.5026 32.5726 96.5668 29.8725 95.9702 27.1836C95.3736 24.4948 94.2498 23.192 92.5987 23.2751ZM101.798 10.3946C103.671 10.3627 104.868 11.141 105.391 12.7295C105.687 13.9362 105.403 15.0703 104.54 16.1315C104.056 16.8007 102.583 17.652 100.122 18.6854C97.5507 19.7207 96.1106 20.8744 95.8018 22.1465C95.7495 22.3126 95.7248 22.4783 95.7276 22.6435C99.1577 23.5215 101.368 25.577 102.36 28.8099C103.405 31.9869 102.903 34.8321 100.853 37.3457C98.9116 39.8024 96.0963 41.0621 92.4069 41.1249C89.7638 41.1699 87.5223 40.5471 85.6827 39.2565C84.6664 41.0364 85.6768 42.1484 88.7139 42.5924C90.0943 42.7892 91.7477 42.8437 93.674 42.7558C99.1769 42.4418 103.396 44.3529 106.33 48.4892C108.925 52.0804 109.736 56.0049 108.762 60.2628C107.682 64.7979 104.844 67.9584 100.248 69.7442C98.0031 70.5535 95.5317 70.9812 92.8334 71.0271C85.4546 71.1528 80.464 69.1997 77.8616 65.168C75.9396 62.2813 75.7789 59.3097 77.3793 56.2529C78.9778 53.086 81.702 51.3321 85.552 50.9911C85.7713 50.9323 85.9911 50.901 86.2113 50.8973C89.7869 50.6161 92.3937 51.6733 94.0319 54.069C95.1632 55.8124 95.4737 57.8727 94.9634 60.2499C92.5152 58.8044 90.6481 59.1391 89.3621 61.2541C88.2908 63.035 88.1309 64.9656 88.8824 67.0459C89.631 68.961 90.9961 69.8741 92.9775 69.7853C96.0631 69.843 98.1242 67.9626 99.1608 64.1443C100.092 60.6032 99.9251 57.2736 98.6602 54.1555C98.5445 53.827 98.4297 53.5535 98.3158 53.3351C97.4673 52.0276 96.3486 51.0276 94.9598 50.3352C93.627 49.6969 92.2433 49.3074 90.8088 49.1666C89.4302 49.0799 88.0797 49.0202 86.7572 48.9877C85.4337 48.9 84.1635 48.7013 82.9464 48.3916C81.7835 48.0258 80.8921 47.4351 80.2723 46.6194C78.8134 45.0469 79.0564 43.1424 81.0012 40.906C81.9746 39.8429 83.1445 38.9967 84.5108 38.3676C82.1577 36.0391 81.311 33.2168 81.9706 29.9007C82.6302 26.5845 84.5741 24.2931 87.8024 23.0263C89.2247 22.4513 90.7899 22.1768 92.4978 22.2028C93.1586 22.1915 93.8204 22.2353 94.483 22.3342C94.3351 16.8836 95.6228 13.2538 98.3461 11.4448C99.1637 10.9352 100.067 10.5893 101.055 10.4073C101.275 10.4035 101.523 10.3993 101.798 10.3946Z" fill="white"/>
<path d="M107.306 6.91328C108.682 6.83477 111.021 5.05988 114.321 1.5886C114.862 0.973497 115.212 0.526877 115.373 0.248735L117.851 0.206543L118.882 46.2099C119.172 47.0863 119.786 47.544 120.723 47.5831C121.109 47.6316 121.688 47.6493 122.459 47.6362L122.476 48.6274L107.608 48.8805L107.591 47.8893C109.353 47.8593 110.423 47.6208 110.801 47.1737C110.963 46.9506 111.096 46.6729 111.2 46.3407L110.184 10.9128L110.264 10.7462C110.067 8.93184 109.198 8.01025 107.655 7.98144C107.49 7.98425 107.38 7.98612 107.325 7.98706L107.306 6.91328Z" fill="white"/>
<path d="M135.851 22.2908C134.143 22.2648 132.827 24.2426 131.904 28.2243C131.546 29.8828 131.354 31.511 131.326 33.1088L138.263 32.9081C138.234 28.0063 138.131 25.1714 137.953 24.4032C137.544 23.0332 136.843 22.329 135.851 22.2908ZM135.672 21.4677C142.004 21.3598 145.214 25.4363 145.299 33.6972C145.301 33.8073 145.302 33.8624 145.302 33.8624L131.348 34.4304C131.359 35.0362 131.427 35.8337 131.554 36.823C132.222 40.447 133.912 42.6491 136.624 43.4291C139.169 44.1018 141.414 43.32 143.359 41.0836C144.169 40.1334 144.811 39.0209 145.285 37.7459C144.41 44.5359 140.614 48.0431 133.897 48.2677C129.547 48.3417 126.51 46.3003 124.787 42.1434C123.125 38.316 123.083 34.2682 124.663 30C126.296 25.6207 129.031 22.9027 132.869 21.8459C133.801 21.6097 134.736 21.4836 135.672 21.4677Z" fill="white"/>
<path d="M154.693 20.9785C154.693 20.9785 154.721 20.9781 154.776 20.9771C156.978 20.9396 159.414 21.6142 162.081 23.0009C162.47 23.2146 162.822 22.8506 163.137 21.9089C163.24 21.5215 163.344 21.1617 163.449 20.8295L164.11 20.8182L164.072 28.3375L163.164 28.353C162.913 26.5396 161.811 24.9059 159.858 23.4519C158.688 22.6456 157.579 22.2238 156.532 22.1866C155.265 22.2081 154.419 22.6907 153.995 23.6344C153.944 23.8556 153.92 24.0763 153.924 24.2966C153.939 25.2327 155.153 26.9471 157.564 29.4398C160.928 32.9078 163.013 35.6539 163.818 37.6782C164.278 38.8271 164.517 39.8971 164.534 40.8883C164.555 42.1548 164.301 43.371 163.77 44.5367C162.208 46.6564 159.886 47.7425 156.802 47.795C154.324 47.8372 152.056 47.2424 149.997 46.0106C149.495 45.6336 149.078 45.4479 148.748 45.4535C147.979 45.5767 147.525 46.3832 147.385 47.8728L146.724 47.884L146.599 40.5327L147.259 40.5215C147.62 42.2779 148.884 43.7436 151.052 44.9185C152.275 45.5587 153.437 45.8694 154.538 45.8506C155.144 45.8403 155.666 45.7488 156.104 45.5761C156.809 44.9582 157.183 44.2908 157.226 43.5741C157.208 42.5278 156.023 40.868 153.671 38.5946C150.59 35.5625 148.649 33.1444 147.847 31.3403C147.387 30.2465 147.121 29.177 147.049 28.1316L147.047 28.049C146.997 25.1305 148.366 23.0417 151.154 21.7824C152.302 21.2671 153.482 20.9992 154.693 20.9785Z" fill="white"/>
<path fill-rule="evenodd" clip-rule="evenodd" d="M29.441 60.0265C27.9056 60.3068 27.2893 60.753 23.5301 64.3075C22.2004 65.5648 21.0162 66.6162 20.8987 66.6438C20.7812 66.6716 20.267 66.2393 19.7561 65.6832C15.418 60.9621 14.9721 60.6605 12.3253 60.6575C10.3093 60.6551 9.64462 60.9127 8.21511 62.2498C6.99693 63.389 6.56799 64.4729 6.5645 66.4189C6.5624 67.7282 6.63174 68.1329 6.98069 68.8416C7.35426 69.6004 9.14111 71.6781 12.3318 75.064C12.9202 75.6884 14.0309 76.8673 14.8001 77.6838C15.5694 78.5002 17.0926 80.132 18.185 81.31C19.2774 82.4879 20.2291 83.431 20.2998 83.4058C20.3706 83.3805 21.4738 82.3836 22.7516 81.1904C24.0293 79.9972 26.0947 78.0717 27.3412 76.9115C32.7061 71.9184 35.1318 69.5952 35.4372 69.1572C36.062 68.2619 36.4272 66.9886 36.4231 65.7203C36.412 62.1471 33.0119 59.3744 29.441 60.0265Z" fill="white"/>
<path d="M64.6338 68.1688L64.5703 82.5939C64.5703 83.4412 65.0575 83.9284 66.0318 84.0555C66.3708 84.0978 66.7944 84.119 67.3028 84.119V84.818H55.2924V84.119C56.6905 84.119 57.5166 83.8437 57.7708 83.2929C57.8131 83.1235 57.8555 82.9752 57.8979 82.8481L58.0249 68.1052C58.0249 68.0629 58.0249 68.0205 58.0249 67.9781C57.9402 67.2579 57.6013 66.8767 57.0082 66.8343C55.7373 66.8343 54.1698 67.851 52.3057 69.8845C51.9245 70.3082 51.5855 70.7107 51.289 71.0919L51.2254 82.9752C51.2254 83.6106 51.5432 83.9707 52.1786 84.0555C52.5176 84.0978 53.1107 84.119 53.958 84.119V84.818H42.5195V84.119C44.0447 84.119 44.9131 83.9284 45.1249 83.5471C45.252 83.3776 45.3156 83.187 45.3156 82.9752V70.1387C45.2309 68.8254 44.3836 68.1688 42.7737 68.1688C42.689 68.1688 42.6043 68.1688 42.5195 68.1688V67.3427C43.8752 67.2156 45.7181 66.4954 48.0481 65.1821C48.7683 64.7584 49.2131 64.4407 49.3826 64.2289H51.289V68.9313C52.8565 67.1097 54.9747 65.7116 57.6437 64.7373C61.1176 63.5087 63.3205 64.0171 64.2525 66.2624C64.4644 66.8555 64.5914 67.4909 64.6338 68.1688Z" fill="white"/>
<path d="M86.6367 50.5095C86.6367 50.5095 86.7002 50.5095 86.8273 50.5095C88.8184 50.5942 90.8519 51.5898 92.9278 53.4962C93.0125 53.6233 93.1396 53.6869 93.3091 53.6869C93.9022 53.6869 94.3894 52.9878 94.7707 51.5898C94.8554 51.2509 94.9189 50.912 94.9613 50.5731H95.4061L95.3426 61.6938H94.5165C93.7963 55.5933 91.5086 52.1617 87.6534 51.3992C87.3992 51.3568 87.1662 51.3144 86.9544 51.2721C86.8697 51.2721 86.8061 51.2721 86.7638 51.2721C83.7559 51.2721 81.913 52.2253 81.2352 54.1317C81.1505 54.513 81.0869 54.8942 81.0446 55.2755C81.1293 57.1819 82.2519 59.1519 84.4125 61.1854C88.3101 64.7864 90.6613 67.0105 91.4662 67.8578C95.4485 72.0942 97.4396 75.8647 97.4396 79.1691C97.4396 80.1859 97.2702 81.1603 96.9312 82.0923C95.279 85.3967 92.5042 87.3031 88.6066 87.8115C88.0135 87.8962 87.4416 87.9386 86.8909 87.9386C83.6712 87.8962 80.7268 86.943 78.0579 85.079C77.7189 84.8248 77.38 84.6977 77.0411 84.6977C76.1515 84.6977 75.4948 85.3332 75.0712 86.6041C74.9441 87.0277 74.8593 87.4514 74.817 87.875H74.3086L74.3721 76.6908H75.2618C75.4313 78.343 76.6598 80.3341 78.9475 82.6642C81.5741 85.2484 83.9677 86.5617 86.1283 86.6041C88.0771 86.5194 89.4751 85.3332 90.3224 83.0455C90.3647 82.876 90.3859 82.7277 90.3859 82.6007C90.3859 81.1179 88.8608 78.8726 85.8106 75.8647C82.2096 72.2213 80.3032 70.2726 80.0914 70.0184C76.7022 66.2903 75.0076 63.0494 75.0076 60.2957C75.0076 60.1263 75.0076 59.978 75.0076 59.8509C75.6854 55.5297 78.0155 52.6701 81.9978 51.2721C83.4805 50.7637 85.0268 50.5095 86.6367 50.5095Z" fill="white"/>
<path d="M109.69 76.6273C109.902 76.7543 110.135 76.8179 110.389 76.8179C111.364 76.8179 112.253 75.9071 113.058 74.0854C113.567 72.9415 113.821 71.8401 113.821 70.7809C113.736 69.044 113.016 68.1332 111.66 68.0484C111.575 68.0484 111.512 68.0484 111.47 68.0484C109.817 68.0061 108.652 69.3406 107.974 72.0519C107.254 75.0174 107.381 77.8558 108.356 80.5672C109.161 82.5583 110.262 83.6809 111.66 83.9351C113.312 84.1893 114.922 83.6174 116.49 82.2194C117.295 81.5415 117.951 80.7366 118.46 79.8046C117.994 82.3888 116.786 84.4859 114.838 86.0957C113.44 87.1972 111.936 87.7479 110.326 87.7479C106.682 87.7479 104.077 86.1593 102.509 82.9819C101.111 80.1011 101.006 77.0509 102.192 73.8312C103.42 70.5268 105.644 68.4297 108.864 67.5401C109.796 67.2859 110.771 67.1588 111.787 67.1588C115.134 67.1588 117.231 68.3662 118.078 70.7809C118.417 71.7977 118.481 72.9627 118.269 74.276C117.973 76.1824 116.765 77.4534 114.647 78.0888C112.783 78.6396 111.342 78.4913 110.326 77.644C109.987 77.3051 109.775 76.9662 109.69 76.6273Z" fill="white"/>
<path d="M131.69 67.7942C130.377 67.7519 129.339 69.2558 128.576 72.3061C128.28 73.577 128.11 74.8268 128.068 76.0553L133.406 75.9918C133.448 72.2213 133.406 70.0396 133.279 69.4465C132.982 68.3874 132.452 67.8366 131.69 67.7942ZM131.563 67.1588C136.435 67.1588 138.849 70.3361 138.807 76.6908C138.807 76.7755 138.807 76.8179 138.807 76.8179L128.068 77.0721C128.068 77.5381 128.11 78.1524 128.195 78.9149C128.661 81.711 129.932 83.4268 132.008 84.0622C133.956 84.613 135.693 84.041 137.218 82.3465C137.854 81.6263 138.362 80.779 138.744 79.8046C137.981 85.0154 135.015 87.6632 129.847 87.7479C126.5 87.7479 124.191 86.1381 122.92 82.9184C121.692 79.9529 121.713 76.8391 122.984 73.577C124.297 70.2302 126.437 68.1755 129.402 67.413C130.122 67.2435 130.843 67.1588 131.563 67.1588Z" fill="white"/>
<path d="M162.266 71.0987L162.202 85.5238C162.202 86.3711 162.689 86.8583 163.664 86.9854C164.003 87.0277 164.426 87.0489 164.935 87.0489V87.7479H152.924V87.0489C154.322 87.0489 155.149 86.7736 155.403 86.2228C155.445 86.0534 155.487 85.9051 155.53 85.778L155.657 71.0351C155.657 70.9928 155.657 70.9504 155.657 70.908C155.572 70.1878 155.233 69.8066 154.64 69.7642C153.369 69.7642 151.802 70.7809 149.938 72.8144C149.556 73.2381 149.218 73.6406 148.921 74.0218L148.857 85.9051C148.857 86.5406 149.175 86.9007 149.811 86.9854C150.15 87.0277 150.743 87.0489 151.59 87.0489V87.7479H140.152V87.0489C141.677 87.0489 142.545 86.8583 142.757 86.477C142.884 86.3075 142.948 86.1169 142.948 85.9051V73.0686C142.863 71.7553 142.016 71.0987 140.406 71.0987C140.321 71.0987 140.236 71.0987 140.152 71.0987V70.2726C141.507 70.1455 143.35 69.4253 145.68 68.112C146.4 67.6883 146.845 67.3706 147.015 67.1588H148.921V71.8612C150.488 70.0396 152.607 68.6415 155.276 67.6672C158.75 66.4386 160.952 66.947 161.885 69.1923C162.096 69.7854 162.223 70.4208 162.266 71.0987Z" fill="white"/>
<path d="M174.882 67.7942C173.569 67.7519 172.531 69.2558 171.768 72.3061C171.471 73.577 171.302 74.8268 171.26 76.0553L176.598 75.9918C176.64 72.2213 176.598 70.0396 176.47 69.4465C176.174 68.3874 175.644 67.8366 174.882 67.7942ZM174.755 67.1588C179.627 67.1588 182.041 70.3361 181.999 76.6908C181.999 76.7755 181.999 76.8179 181.999 76.8179L171.26 77.0721C171.26 77.5381 171.302 78.1524 171.387 78.9149C171.853 81.711 173.124 83.4268 175.2 84.0622C177.148 84.613 178.885 84.041 180.41 82.3465C181.046 81.6263 181.554 80.779 181.936 79.8046C181.173 85.0154 178.207 87.6632 173.039 87.7479C169.692 87.7479 167.383 86.1381 166.112 82.9184C164.884 79.9529 164.905 76.8391 166.176 73.577C167.489 70.2302 169.629 68.1755 172.594 67.413C173.314 67.2435 174.035 67.1588 174.755 67.1588Z" fill="white"/>
</svg>
