<svg width="489" height="344" viewBox="0 0 489 344" fill="none" xmlns="http://www.w3.org/2000/svg">
<path d="M264.184 211.102L233.505 249.446L249.529 273.383L266.922 261.902L264.184 211.102Z" fill="#2C2858"/>
<path d="M201.822 174.44C201.822 174.44 285.929 248.509 266.253 302.452C257.154 310.08 208.436 235.022 208.436 235.022L201.822 174.44Z" fill="#0E6A41"/>
<path d="M60.9505 47.293L53.4838 62.6978L42.6569 47.7093L48.3813 38.7748L60.9505 47.293Z" fill="#F37A50"/>
<path d="M97.0631 175.187C97.0631 175.187 66.3161 145.824 43.7761 129.557L12.0424 141.214C21.6504 163.504 88.8777 231.339 88.8777 231.339L97.0631 175.187Z" fill="#0E6A41"/>
<path d="M43.3692 41.5241L61.63 55.5211L43.7755 129.555L12.4153 142.879C9.80195 121.645 25.1287 64.9853 43.3692 41.5241Z" fill="#0E6A41"/>
<path d="M48.3799 38.776C53.8167 43.9004 56.3539 50.0869 65.6658 49.5139C69.0502 49.3032 72.5626 48.7366 76.6555 48.2381C82.9719 47.4676 88.2141 45.6936 88.3943 44.1984C88.8037 40.812 87.0911 39.8345 83.3174 39.5627C80.4001 39.3523 76.6555 41.4726 74.8763 39.3005C73.2943 37.3712 72.1855 34.542 79.1258 26.9897C87.988 17.3461 92.6033 15.653 90.1041 12.0725C88.4641 9.72237 83.7062 14.1296 75.1662 23.032C77.9301 16.6104 91.8432 8.07451 87.8337 3.76808C84.9215 0.639917 72.4024 16.1825 69.9879 20.7647C72.7095 11.3023 84.4557 3.93944 83.0738 1.45628C79.9447 -3.58083 68.9299 8.39262 66.0302 16.6961C66.8894 7.91047 73.9938 4.49426 72.3653 2.34151C69.3261 -1.67259 58.0488 11.9172 54.5046 21.7905C53.4538 24.7104 48.3799 38.776 48.3799 38.776Z" fill="#F37A50"/>
<path d="M70.7756 34.5374C68.4158 33.8955 65.2938 33.2441 62.2812 35.6201C59.3976 37.8942 59.1781 42.6248 59.1781 42.6248C58.3199 39.6226 58.7482 36.2795 61.2149 34.1554C64.1807 31.6015 68.6208 32.2974 70.7756 34.5374Z" fill="#DE623C"/>
<path d="M202.027 387.789C201.804 387.794 201.588 387.794 201.374 387.794C161.852 395.789 129.767 398.421 101.222 398.211C100.006 398.201 98.7986 398.187 97.5952 398.168L98.6883 371.897L98.7923 369.379L100.772 321.718C106.582 322.468 112.378 323.081 118.159 323.559C119.8 323.694 121.441 323.82 123.079 323.936C140.504 325.15 157.813 325.145 175.004 323.941C177.587 323.763 180.168 323.555 182.747 323.318C188.187 322.826 193.616 322.21 199.032 321.477L201.191 369.273L202.027 387.789Z" fill="#201D40"/>
<path d="M166.905 172.124H129.349L126.132 211.177L117.649 330.762L182.808 328.715L181.32 196.352L166.905 172.124Z" fill="#95A6DB"/>
<path d="M126.274 102.995C131.614 96.1509 135.826 102.791 143.439 94.3172C151.052 85.8428 157.165 79.7444 163.683 88.6853C170.201 97.6262 173.556 98.8814 178.299 98.3699C183.042 97.8582 183.016 119.616 183.016 119.616C183.016 119.616 201.682 114.411 199.179 99.2173C196.403 82.3738 189.534 87.1946 185.69 73.5489C181.848 59.9032 167.011 52.2035 160.221 55.4805C153.062 58.9353 149.305 62.7343 138.88 59.9108C128.455 57.0868 119.475 60.5082 119.493 75.5816C119.511 90.6551 103.616 86.1574 108.704 104.98C110.677 112.282 116.21 119.002 118.779 118.417C122.219 117.632 122.831 107.407 126.274 102.995Z" fill="#2C2858"/>
<path d="M136.275 177.966C136.275 177.966 139.012 191.187 151.36 189.393C163.707 187.6 163.159 177.966 163.159 177.966L164.952 149.208H134.482L136.275 177.966Z" fill="#DE623C"/>
<path d="M98.3926 167.411C98.3926 167.411 76.4377 288.171 83.9626 357.374C100.017 380.167 121.07 379.209 121.07 379.209C121.07 379.209 126.845 215.934 129.348 172.126C118.288 170.723 98.3926 167.411 98.3926 167.411Z" fill="#3F964F"/>
<path d="M201.822 174.44C201.822 174.44 228.346 334.581 212.291 357.374C196.236 380.167 175.183 379.208 175.183 379.208C175.183 379.208 176.381 231.487 166.905 172.126C176.862 172.49 201.822 174.44 201.822 174.44Z" fill="#3F964F"/>
<path d="M152.699 74.1896C113.374 73.1562 122.352 132.229 125.222 141.511C126.787 146.572 136.763 165.984 152.806 166.259C168.85 165.984 178.611 146.572 180.176 141.511C183.046 132.229 193.384 74.8805 152.699 74.1896Z" fill="#F37A50"/>
<path d="M145.625 112.361C146.023 112.124 146.342 111.723 146.494 111.208C146.808 110.145 146.289 109 145.336 108.65C145.049 108.545 138.239 106.129 132.045 111.087C131.23 111.74 131.044 113.006 131.629 113.915C132.214 114.824 133.348 115.032 134.164 114.379C138.874 110.608 144.148 112.479 144.201 112.499C144.692 112.679 145.202 112.613 145.625 112.361Z" fill="#2C2858"/>
<path d="M164.605 112.051C164.208 111.814 163.888 111.413 163.736 110.898C163.423 109.835 163.941 108.69 164.894 108.34C165.181 108.235 171.991 105.819 178.185 110.778C179.001 111.43 179.187 112.696 178.602 113.605C178.017 114.514 176.882 114.723 176.067 114.069C171.357 110.298 166.083 112.17 166.03 112.189C165.539 112.369 165.028 112.303 164.605 112.051Z" fill="#2C2858"/>
<path d="M171.981 119.735C171.981 121.71 170.545 123.311 168.774 123.311C167.004 123.311 165.568 121.71 165.568 119.735C165.568 117.76 167.004 116.159 168.774 116.159C170.545 116.159 171.981 117.76 171.981 119.735Z" fill="black"/>
<path d="M144.205 118.893C144.205 120.868 142.77 122.469 140.999 122.469C139.228 122.469 137.792 120.868 137.792 118.893C137.792 116.918 139.228 115.317 140.999 115.317C142.77 115.317 144.205 116.918 144.205 118.893Z" fill="black"/>
<path d="M156.771 121.97C159.35 126.538 162.617 132.11 162.617 132.11C162.617 132.11 161.13 136.943 155.42 137.032C157.834 135.909 160.218 134.086 159.222 130.496C158.227 126.907 156.771 121.97 156.771 121.97Z" fill="#DE623C"/>
<path d="M164.292 146.273C164.816 145.309 164.343 143.904 163.527 144.011C161.452 144.283 158.025 144.625 154.772 144.47C151.52 144.314 148.131 143.647 146.084 143.178C145.279 142.993 144.701 144.348 145.149 145.358C146.528 148.466 149.441 153.221 154.427 153.459C159.412 153.697 162.68 149.238 164.292 146.273Z" fill="white"/>
<path d="M121.596 113.636C126.037 115.287 127.299 79.8378 144.575 92.6823C156.737 101.725 179.154 103.985 174.622 91.7232C178.255 94.725 182.373 99.4641 182.373 99.4641L175.967 75.814C175.967 75.814 142.995 64.2574 131.286 75.9641C119.578 87.6708 121.596 113.636 121.596 113.636Z" fill="#2C2858"/>
<path d="M129.799 117.641C132.414 123.361 130.89 130.069 126.396 132.624C121.902 135.178 116.14 132.612 113.525 126.892C110.911 121.172 112.434 114.464 116.928 111.909C121.422 109.355 127.184 111.921 129.799 117.641Z" fill="#F37A50"/>
<path d="M122.995 129.641C122.881 129.641 122.765 129.623 122.65 129.584C122.025 129.372 121.673 128.635 121.863 127.938C122.819 124.435 122.734 121.789 121.619 120.284C120.114 118.255 117.074 118.592 117.044 118.596C116.396 118.673 115.812 118.152 115.74 117.429C115.669 116.707 116.132 116.056 116.78 115.974C116.955 115.952 121.099 115.465 123.43 118.586C125.11 120.837 125.344 124.242 124.126 128.706C123.971 129.275 123.502 129.641 122.995 129.641Z" fill="#DE623C"/>
<path d="M201.821 262.238L260.067 274.529C260.067 274.529 269.768 293.877 262.42 315.241C252.02 316.032 214.041 308.142 198.25 275.373C200.245 268.984 201.821 262.238 201.821 262.238Z" fill="#0E6A41"/>
<path d="M191.425 290.729C193.043 290.183 194.142 288.708 194.16 287.059C194.174 285.704 193.47 284.443 192.305 283.709L194.329 237.913L194.331 237.863C194.351 236.012 193.731 234.255 192.539 232.78C192.32 232.509 192.081 232.248 191.83 232.005C190 230.233 188.905 227.722 188.826 225.116L188.195 204.495C188.905 203.727 188.869 202.66 188.849 202.07C188.844 201.921 188.839 201.781 188.84 201.641L188.847 201.06C188.858 199.965 188.657 199.117 188.232 198.475C188.242 198.295 188.246 198.123 188.247 197.984C188.253 197.405 188.241 196.791 188.018 196.22C187.69 195.383 186.995 194.896 186.109 194.884L177.524 194.769C177.262 194.766 177.013 194.803 176.782 194.881C176.257 195.058 175.841 195.438 175.578 195.98C175.286 196.582 175.242 197.274 175.237 197.81C175.233 198.102 175.244 198.359 175.268 198.592C174.875 199.218 174.663 200.002 174.654 200.87L174.646 201.589C174.636 202.299 174.622 203.352 175.303 204.164L174.37 225.04C174.256 227.599 173.136 230.031 171.297 231.713C169.623 233.245 168.688 235.307 168.664 237.519C168.664 237.526 168.664 237.533 169.185 283.772C168.309 284.503 167.785 285.583 167.773 286.705C167.75 288.881 169.572 290.675 171.836 290.706L190.012 290.95C190.497 290.956 190.972 290.882 191.425 290.729Z" fill="white"/>
<path d="M175.992 217.934L175.623 225.346C175.481 228.195 174.281 230.875 172.258 232.622C170.824 233.86 169.924 235.599 169.904 237.534L170.433 284.525C169.592 284.965 169.023 285.779 169.013 286.721C168.997 288.147 170.268 289.321 171.851 289.342L190.027 289.586C191.609 289.607 192.905 288.468 192.92 287.042C192.933 285.913 192.139 284.946 191.025 284.579L191.556 272.555L192.6 248.964L193.091 237.845C193.112 235.905 192.246 234.139 190.833 232.862C188.892 231.107 187.678 228.545 187.575 225.759L187.134 213.777C185.429 214.841 184.255 217.382 182.166 217.632C180.123 217.876 176.862 214.813 175.992 217.934Z" fill="#FFA823"/>
<path d="M174.066 236.411C173.33 236.401 172.717 237.003 172.628 237.788V237.793C172.628 237.795 172.628 237.795 172.628 237.798C172.628 237.798 172.628 237.8 172.628 237.803C172.623 237.855 172.619 237.907 172.619 237.961C172.617 238.085 172.63 238.205 172.653 238.321C172.793 239.017 173.356 239.543 174.032 239.549C174.185 239.552 174.332 239.528 174.47 239.481C174.758 239.384 175.011 239.188 175.189 238.93C175.37 238.669 175.476 238.347 175.48 237.999C175.491 237.135 174.856 236.423 174.066 236.411Z" fill="#FFBF5E"/>
<path d="M176.984 283.71C176.912 283.329 176.742 282.976 176.488 282.692C176.142 282.304 175.677 282.086 175.18 282.079C174.847 282.074 174.524 282.166 174.242 282.341C174.104 282.426 173.977 282.533 173.86 282.656C173.582 282.952 173.4 283.328 173.33 283.738V283.74C173.308 283.856 173.298 283.972 173.298 284.093C173.296 284.214 173.304 284.332 173.321 284.448C173.383 284.859 173.557 285.241 173.829 285.544C173.977 285.71 174.147 285.844 174.331 285.941C174.58 286.079 174.851 286.152 175.136 286.157C175.333 286.159 175.526 286.128 175.709 286.067C175.987 285.975 176.244 285.809 176.458 285.58C176.719 285.3 176.895 284.954 176.974 284.576C177.003 284.436 177.018 284.292 177.02 284.143C177.022 283.996 177.01 283.852 176.984 283.71Z" fill="#FFBF5E"/>
<path d="M186.809 270.45C185.781 270.438 184.937 271.34 184.924 272.464C184.918 273.011 185.106 273.527 185.456 273.917C185.803 274.305 186.267 274.523 186.764 274.53C186.961 274.533 187.154 274.499 187.333 274.44C187.708 274.313 188.035 274.059 188.268 273.723C188.502 273.387 188.642 272.97 188.646 272.516C188.659 271.391 187.834 270.464 186.809 270.45Z" fill="#FFBF5E"/>
<path d="M180.09 276.644C179.819 276.341 179.456 276.17 179.067 276.165C178.679 276.16 178.312 276.319 178.034 276.617C177.754 276.916 177.599 277.313 177.593 277.742C177.584 278.622 178.229 279.346 179.033 279.358C179.188 279.361 179.337 279.334 179.477 279.287C180.067 279.088 180.498 278.492 180.507 277.782C180.511 277.354 180.364 276.949 180.09 276.644Z" fill="#FFBF5E"/>
<path d="M174.946 266.893C174.906 266.824 174.857 266.76 174.804 266.701C174.573 266.443 174.263 266.298 173.934 266.294C173.881 266.294 173.828 266.296 173.777 266.303C173.163 266.379 172.686 266.945 172.677 267.639C172.673 267.967 172.775 268.282 172.968 268.531C172.987 268.557 173.008 268.583 173.032 268.609C173.255 268.857 173.547 269.002 173.864 269.014C173.876 269.016 173.891 269.016 173.904 269.016C174.035 269.018 174.163 268.997 174.286 268.957C174.47 268.895 174.64 268.784 174.785 268.633C175.022 268.377 175.156 268.036 175.16 267.672C175.162 267.39 175.088 267.12 174.946 266.893Z" fill="#FFBF5E"/>
<path d="M176.256 263.653C176.208 263.599 176.155 263.549 176.097 263.504H176.095C175.889 263.34 175.645 263.251 175.384 263.246C175.053 263.241 174.741 263.379 174.503 263.629C174.266 263.885 174.132 264.226 174.128 264.59C174.126 264.737 174.145 264.879 174.185 265.016C174.193 265.045 174.202 265.073 174.213 265.102C174.272 265.273 174.363 265.428 174.482 265.561C174.714 265.819 175.024 265.966 175.354 265.968C175.486 265.971 175.614 265.949 175.734 265.909C175.923 265.845 176.095 265.731 176.235 265.584C176.462 265.341 176.607 265 176.611 264.623C176.615 264.259 176.488 263.916 176.256 263.653Z" fill="#FFBF5E"/>
<path d="M188.067 234.833C187.834 234.575 187.526 234.431 187.195 234.426C186.864 234.421 186.552 234.559 186.315 234.81C186.077 235.065 185.943 235.406 185.939 235.771C185.934 236.135 186.062 236.481 186.293 236.741C186.525 236.999 186.834 237.146 187.165 237.148C187.297 237.151 187.424 237.132 187.547 237.089C187.732 237.028 187.902 236.916 188.046 236.765C188.284 236.509 188.418 236.168 188.422 235.804C188.426 235.439 188.299 235.094 188.067 234.833Z" fill="#FFBF5E"/>
<path d="M183.653 240.839C182.97 240.829 182.405 241.433 182.397 242.183C182.39 242.933 182.94 243.553 183.624 243.561C183.757 243.563 183.884 243.542 184.003 243.502C184.256 243.418 184.472 243.248 184.627 243.024C184.782 242.798 184.875 242.519 184.88 242.216C184.888 241.466 184.339 240.848 183.653 240.839Z" fill="#FFBF5E"/>
<path d="M173.857 259.539C173.77 259.42 173.657 259.323 173.532 259.259C173.413 259.193 173.282 259.157 173.142 259.155C172.893 259.15 172.658 259.254 172.482 259.444C172.301 259.633 172.202 259.891 172.197 260.166C172.195 260.44 172.291 260.698 172.465 260.895C172.639 261.089 172.87 261.198 173.119 261.2C173.218 261.203 173.314 261.186 173.403 261.156C173.471 261.132 173.534 261.101 173.596 261.063C173.702 260.997 173.797 260.907 173.872 260.798C173.989 260.628 174.059 260.419 174.061 260.19C174.063 259.943 173.987 259.716 173.857 259.539Z" fill="#FFBF5E"/>
<path d="M183.379 226.982C183.205 226.788 182.973 226.68 182.725 226.677C182.211 226.67 181.789 227.122 181.783 227.688C181.776 228.251 182.19 228.715 182.704 228.722C182.801 228.724 182.897 228.708 182.988 228.677C183.175 228.616 183.338 228.488 183.455 228.317C183.572 228.149 183.642 227.938 183.646 227.711C183.648 227.437 183.555 227.179 183.379 226.982Z" fill="#FFBF5E"/>
<path d="M180.086 242.507C179.914 242.313 179.681 242.204 179.434 242.199C178.921 242.192 178.496 242.646 178.492 243.209C178.486 243.775 178.897 244.239 179.411 244.246C179.511 244.246 179.606 244.232 179.698 244.201C179.835 244.154 179.965 244.071 180.071 243.958C180.252 243.766 180.351 243.51 180.354 243.236C180.357 242.961 180.262 242.703 180.086 242.507Z" fill="#FFBF5E"/>
<path d="M183.735 207.131C183.726 207.931 183.126 208.572 182.393 208.562C181.661 208.552 181.074 207.896 181.083 207.096C181.091 206.296 181.692 205.655 182.424 205.665C183.157 205.675 183.744 206.331 183.735 207.131Z" fill="#FFA823"/>
<path d="M184.281 214.339C184.274 214.927 183.833 215.398 183.294 215.391C182.755 215.384 182.324 214.901 182.33 214.313C182.337 213.725 182.778 213.254 183.317 213.261C183.856 213.268 184.287 213.751 184.281 214.339Z" fill="#FFA823"/>
<path d="M179.982 204.183C179.977 204.677 179.606 205.073 179.154 205.067C178.701 205.061 178.339 204.656 178.344 204.161C178.35 203.667 178.721 203.271 179.173 203.277C179.625 203.283 179.988 203.689 179.982 204.183Z" fill="#FFA823"/>
<path d="M182.996 201.55C182.988 202.297 182.427 202.895 181.743 202.886C181.059 202.877 180.511 202.264 180.519 201.517C180.527 200.77 181.088 200.171 181.772 200.18C182.456 200.19 183.004 200.803 182.996 201.55Z" fill="#FFA823"/>
<path d="M186.299 208.085C186.457 208.031 186.573 207.868 186.575 207.674C186.578 207.435 186.406 207.238 186.191 207.236L177.684 207.121C177.469 207.119 177.293 207.311 177.29 207.55C177.288 207.79 177.46 207.986 177.675 207.989L186.182 208.103C186.222 208.104 186.262 208.097 186.299 208.085Z" fill="#95A6DB"/>
<path d="M187.909 202.451C188.067 202.398 188.183 202.235 188.185 202.041C188.188 201.801 188.015 201.605 187.8 201.602L181.368 201.516C181.153 201.513 180.977 201.704 180.974 201.944C180.971 202.184 181.144 202.38 181.359 202.383L187.791 202.469C187.832 202.47 187.872 202.464 187.909 202.451Z" fill="#95A6DB"/>
<path d="M188.379 284.71C188.537 284.657 188.654 284.494 188.656 284.3C188.658 284.06 188.486 283.864 188.271 283.861L173.554 283.664C173.339 283.661 173.163 283.853 173.16 284.092C173.158 284.332 173.33 284.529 173.545 284.531L188.262 284.729C188.303 284.729 188.342 284.723 188.379 284.71Z" fill="#FF7023"/>
<path d="M182.799 230.559C182.957 230.506 183.073 230.343 183.075 230.149C183.078 229.909 182.906 229.713 182.691 229.71L176.736 229.63C176.521 229.627 176.345 229.819 176.342 230.059C176.339 230.298 176.512 230.495 176.727 230.498L182.682 230.578C182.723 230.578 182.762 230.572 182.799 230.559Z" fill="#FF7023"/>
<path d="M200.937 280.528C202.948 273.068 205.291 268.887 201.189 259.764C199.696 256.449 200.705 253.166 198.865 249.155C197.267 245.672 195.277 245.187 193.999 245.591L193.709 254.257C192.77 256.599 189.924 258.768 180.71 256.12C173.666 254.095 169.188 249.62 167.275 253.528C166.02 256.093 169.744 257.172 174.537 258.792C168.274 258.528 168.219 255.715 166.331 258.711C164.05 262.331 173.313 265.249 177.954 265.881C171.124 267.457 167.722 261.941 166.258 264.299C164.733 267.052 168.383 271.779 176.218 271.444C169.308 273.045 167.53 269.178 166.622 271.75C165.678 274.422 174.247 280.982 184.994 281.468C187.761 281.593 200.937 280.528 200.937 280.528Z" fill="#F37A50"/>
<path d="M0.486877 181.078C0.486877 181.078 4.04407 187.491 9.34356 192.127C21.3209 189.778 22.1613 185.1 22.2813 184.996L18.7016 198.072C18.7016 198.072 26.8388 202.549 31.9368 204.468C60.5264 217.307 85.0283 208.58 99.4195 200.195C97.9512 197.544 95.5696 193.053 94.5816 190.116C95.7298 192.858 102.768 196.382 104.437 196.867C108.264 194.041 113.108 190.2 113.108 190.2C113.108 190.2 98.9918 174.948 102.519 146.415C106.048 117.879 81.3638 101.292 62.8178 101.646C11.2024 102.628 21.0681 140.046 13.8488 157.239C5.8719 176.237 0.486877 181.078 0.486877 181.078Z" fill="black"/>
<path d="M55.3179 116.898C64.3326 116.898 71.6405 108.748 71.6405 98.695C71.6405 88.6417 64.3326 80.4919 55.3179 80.4919C46.3032 80.4919 38.9954 88.6417 38.9954 98.695C38.9954 108.748 46.3032 116.898 55.3179 116.898Z" fill="black"/>
<path d="M62.1292 184.178L43.5392 181.073L45.0203 200.317C45.0203 200.317 54.4349 219.236 63.3674 215.978C72.2999 212.719 67.9436 204.362 67.9436 204.362L62.1292 184.178Z" fill="#F37A50"/>
<path d="M94.0314 172.325V172.323C93.3501 169.539 91.4463 167.314 89.0076 166.41C88.4324 166.197 87.8296 166.06 87.2056 166.003H87.2035C86.9955 165.984 86.7896 165.975 86.5774 165.975C82.3177 165.975 78.8517 169.84 78.8517 174.59C78.8517 177.286 79.9681 179.698 81.7128 181.277C83.0414 182.484 84.7351 183.206 86.5774 183.206C90.8371 183.206 94.303 179.341 94.303 174.59C94.303 173.807 94.2096 173.047 94.0314 172.325ZM86.5774 181.812C85.0323 181.812 83.6124 181.206 82.5002 180.196C81.0379 178.873 80.1019 176.851 80.1019 174.591C80.1019 170.609 83.0075 167.372 86.5774 167.372C87.2842 167.372 87.9633 167.499 88.6001 167.731C88.9482 167.859 89.2835 168.02 89.6019 168.21C90.3893 168.676 91.077 169.313 91.6288 170.082V170.084L91.6309 170.087C91.633 170.089 91.633 170.089 91.6351 170.091C92.5223 171.324 93.0529 172.891 93.0529 174.591C93.0529 178.574 90.1473 181.812 86.5774 181.812Z" fill="#F7D743"/>
<path d="M91.235 152.706C92.2016 129.748 79.8778 110.45 63.709 109.604C47.5402 108.757 33.6493 126.682 32.6827 149.641C31.7161 172.599 44.0399 191.897 60.2087 192.743C76.3775 193.59 90.2685 175.665 91.235 152.706Z" fill="#F37A50"/>
<path d="M53.9215 147.868C54.1528 147.844 54.3784 147.735 54.5582 147.541C57.1693 144.727 61.2497 145.717 61.2907 145.727C61.8601 145.87 62.4282 145.474 62.5587 144.839C62.6893 144.204 62.3359 143.571 61.7671 143.423C61.5549 143.369 56.536 142.122 53.0855 145.842C52.6649 146.295 52.6534 147.043 53.0599 147.512C53.2927 147.781 53.6121 147.901 53.9215 147.868Z" fill="black"/>
<path d="M89.0778 154.903C89.1896 154.88 89.3 154.837 89.4048 154.771C89.9157 154.453 90.0986 153.733 89.8129 153.163C87.5968 148.739 83.4018 148.922 83.2244 148.932C82.6412 148.965 82.1898 149.519 82.2193 150.171C82.2486 150.821 82.7433 151.322 83.3256 151.293C83.4632 151.287 86.4045 151.205 87.9631 154.316C88.1898 154.769 88.6444 154.991 89.0778 154.903Z" fill="black"/>
<path d="M72.9058 161.167C73.8976 163.245 74.7035 165.316 75.8064 166.7C76.1783 167.167 76.1485 167.889 75.7489 168.326C74.099 170.129 70.4558 170.876 68.2643 171.17C67.9445 171.213 67.8188 170.722 68.1107 170.569C70.5804 169.279 71.795 168.134 72.3526 167.47C72.6297 167.14 72.7431 166.683 72.6679 166.239C72.4954 165.218 72.1626 163.144 72.009 161.466C71.9557 160.887 72.6605 160.653 72.9058 161.167Z" fill="#DE623C"/>
<path d="M56.772 175.13C56.4932 174.359 57.167 173.591 57.8604 173.894C59.6237 174.662 62.5555 175.864 65.4271 176.695C68.2988 177.526 71.3841 178.066 73.2604 178.351C73.9983 178.462 74.2522 179.499 73.6725 180.021C71.8903 181.625 68.4603 183.849 64.0588 182.575C59.6571 181.301 57.6299 177.497 56.772 175.13Z" fill="white"/>
<path d="M26.6514 146.199C45.399 149.334 73.2086 135.564 78.0133 125.71C77.806 111.941 69.7798 102.427 57.7567 104.89C45.7337 107.353 23.139 127.822 26.6514 146.199Z" fill="black"/>
<path d="M72.8334 130.089C72.8334 130.089 81.6827 145.047 92.3766 150.365C91.0335 134.886 90.1873 123.189 84.101 118.126C78.0147 113.063 70.7059 110.813 70.7059 110.813L72.8334 130.089Z" fill="black"/>
<path d="M37.6406 147.131C40.4866 151.506 40.1914 157.158 36.9812 159.755C33.771 162.352 28.8614 160.912 26.0154 156.537C23.1695 152.162 23.4647 146.511 26.6749 143.913C29.8853 141.316 34.7946 142.756 37.6406 147.131Z" fill="#F37A50"/>
<path d="M32.7255 157.326C32.8823 157.295 33.0351 157.222 33.1712 157.109C35.1254 155.471 35.8691 153.162 35.16 150.932C34.4342 148.648 32.3991 147.053 30.3213 147.14C29.7364 147.164 29.2801 147.712 29.302 148.365C29.3236 149.017 29.8151 149.526 30.4 149.502C31.5385 149.454 32.7518 150.43 33.1627 151.722C33.5572 152.964 33.1084 154.205 31.8984 155.219C31.4304 155.611 31.336 156.352 31.6877 156.873C31.9368 157.243 32.3432 157.404 32.7255 157.326Z" fill="#DE623C"/>
<path d="M55.3189 151.72C54.9723 153.686 56.1207 155.594 57.8842 155.98C59.6474 156.367 61.358 155.086 61.7043 153.119C62.0511 151.152 60.9025 149.245 59.1391 148.859C57.3759 148.472 55.6655 149.753 55.3189 151.72Z" fill="black"/>
<path d="M78.5868 156.819C78.2403 158.785 79.3889 160.693 81.1521 161.079C82.9153 161.466 84.6259 160.185 84.9725 158.218C85.3191 156.252 84.1705 154.344 82.4072 153.957C80.6438 153.571 78.9334 154.852 78.5868 156.819Z" fill="black"/>
<path d="M36.3447 160.207C35.3897 159.284 34.2308 158.617 32.9531 158.302C32.414 158.169 31.8558 158.098 31.2827 158.098C31.2063 158.098 31.1321 158.1 31.0556 158.103C29.9838 158.136 28.9651 158.415 28.0439 158.894C28.0291 158.9 28.0142 158.908 27.9993 158.917C26.9657 159.459 26.0573 160.25 25.3357 161.22C24.2257 162.714 23.5571 164.628 23.5571 166.714C23.5571 171.464 27.023 175.33 31.2827 175.33C32.9043 175.33 34.4133 174.768 35.6592 173.81C35.9988 173.55 36.3214 173.258 36.6185 172.939C38.0915 171.37 39.0084 169.159 39.0084 166.714C39.0084 164.12 37.9748 161.79 36.3447 160.207ZM36.0709 171.568C35.6932 172.032 35.2623 172.439 34.789 172.783C33.7766 173.512 32.5732 173.935 31.2827 173.935C27.7128 173.935 24.8072 170.695 24.8072 166.714C24.8072 165.045 25.3166 163.507 26.1741 162.283C26.9657 161.147 28.0566 160.283 29.311 159.835C29.311 159.833 29.3131 159.833 29.3153 159.833C29.8586 159.639 30.4316 159.523 31.0259 159.499C31.1108 159.495 31.1978 159.492 31.2827 159.492C31.9258 159.492 32.5456 159.596 33.1314 159.793C33.8063 160.018 34.4346 160.361 34.997 160.806H34.9991C36.6652 162.112 37.7561 164.273 37.7561 166.714C37.7561 168.581 37.1173 170.285 36.0709 171.568Z" fill="#F7D743"/>
<path d="M29.4685 159.913C29.4685 159.913 28.2857 159.292 27.8451 158.749C28.7496 158.154 31.2079 157.895 31.2079 157.895C31.2079 157.895 30.373 158.697 31.2775 159.913C30.7905 159.965 29.4685 159.913 29.4685 159.913Z" fill="#F37A50"/>
<path d="M95.75 398.136C86.8231 397.957 78.2272 397.507 69.8394 396.866C63.7692 396.404 57.8074 395.843 51.9091 395.211L62.7781 348.85L63.5952 345.361L82.886 343.848L94.3046 342.954L94.7313 342.921C94.7313 342.921 94.8459 343.988 95.0093 346.04C95.3404 350.206 95.871 358.433 96.0472 370.036C96.1703 377.916 96.1278 387.355 95.75 398.136Z" fill="#F37A50"/>
<path d="M80.9441 349.169C80.9441 349.169 78.8111 367.271 69.8375 396.866C63.7673 396.404 57.8054 395.843 51.9072 395.211C38.2388 393.751 24.9014 391.923 11.303 390.106C14.6777 372.9 18.8589 356.336 24.1755 342.921L62.7762 348.85L68.0398 349.659L80.9441 349.169Z" fill="#F37A50"/>
<path d="M101.223 398.213C100.006 398.203 98.7987 398.189 97.5953 398.17C96.9777 398.161 96.3622 398.151 95.7488 398.137C86.8219 397.957 78.226 397.507 69.8382 396.866C63.768 396.404 57.8061 395.843 51.9079 395.211C38.2395 393.751 24.9021 391.923 11.3037 390.106C5.44369 389.322 -0.463041 388.544 -6.46527 387.796C-3.82921 362.865 1.55327 338.921 12.3501 323.632C13.9822 321.32 15.7375 319.206 17.6264 317.317L82.4348 318.001L84.5381 318.023C86.425 320.797 88.1166 324.099 89.632 327.857C91.4212 332.293 92.9684 337.363 94.3034 342.954C94.5454 343.965 94.781 344.994 95.0081 346.04C96.5596 353.141 97.7991 360.995 98.7924 369.381C98.9027 370.306 99.0089 371.237 99.1129 372.176C100.026 380.441 100.711 389.188 101.223 398.213Z" fill="#070635"/>
<path d="M89.8631 307.161C90.8073 290.944 104.826 267.558 99.7371 250.748C96.1032 237.26 89.1877 206.922 79.8838 204.234C76.108 203.143 72.4952 202.286 67.3012 202.145C67.3012 202.145 68.6297 215.597 62.3759 215.703C50.3373 215.907 44.8625 198.299 44.8625 198.299C38.4455 197.143 14.2634 203.146 12.8868 209.286C11.7201 230.536 18.337 256.885 22.061 280.221C22.3189 291.985 19.3473 301.267 17.9114 307.81C15.5925 314.569 12.0166 321.957 11.9149 323.447C11.9149 323.447 60.4294 344.685 89.6835 329.389C89.6835 329.389 89.2253 318.115 89.8631 307.161Z" fill="#E62552"/>
<path d="M8.07325 219.033C8.74012 243.44 39.9804 297.114 62.9376 306.421C74.7782 297.755 79.4185 283.382 79.4185 283.382C79.4185 283.382 47.2195 236.976 41.2653 222.989C38.8661 217.353 33.57 201.525 25.4292 201.938C13.0597 202.565 7.90707 212.96 8.07325 219.033Z" fill="#F37A50"/>
<path d="M134.872 291.588C134.872 291.588 88.2811 284.607 78.73 282.144C68.7319 279.565 63.5516 295.48 62.9385 306.423C91.6085 312.236 114.79 309.757 139.104 303.995C136.625 297.495 134.872 291.588 134.872 291.588Z" fill="#F37A50"/>
<path d="M40.51 141.732C40.15 142.055 39.7916 142.468 39.5197 142.989C39.2455 143.506 39.0867 144.116 39.0511 144.67C39.0156 145.226 39.0782 145.722 39.1703 146.165C39.2627 146.612 39.393 147.001 39.5318 147.368C39.8124 148.1 40.1375 148.733 40.4692 149.336C40.8016 149.938 41.1437 150.509 41.4841 151.07C42.8449 153.297 44.1949 155.425 45.1022 157.773C45.5509 158.942 45.8807 160.16 46.0021 161.409C46.1233 162.656 46.0352 163.936 45.6908 165.158C45.5216 165.769 45.2967 166.366 45.0286 166.944C44.7548 167.519 44.4341 168.07 44.0871 168.605C43.3759 169.659 42.5419 170.625 41.6384 171.508C42.6249 170.744 43.5604 169.884 44.3993 168.895C44.8104 168.393 45.2011 167.864 45.5507 167.295C45.8947 166.723 46.2012 166.115 46.4527 165.474C46.9629 164.193 47.2146 162.767 47.2201 161.344C47.2273 159.918 46.9941 158.504 46.632 157.159C45.8996 154.462 44.6831 152.02 43.5761 149.671C43.3004 149.084 43.0321 148.503 42.7915 147.93C42.5508 147.359 42.3381 146.791 42.2008 146.268C42.055 145.748 42.0238 145.269 42.0811 145.045C42.1121 144.935 42.1475 144.895 42.1938 144.846C42.2407 144.8 42.315 144.735 42.433 144.656L40.51 141.732Z" fill="black"/>
<path d="M161.374 277.582L157.759 277.282L155.967 304.144L159.581 304.444L161.374 277.582Z" fill="white"/>
<path d="M166.507 305.83C166.646 304.101 162.905 302.312 158.151 301.835C153.396 301.357 149.429 302.372 149.289 304.101L166.507 305.83Z" fill="white"/>
<path d="M159.863 279.361L181.205 261.723C181.842 261.197 181.543 260.071 180.752 260.016L142.576 257.374C141.798 257.32 141.371 258.364 141.917 258.984L159.863 279.361Z" fill="white"/>
<path d="M149.168 254.955L148.241 255.576L154.753 267.683L155.681 267.063L149.168 254.955Z" fill="#F37A50"/>
<path d="M143.976 254.011C145.144 256.266 147.528 257.168 149.302 256.026C151.076 254.884 151.568 252.13 150.4 249.875C149.233 247.619 146.848 246.717 145.074 247.859C143.3 249.001 142.809 251.756 143.976 254.011Z" fill="#6AA35D"/>
<path d="M144.768 249.51C144.856 249.985 145.538 250.23 146.29 250.057C147.043 249.884 147.582 249.357 147.494 248.882C147.406 248.407 146.724 248.162 145.972 248.336C145.219 248.509 144.68 249.035 144.768 249.51Z" fill="#56854C"/>
<path d="M159.628 276.556L176.206 263.418C176.68 263.026 176.457 262.187 175.868 262.146L147.432 260.178C146.853 260.138 146.534 260.916 146.941 261.378L159.628 276.556Z" fill="#92C985"/>
<path d="M134.441 301.716C145.583 308.131 149.725 301.396 151.379 298.898C153.182 296.174 156.393 293.485 158.84 294.226C161.357 294.99 163.432 296.478 164.634 294.41C166.311 291.526 159.45 286.857 154.564 290.676C154.564 290.676 158.35 287.606 161.025 288.633C163.955 289.759 166.128 290.597 167.366 289.14C168.029 288.358 168.047 286.822 166.999 285.9C168.454 285.963 170.945 284.935 170.031 283.226C167.135 277.811 159.625 274.094 152.209 278.13C158.902 270.24 164.711 277.302 167.185 275.38C168.672 274.225 167.424 272.152 166.242 271.14C162.453 267.89 157.282 267.42 152.941 269.649C148.599 271.878 143.775 277.929 144.095 283.247C144.095 283.247 138.196 290.495 133.877 291.438L134.441 301.716Z" fill="#F37A50"/>
<path d="M127.585 290.534C127.585 290.534 125.577 297.846 126.803 306.344C124.23 307.084 121.857 307.263 121.857 307.263C121.857 307.263 118.641 295.694 122.883 289.863C124.497 290.021 127.585 290.534 127.585 290.534Z" fill="#F7D743"/>
<path d="M117.649 298.564C117.649 302.237 120.319 305.215 123.612 305.215C126.906 305.215 129.576 302.237 129.576 298.564C129.576 294.89 126.906 291.913 123.612 291.913C120.319 291.913 117.649 294.89 117.649 298.564Z" fill="#F7D743"/>
<path d="M119.46 298.563C119.46 301.12 121.319 303.193 123.612 303.193C125.905 303.193 127.763 301.12 127.763 298.563C127.763 296.005 125.905 293.932 123.612 293.932C121.319 293.932 119.46 296.005 119.46 298.563Z" fill="#ED4011"/>
<path d="M324.909 368.716C324.909 368.716 319.187 380.634 310.744 397.06C302.825 395.728 295.666 394.282 289.324 392.838C267.175 387.796 254.951 382.781 254.951 382.781C254.951 382.781 254.951 382.781 254.949 382.781C258.037 375.017 261.015 367.741 263.649 361.412C269.401 347.591 273.506 338.289 273.506 338.289L286.389 345.916L315.479 363.135L324.909 368.716Z" fill="#0C5937"/>
<path d="M346.609 401.514C344.686 401.358 342.788 401.188 340.918 401.01C329.914 399.962 319.828 398.587 310.744 397.06C302.825 395.727 295.666 394.281 289.324 392.837C287.792 382.387 286.491 372.803 285.485 365.096C284.003 353.747 283.163 346.466 283.163 346.466L286.389 345.915L346.551 335.625C346.551 335.625 346.623 339.351 346.696 345.671C346.74 349.652 346.787 354.665 346.812 360.427C346.868 371.904 346.846 386.349 346.609 401.514Z" fill="#0E6A41"/>
<path d="M281.149 182.285L301.028 191.12H348.24C347.772 183.738 342.974 175.181 330.399 170.881C327.915 170.028 325.126 169.346 322.008 168.87C288.916 163.817 281.149 182.285 281.149 182.285Z" fill="#C4204A"/>
<path d="M264.183 211.101C257.558 261.127 260.13 344.464 260.971 358.224C266.506 372.85 330.461 359.436 352.53 360.42C352.971 349.591 348.786 308.622 351.136 292.321C355.275 263.704 387.924 218.195 363.001 209.597C322.253 195.539 306.461 194.703 264.183 211.101Z" fill="#30357F"/>
<path d="M328.077 174.497C328.077 174.497 340.135 179.558 339.958 183.405L348.24 191.121C347.772 183.738 342.974 175.181 330.4 170.881L328.077 174.497Z" fill="#E62552"/>
<path d="M275.1 195.24C276.198 202.369 284.434 207.196 288.686 206.382C292.938 205.567 295.494 199.128 294.396 191.999C293.297 184.87 288.96 179.751 284.708 180.566C280.457 181.381 274.001 188.111 275.1 195.24Z" fill="#E62552"/>
<path d="M295.473 192.883C295.754 200.85 296.243 207.169 288.207 207.649C283.915 207.906 279.612 201.782 279.331 193.815C279.05 185.848 282.908 179.217 287.189 178.798C294.142 178.118 295.192 184.916 295.473 192.883Z" fill="#2C2858"/>
<path d="M297.89 192.882C298.171 200.849 294.918 207.46 290.623 207.649C286.33 207.837 282.621 201.531 282.34 193.564C282.059 185.597 285.312 178.986 289.606 178.798C293.9 178.609 297.609 184.915 297.89 192.882Z" fill="#201D40"/>
<path d="M325.893 172.09L324.949 202.343C324.949 202.343 312.934 211.667 295.938 204.061C296.401 195.929 298.524 173.564 298.524 173.564L325.893 172.09Z" fill="#DE623C"/>
<path d="M308.24 184.78C324.896 184.78 338.398 166.124 338.398 143.109C338.398 120.095 324.896 101.438 308.24 101.438C291.585 101.438 278.083 120.095 278.083 143.109C278.083 166.124 291.585 184.78 308.24 184.78Z" fill="#F37A50"/>
<path d="M288.607 118.985C278.529 122.594 265.988 128.562 254.631 115.233C243.273 101.903 256.846 94.8888 266.821 99.214C256.02 77.8974 278.731 85.003 286.1 86.8566C290.115 70.6958 310.865 68.0116 330.533 77.5885C350.201 87.1655 348.66 115.278 348.66 115.278C348.66 115.278 355.741 109.408 360.727 115.278C369.315 128.871 357.126 138.448 354.079 140.358C363.741 161.309 329.339 172.519 333.303 162.79C338.29 150.549 338.651 101.068 288.607 118.985Z" fill="black"/>
<path d="M330.867 142.878C326.341 148.717 325.788 156.453 329.631 160.158C333.474 163.862 340.258 162.131 344.783 156.292C349.309 150.453 349.862 142.717 346.019 139.013C342.176 135.309 335.392 137.039 330.867 142.878Z" fill="#F37A50"/>
<path d="M319.296 134.139C319.703 134.139 320.109 133.966 320.417 133.618C321.026 132.93 321.027 131.826 320.414 131.142C320.176 130.877 314.494 124.703 305.888 129.177C305.099 129.587 304.757 130.634 305.125 131.514C305.493 132.395 306.431 132.776 307.221 132.365C313.776 128.957 318.012 133.445 318.189 133.637C318.497 133.972 318.897 134.139 319.296 134.139Z" fill="black"/>
<path d="M282.414 133.283C282.726 133.283 283.041 133.18 283.316 132.965C287.047 130.055 290.763 132.292 290.92 132.389C291.678 132.857 292.638 132.558 293.064 131.714C293.488 130.871 293.227 129.806 292.474 129.327C292.249 129.184 286.905 125.874 281.509 130.082C280.795 130.639 280.621 131.735 281.12 132.531C281.427 133.021 281.916 133.283 282.414 133.283Z" fill="black"/>
<path d="M296.602 151.62C296.64 151.317 296.272 151.182 296.143 151.452C295.106 153.604 293.129 157.829 292.247 160.508C291.025 164.227 300.25 165.839 301.028 164.847C298.361 163.483 295.514 162.035 295.937 157.615C296.182 155.061 296.433 152.949 296.602 151.62Z" fill="#DE623C"/>
<path d="M321.845 143.222C321.938 143.218 322.031 143.202 322.125 143.175L334.704 139.507C335.417 139.299 335.844 138.486 335.657 137.69C335.471 136.895 334.742 136.419 334.029 136.627L321.449 140.295C320.737 140.503 320.309 141.316 320.496 142.111C320.658 142.802 321.23 143.253 321.845 143.222Z" fill="black"/>
<path d="M295.244 144.599H301.781C302.518 144.599 303.116 143.933 303.116 143.111C303.116 142.289 302.518 141.623 301.781 141.623H295.244C294.506 141.623 293.909 142.289 293.909 143.111C293.909 143.933 294.506 144.599 295.244 144.599Z" fill="black"/>
<path d="M274.976 142.12C274.976 147.976 278.669 152.872 283.603 154.068C284.355 154.249 285.136 154.347 285.94 154.347C286.301 154.347 286.661 154.328 287.012 154.29C287.67 154.217 288.311 154.082 288.932 153.887C290.876 153.272 292.599 152.076 293.943 150.477C295.777 148.29 296.903 145.354 296.903 142.12C296.903 136.243 293.183 134.946 288.225 134.711C287.488 134.673 286.724 134.662 285.94 134.662C284.561 134.662 283.239 134.7 282.023 134.838C281.339 134.911 280.688 135.02 280.079 135.171C278.98 135.444 278.014 135.856 277.226 136.473C275.816 137.571 274.976 139.327 274.976 142.12Z" fill="black"/>
<path d="M282.022 134.838L288.931 153.887C290.874 153.272 292.597 152.076 293.941 150.477L288.224 134.711C287.487 134.673 286.723 134.662 285.939 134.662C284.561 134.662 283.238 134.7 282.022 134.838Z" fill="#282738"/>
<path d="M277.225 136.474L283.602 154.069C284.354 154.251 285.135 154.348 285.939 154.348C286.3 154.348 286.659 154.329 287.011 154.291L280.079 135.172C278.979 135.445 278.014 135.857 277.225 136.474Z" fill="#282738"/>
<path d="M300.28 142.12C300.28 148.523 304.864 153.779 310.698 154.304C311.016 154.334 311.336 154.347 311.659 154.347C312.442 154.347 313.209 154.26 313.949 154.098C314.588 153.96 315.206 153.76 315.801 153.511C317.725 152.702 319.395 151.348 320.639 149.625C322.144 147.552 323.037 144.948 323.037 142.12C323.037 136.722 319.778 135.187 315.26 134.789C314.129 134.689 312.918 134.662 311.659 134.662C310.739 134.662 309.846 134.678 308.989 134.727C308.295 134.762 307.628 134.822 306.99 134.911C305.869 135.065 304.845 135.314 303.952 135.704C301.695 136.683 300.28 138.564 300.28 142.12Z" fill="black"/>
<path d="M308.989 134.727L315.801 153.511C317.725 152.702 319.394 151.348 320.639 149.625L315.26 134.789C314.129 134.689 312.918 134.662 311.659 134.662C310.739 134.662 309.846 134.678 308.989 134.727Z" fill="#282738"/>
<path d="M303.951 135.705L310.697 154.305C311.014 154.335 311.335 154.348 311.657 154.348C312.441 154.348 313.208 154.261 313.948 154.099L306.989 134.912C305.868 135.066 304.844 135.315 303.951 135.705Z" fill="#282738"/>
<path d="M301.352 173.767C308.586 173.767 312.523 169.404 312.732 169.166C313.312 168.505 313.302 167.445 312.709 166.799C312.119 166.154 311.172 166.163 310.592 166.818C310.356 167.08 305.039 172.812 295.11 169.256C294.321 168.973 293.476 169.458 293.222 170.338C292.969 171.218 293.403 172.161 294.192 172.443C296.852 173.396 299.243 173.767 301.352 173.767Z" fill="#DE623C"/>
<path d="M337.168 156.454C337.414 156.454 337.664 156.38 337.889 156.226C338.536 155.781 338.737 154.836 338.338 154.115C337.01 151.712 336.651 149.731 337.269 148.226C338.381 145.522 342.349 144.743 342.389 144.736C343.139 144.602 343.65 143.815 343.53 142.979C343.41 142.142 342.704 141.572 341.954 141.706C341.732 141.746 336.504 142.724 334.768 146.947C333.742 149.442 334.156 152.395 335.996 155.725C336.256 156.195 336.707 156.454 337.168 156.454Z" fill="#DE623C"/>
<path d="M345.005 202.859C342.032 211.179 334.589 215.686 328.382 212.927C322.175 210.167 319.554 201.186 322.528 192.867C325.502 184.547 332.944 180.04 339.152 182.799C345.358 185.559 347.979 194.54 345.005 202.859Z" fill="#2C2858"/>
<path d="M349.946 204.457C346.972 212.776 335.883 216.262 330.921 214.056C325.959 211.85 324.348 203.318 327.322 194.998C330.295 186.679 336.728 181.723 341.69 183.929C346.652 186.135 352.92 196.137 349.946 204.457Z" fill="#E62552"/>
<path d="M236.446 237.917C236.75 254.107 234.164 270.338 222.6 271.085C210.419 271.872 207.826 254.782 207.521 238.593C207.521 238.593 211.86 237.247 221.571 237.06C231.282 236.875 236.446 237.917 236.446 237.917Z" fill="white"/>
<path d="M209.194 241.983C209.609 255.882 212.134 269.946 222.565 269.275C229.164 268.848 232.214 264.099 233.668 255.987C232.316 256.289 228.842 259.217 226.4 255.585C222.214 249.362 217.488 253.654 214.998 251.719C212.546 249.815 212.596 243.904 209.194 241.983Z" fill="#AA1132"/>
<path d="M229.018 253.372C228.916 250.369 234.552 246.207 234.15 249.659C233.905 251.764 229.943 251.22 229.018 253.372Z" fill="#AA1132"/>
<path d="M227.776 249.934C229.736 246.092 224.419 240.95 224.173 244.419C224.053 246.115 227.674 246.434 227.776 249.934Z" fill="#AA1132"/>
<path d="M221.219 296.475L224.839 296.269L223.61 269.367L219.99 269.573L221.219 296.475Z" fill="white"/>
<path d="M214.295 297.675C214.192 295.943 217.97 294.252 222.733 293.899C227.496 293.546 231.441 294.664 231.544 296.396L214.295 297.675Z" fill="white"/>
<path d="M222.667 242.775C215.73 242.775 209.503 240.432 209.408 240.395C209.239 240.331 209.149 240.125 209.207 239.937C209.265 239.749 209.449 239.648 209.618 239.713C209.763 239.769 224.194 245.194 233.363 239.357C233.518 239.259 233.716 239.318 233.804 239.492C233.893 239.664 233.839 239.885 233.684 239.984C230.376 242.089 226.417 242.775 222.667 242.775Z" fill="#B5C3E5"/>
<path d="M248.818 295.338C237.545 301.461 231.166 293.681 229.565 291.141C227.82 288.371 224.666 285.598 222.204 286.276C219.671 286.973 217.566 288.407 216.407 286.309C214.791 283.382 221.748 278.893 226.553 282.838C226.553 282.838 222.832 279.671 220.137 280.628C217.184 281.676 214.994 282.458 213.787 280.969C213.14 280.17 213.155 278.634 214.222 277.739C212.766 277.764 210.297 276.671 211.247 274.987C214.255 269.649 221.842 266.128 229.171 270.356C222.645 262.294 216.689 269.203 214.256 267.217C212.794 266.023 214.085 263.984 215.287 263.002C219.144 259.853 224.324 259.518 228.617 261.859C232.911 264.2 237.607 270.376 237.175 275.684C237.175 275.684 239.873 278.996 244.172 280.051L248.818 295.338Z" fill="#DE623C"/>
<path d="M243.768 280.086L304.919 286.193C304.919 286.193 314.18 285.415 315.021 314.645C301.013 320.09 265.24 305.118 247.234 295.507C245.508 285.928 243.768 280.086 243.768 280.086Z" fill="#DE623C"/>
<path d="M375.866 238.963C371.465 264.117 353.187 290.526 315.02 314.214C292.234 300.599 298.016 293.161 298.016 293.161C298.016 293.161 325.682 252.907 333.816 241.557C339.584 233.51 342.556 213.551 360.373 214.873C375.893 216.024 376.997 232.498 375.866 238.963Z" fill="#DE623C"/>
<path d="M367.091 214.776C380.765 221.047 379.858 234.814 374.81 252.658C369.763 270.502 353.823 288.946 353.823 288.946C353.823 288.946 331.012 281.85 320.581 257.517C330.859 249.348 340.71 202.677 367.091 214.776Z" fill="#2C2858"/>
<path d="M186.221 169.276C186.488 169.591 186.683 169.952 186.846 170.33C186.893 170.278 186.936 170.224 186.984 170.173C189.816 167.172 193.676 166.578 195.605 168.844C195.922 169.216 196.159 169.646 196.335 170.112C198.604 168.978 200.965 169.131 202.343 170.75C202.89 171.392 203.215 172.199 203.348 173.088C205.548 171.792 208.102 171.977 209.645 173.789C211.574 176.056 211.178 179.97 208.76 182.531C206.342 185.092 202.819 185.331 200.889 183.064C200.401 182.49 200.063 181.81 199.868 181.074C197.153 183.368 193.831 183.665 192.087 181.616C191.77 181.244 191.532 180.813 191.356 180.348C189.087 181.482 186.726 181.329 185.348 179.71C184.84 179.114 184.522 178.376 184.373 177.561C182.466 178.81 180.182 178.703 178.826 177.11C177.197 175.195 177.531 171.889 179.574 169.726C181.615 167.564 184.591 167.362 186.221 169.276Z" fill="#DE623C"/>
<path d="M257.537 215.354C257.819 215.356 258.087 215.424 258.346 215.518C258.346 215.465 258.342 215.413 258.342 215.359C258.357 212.196 260.019 209.643 262.053 209.655C262.387 209.658 262.709 209.735 263.015 209.866C263.624 207.971 264.883 206.669 266.336 206.678C266.912 206.682 267.455 206.897 267.939 207.267C268.437 205.33 269.808 203.931 271.435 203.942C273.469 203.955 275.108 206.154 275.095 208.854C275.083 211.554 273.423 213.732 271.388 213.719C270.873 213.716 270.384 213.572 269.94 213.315C269.652 216.054 268.121 218.144 266.282 218.132C265.948 218.13 265.626 218.053 265.32 217.922C264.711 219.817 263.452 221.119 261.999 221.11C261.463 221.106 260.957 220.921 260.499 220.599C260.127 222.341 258.928 223.621 257.499 223.612C255.78 223.6 254.395 221.743 254.407 219.463C254.417 217.183 255.818 215.343 257.537 215.354Z" fill="#DE623C"/>
<path d="M376.338 105.342C386.607 85.2996 425.489 90.8475 428.157 115.216C430.824 139.585 428.479 155.499 455.562 153.766C477.129 152.386 497.846 175.432 495.827 209.095C493.243 252.162 467.486 233.408 472.415 255.143C477.343 276.879 480.047 298.754 452.399 297.399C424.751 296.044 401.086 268.55 406.413 233.78C411.741 199.01 387.136 202.185 382.323 184.435C375.479 159.196 376.338 105.342 376.338 105.342Z" fill="#16142B"/>
<path d="M375.573 213.912C375.573 213.912 376.631 227.015 383.548 227.015C390.467 227.015 402.474 210.812 402.474 210.812C401.333 207.297 400.878 202.563 400.843 197.436C400.833 196.019 400.855 194.571 400.903 193.109C401.383 178.595 404.445 162.813 404.445 162.813L378.359 177.386C378.359 177.386 377.556 189.591 376.756 200.195C376.658 201.503 376.558 202.789 376.461 204.025C376.126 208.266 375.811 211.915 375.573 213.912Z" fill="#DE623C"/>
<path d="M452.994 398.222C446.245 399.168 439.625 399.959 433.143 400.605C418.755 402.046 405.046 402.79 392.089 402.993C385.798 403.092 379.683 403.066 373.758 402.932C364.641 402.726 355.967 402.262 347.762 401.606C347.378 401.578 346.994 401.547 346.61 401.514C344.686 401.358 342.789 401.187 340.919 401.009C341.254 385.686 342.023 372.339 343.753 360.568C344.525 355.299 345.491 350.345 346.697 345.67C347.953 340.792 349.47 336.217 351.302 331.906C352.994 327.925 354.953 324.167 357.222 320.599C357.625 319.965 358.039 319.335 358.463 318.713L358.954 318.699L360.921 318.647L376.018 318.235L381.677 318.081L388.082 317.906L426.763 316.853C427.907 317.999 428.994 319.173 430.025 320.377C448.936 342.447 449.165 373.719 452.994 398.222Z" fill="#E62552"/>
<path d="M358.464 308.16C357.52 291.941 338.771 273.635 343.86 256.826C347.493 243.337 355.761 214.344 365.065 211.655C368.841 210.565 370.991 207.604 376.185 207.463C376.185 207.463 374.967 221.674 381.221 221.78C393.26 221.984 401.196 204.271 401.196 204.271C407.613 203.115 429.333 209.222 430.71 215.363C431.877 236.613 425.26 262.962 421.536 286.298C421.278 298.061 424.25 307.344 425.685 313.886C428.005 320.646 431.58 328.033 431.682 329.524C431.682 329.524 388.313 339.394 359.059 324.099C359.059 324.099 359.102 319.113 358.464 308.16Z" fill="#E62552"/>
<path d="M435.523 225.108C434.855 249.516 403.615 303.189 380.658 312.496C368.817 303.831 364.177 289.458 364.177 289.458C364.177 289.458 396.376 243.051 402.331 229.064C404.73 223.429 410.026 207.601 418.166 208.013C430.536 208.641 435.688 219.035 435.523 225.108Z" fill="#F37A50"/>
<path d="M376.183 207.459C376.183 207.459 357.295 230.202 355.805 256.846C354.315 283.49 361.567 322.339 361.567 322.339L354.044 319.332C354.044 319.332 333.252 286.39 344.6 250.431C355.948 214.471 362.121 211.042 362.121 211.042L376.183 207.459Z" fill="#8197DB"/>
<path d="M299.726 326.89L285.179 333.778C283.992 334.34 282.53 333.547 281.841 331.967L262.29 287.155C261.835 286.113 262.112 284.918 262.895 284.548C262.895 284.548 267.241 281.342 271.921 279.127C276.601 276.911 283.53 274.777 283.53 274.777C284.314 274.406 285.279 275.016 285.634 276.107L300.878 322.962C301.414 324.611 300.91 326.329 299.726 326.89Z" fill="white"/>
<path d="M287.967 287.342L299.388 322.178C299.89 323.71 299.461 325.288 298.409 325.786L285.491 331.903C284.436 332.402 283.119 331.646 282.481 330.173L268.358 297.612C270.505 295.085 273.87 292.609 278.452 293.488C282.797 294.32 286.537 289.501 287.967 287.342Z" fill="#7DC96B"/>
<path d="M294.91 272.956C295.252 278.108 292.423 282.709 288.261 284.367L287.79 282.894L287.386 281.627L285.427 275.698C285.245 275.129 284.031 274.546 283.53 274.778L275.393 277.637C274.907 276.456 274.904 275.993 274.813 274.62C274.402 268.43 278.565 263.042 284.114 262.581C289.664 262.123 294.496 266.768 294.91 272.956Z" fill="#3F964F"/>
<path d="M285.446 271.642L286.525 266.305C286.637 265.749 286.236 265.23 285.726 265.273L282.875 265.509C282.366 265.551 282.038 266.13 282.222 266.661L283.995 271.762C284.267 272.543 285.281 272.459 285.446 271.642Z" fill="#7DC96B"/>
<path d="M283.957 271.793L281.336 267.169C281.063 266.687 280.451 266.637 280.117 267.069L278.251 269.484C277.917 269.915 278.052 270.584 278.52 270.814L283.007 273.022C283.694 273.36 284.359 272.501 283.957 271.793Z" fill="#7DC96B"/>
<path d="M282.502 273.119L278.215 271.663C277.768 271.511 277.317 271.884 277.317 272.404V275.318C277.317 275.838 277.768 276.211 278.215 276.059L282.502 274.602C283.158 274.379 283.158 273.342 282.502 273.119Z" fill="#7DC96B"/>
<path d="M285.773 275.649L288.394 280.273C288.667 280.755 289.279 280.805 289.613 280.374L291.479 277.958C291.813 277.527 291.678 276.859 291.21 276.628L286.723 274.42C286.035 274.082 285.371 274.941 285.773 275.649Z" fill="#7DC96B"/>
<path d="M286.73 274.368L291.515 275.571C292.013 275.696 292.478 275.249 292.44 274.68L292.229 271.5C292.191 270.932 291.672 270.566 291.195 270.772L286.622 272.749C285.921 273.052 285.997 274.184 286.73 274.368Z" fill="#7DC96B"/>
<path d="M286.593 272.709L290.739 269.786C291.171 269.481 291.216 268.798 290.829 268.426L288.664 266.344C288.277 265.972 287.677 266.123 287.471 266.645L285.491 271.649C285.188 272.416 285.958 273.156 286.593 272.709Z" fill="#7DC96B"/>
<path d="M275.599 293.398C275.725 296.366 277.973 298.66 277.973 298.66C277.973 298.66 280.02 296.141 279.894 293.173C279.77 290.204 277.521 287.91 277.521 287.91C277.521 287.91 275.475 290.429 275.599 293.398Z" fill="#3F964F"/>
<path d="M270.814 296.969C272.392 298.197 274.558 297.773 274.558 297.773C274.558 297.773 274.168 295.359 272.591 294.131C271.013 292.903 268.847 293.327 268.847 293.327C268.847 293.327 269.238 295.742 270.814 296.969Z" fill="#3F964F"/>
<path d="M292.813 321.834C292.051 323.804 292.859 326.085 292.859 326.085C292.859 326.085 294.901 325.174 295.662 323.204C296.424 321.235 295.616 318.953 295.616 318.953C295.616 318.953 293.574 319.865 292.813 321.834Z" fill="#3F964F"/>
<path d="M280.987 305.258C282.549 306.509 284.72 306.118 284.72 306.118C284.72 306.118 284.359 303.698 282.797 302.447C281.235 301.195 279.063 301.586 279.063 301.586C279.063 301.586 279.425 304.006 280.987 305.258Z" fill="#3F964F"/>
<path d="M304.994 301.749C304.994 301.749 355.428 291.178 364.865 288.218C374.743 285.12 380.587 300.746 381.66 311.645C353.266 318.951 330.006 317.687 305.477 313.203C305.782 306.908 304.994 301.749 304.994 301.749Z" fill="#F37A50"/>
<path d="M306.546 313.084C305.846 308.985 307.59 304.975 306.088 302.215C305.187 300.559 301.959 300.141 299.575 298.219C297.263 296.358 297.03 292.902 294.207 290.665C291.757 288.723 290.855 288.511 290.027 289.382L292.184 296.898C292.302 299.093 290.102 301.786 282.157 303.839C276.083 305.41 271.09 303.984 271.024 307.799C270.979 310.303 274.194 309.48 278.413 308.596C273.558 311.16 272.517 309.045 272.145 312.156C271.696 315.916 279.773 314.045 283.527 312.477C278.894 316.691 274.35 313.999 274.074 316.437C273.892 319.204 278.344 321.186 284.181 317.472C279.497 321.74 276.772 319.586 276.994 321.941C277.225 324.39 286.068 325.595 294.411 321.22C296.559 320.094 306.546 313.084 306.546 313.084Z" fill="#F37A50"/>
<path d="M375.887 197.454C392.67 196.609 405.494 176.605 404.53 152.773C403.565 128.942 389.177 110.307 372.393 111.152C355.609 111.997 342.786 132.002 343.75 155.833C344.715 179.665 359.103 198.299 375.887 197.454Z" fill="#F37A50"/>
<path d="M353.997 163.316C353.704 165.086 352.182 166.257 350.595 165.931C349.008 165.606 347.958 163.907 348.25 162.137C348.542 160.367 350.065 159.197 351.652 159.522C353.239 159.848 354.289 161.547 353.997 163.316Z" fill="black"/>
<path d="M375.39 157.847C375.074 159.764 373.425 161.031 371.707 160.678C369.989 160.325 368.853 158.487 369.169 156.571C369.485 154.655 371.134 153.387 372.852 153.74C374.57 154.093 375.706 155.932 375.39 157.847Z" fill="black"/>
<path d="M377.991 154.474C377.754 154.426 377.529 154.29 377.359 154.071C374.891 150.895 370.591 151.501 370.547 151.508C369.947 151.598 369.392 151.13 369.309 150.46C369.226 149.79 369.644 149.172 370.244 149.078C370.468 149.043 375.759 148.267 379.021 152.465C379.419 152.976 379.369 153.751 378.91 154.195C378.648 154.449 378.308 154.539 377.991 154.474Z" fill="#201D40"/>
<path d="M345.501 159.927C345.385 159.903 345.27 159.858 345.161 159.79C344.632 159.459 344.443 158.711 344.74 158.12C347.048 153.533 351.402 153.731 351.586 153.742C352.191 153.777 352.659 154.354 352.627 155.031C352.596 155.705 352.081 156.224 351.477 156.192C351.334 156.186 348.281 156.094 346.659 159.321C346.423 159.79 345.95 160.02 345.501 159.927Z" fill="#201D40"/>
<path d="M359.263 164.855C358.178 167.117 357.297 169.372 356.093 170.878C355.687 171.385 355.718 172.172 356.152 172.649C357.947 174.617 361.915 175.438 364.302 175.764C364.651 175.811 364.788 175.276 364.471 175.109C361.782 173.698 360.46 172.448 359.854 171.724C359.553 171.363 359.43 170.865 359.513 170.382C359.703 169.271 360.069 167.011 360.239 165.183C360.298 164.552 359.531 164.296 359.263 164.855Z" fill="#DE623C"/>
<path d="M376.228 177.942C376.088 177.049 375.669 176.31 374.94 176.712C373.086 177.733 369.998 179.346 366.944 180.551C363.89 181.756 360.579 182.667 358.561 183.173C357.768 183.372 357.838 184.253 358.253 185.033C359.972 188.262 364.708 190.781 369.389 188.935C374.07 187.088 376.749 181.268 376.228 177.942Z" fill="white"/>
<path d="M404.374 154.037C392.01 156.079 381.598 147.017 372.749 140.514C363.05 139.799 351.398 130.975 349.585 127.24C349.823 112.949 357.433 99.7412 383.165 105.138C395.634 107.753 418.311 131.497 404.374 154.037Z" fill="#201D40"/>
<path d="M379.532 137.477C379.532 137.477 354.429 143.469 343.743 155.823C331.078 145.047 339.549 131.346 350.102 123.43C359.241 124.213 379.532 137.477 379.532 137.477Z" fill="#201D40"/>
<path d="M397.002 155.33C394.041 159.864 394.338 165.731 397.665 168.434C400.993 171.137 406.091 169.652 409.052 165.117C412.013 160.583 411.717 154.716 408.389 152.013C405.062 149.311 399.964 150.796 397.002 155.33Z" fill="#F37A50"/>
<path d="M402.087 165.922C401.924 165.888 401.766 165.813 401.624 165.695C399.599 163.991 398.831 161.593 399.571 159.28C400.328 156.911 402.443 155.26 404.599 155.354C405.207 155.381 405.679 155.95 405.656 156.627C405.632 157.304 405.121 157.831 404.514 157.805C403.332 157.754 402.071 158.763 401.643 160.103C401.231 161.391 401.695 162.681 402.949 163.736C403.434 164.144 403.53 164.913 403.165 165.454C402.905 165.837 402.483 166.003 402.087 165.922Z" fill="#DE623C"/>
<path d="M423.206 208.894C423.206 208.894 407.231 202.444 401.082 203.071C395.359 218.665 389.269 229.309 387.924 253.878C386.579 278.447 392.041 288.096 387.332 324.207C400.305 327.295 423.888 326.978 437.096 315.812C430.492 301.082 429.81 298.671 430.023 275.562C430.236 252.454 423.206 208.894 423.206 208.894Z" fill="#8197DB"/>
<path d="M435.522 225.109C434.855 249.516 404.109 305.232 381.152 314.54C369.311 305.874 365.063 285.264 365.063 285.264C365.063 285.264 396.375 243.052 402.33 229.064C404.729 223.429 410.025 207.601 418.166 208.013C430.535 208.641 435.688 219.036 435.522 225.109Z" fill="#95A6DB"/>
<path d="M368.864 280.08C367.832 278.448 366.98 282.932 365.063 283.778C363.146 284.624 361.12 283.745 361.654 286.287C362.189 288.83 364.424 311.277 377.631 319.332C380.614 318.835 390.626 315.233 393.395 307.531C385.939 304.818 368.864 280.08 368.864 280.08Z" fill="#A0B2EB"/>
<path d="M400.848 197.796L410.237 204.127L401.111 224.717L390.672 233.205C390.672 233.205 395.424 213.469 400.848 197.796Z" fill="#95A6DB"/>
<path d="M376.557 202.8L367.121 208.956L360.227 222.507L361.567 232.65L376.183 207.459L376.557 202.8Z" fill="#95A6DB"/>
<path d="M376.461 204.025C378.329 205.228 380.461 205.828 382.817 205.828C385.774 205.828 389.088 204.882 392.693 202.987C396.072 201.211 398.996 198.982 400.842 197.436C400.832 196.019 400.855 194.571 400.902 193.109C399.982 193.982 385.165 207.814 376.755 200.195C376.658 201.504 376.558 202.79 376.461 204.025Z" fill="#30357F"/>
<path d="M399.691 171.461C399.691 173.515 401.184 175.181 403.027 175.181C404.869 175.181 406.363 173.515 406.363 171.461C406.363 169.406 404.869 167.74 403.027 167.74C401.184 167.74 399.691 169.406 399.691 171.461Z" fill="#F7D743"/>
<path d="M264.298 286.12C263.897 286.12 263.67 286.105 263.654 286.104C263.476 286.09 263.342 285.919 263.354 285.72C263.366 285.521 263.522 285.371 263.698 285.385C263.812 285.393 275.129 286.126 283.309 276.295C283.43 276.149 283.635 276.141 283.766 276.276C283.897 276.411 283.904 276.639 283.783 276.786C276.525 285.508 266.86 286.12 264.298 286.12Z" fill="#B5C3E5"/>
</svg>
