<svg width="28" height="28" viewBox="0 0 28 28" fill="none" xmlns="http://www.w3.org/2000/svg">
<g id="Group 1171276685">
<path id="vector" fill-rule="evenodd" clip-rule="evenodd" d="M14 0.330078C10.3334 0.330078 9.8744 0.345378 8.4344 0.411078C6.9971 0.476778 6.0152 0.705378 5.1566 1.03928C4.2566 1.37768 3.4403 1.90868 2.7653 2.59628C2.0788 3.2705 1.54747 4.08622 1.2083 4.98668C0.8762 5.84528 0.6467 6.82808 0.581 8.26538C0.5162 9.70448 0.5 10.1626 0.5 13.8301C0.5 17.4976 0.5153 17.9557 0.581 19.3957C0.6467 20.833 0.8753 21.8149 1.2092 22.6735C1.5476 23.5735 2.0786 24.3898 2.7662 25.0648C3.44044 25.7513 4.25616 26.2826 5.1566 26.6218C6.0152 26.9548 6.9971 27.1834 8.4344 27.2491C9.8744 27.3148 10.3334 27.3301 14 27.3301C17.6666 27.3301 18.1256 27.3148 19.5656 27.2491C21.0029 27.1834 21.9848 26.9548 22.8434 26.6209C23.7434 26.2825 24.5597 25.7515 25.2347 25.0639C25.9212 24.3897 26.4525 23.5739 26.7917 22.6735C27.1247 21.8149 27.3533 20.833 27.419 19.3957C27.4847 17.9557 27.5 17.4967 27.5 13.8301C27.5 10.1635 27.4847 9.70448 27.419 8.26448C27.3533 6.82718 27.1247 5.84528 26.7908 4.98668C26.4519 4.08584 25.9205 3.26977 25.2338 2.59538C24.5596 1.90888 23.7439 1.37755 22.8434 1.03838C21.9848 0.706278 21.002 0.476778 19.5647 0.411078C18.1256 0.346278 17.6675 0.330078 14 0.330078ZM14 2.76278C17.6045 2.76278 18.032 2.77628 19.4558 2.84108C20.7716 2.90138 21.4862 3.12008 21.9623 3.30638C22.5923 3.55028 23.0423 3.84368 23.5148 4.31528C23.9873 4.78778 24.2798 5.23778 24.5237 5.86778C24.7091 6.34388 24.9287 7.05848 24.989 8.37428C25.0538 9.79808 25.0673 10.2256 25.0673 13.8301C25.0673 17.4346 25.0538 17.8621 24.989 19.2859C24.9287 20.6017 24.71 21.3163 24.5237 21.7924C24.3076 22.3788 23.9629 22.9093 23.5148 23.3449C23.0793 23.7931 22.5487 24.1378 21.9623 24.3538C21.4862 24.5392 20.7716 24.7588 19.4558 24.8191C18.032 24.8839 17.6054 24.8974 14 24.8974C10.3946 24.8974 9.968 24.8839 8.5442 24.8191C7.2284 24.7588 6.5138 24.5401 6.0377 24.3538C5.45131 24.1377 4.92081 23.793 4.4852 23.3449C4.03716 22.9092 3.69242 22.3787 3.4763 21.7924C3.2909 21.3163 3.0713 20.6017 3.011 19.2859C2.9462 17.8621 2.9327 17.4346 2.9327 13.8301C2.9327 10.2256 2.9462 9.79808 3.011 8.37428C3.0713 7.05848 3.29 6.34388 3.4763 5.86778C3.7202 5.23778 4.0136 4.78778 4.4852 4.31528C4.92075 3.86712 5.45127 3.52236 6.0377 3.30638C6.5138 3.12098 7.2284 2.90138 8.5442 2.84108C9.968 2.77628 10.3955 2.76278 14 2.76278Z" fill="white"/>
<path id="vector_2" fill-rule="evenodd" clip-rule="evenodd" d="M14 18.3345C13.4084 18.3345 12.8227 18.218 12.2762 17.9916C11.7297 17.7652 11.2331 17.4335 10.8148 17.0152C10.3965 16.5969 10.0647 16.1003 9.83836 15.5538C9.61199 15.0073 9.49547 14.4215 9.49547 13.83C9.49547 13.2385 9.61199 12.6527 9.83836 12.1062C10.0647 11.5597 10.3965 11.0631 10.8148 10.6448C11.2331 10.2266 11.7297 9.89476 12.2762 9.66839C12.8227 9.44202 13.4084 9.32551 14 9.32551C15.1946 9.32551 16.3404 9.80009 17.1851 10.6448C18.0299 11.4896 18.5045 12.6353 18.5045 13.83C18.5045 15.0247 18.0299 16.1704 17.1851 17.0152C16.3404 17.8599 15.1946 18.3345 14 18.3345ZM14 6.89101C12.1596 6.89101 10.3947 7.62208 9.09336 8.92339C7.79204 10.2247 7.06097 11.9897 7.06097 13.83C7.06097 15.6703 7.79204 17.4353 9.09336 18.7366C10.3947 20.0379 12.1596 20.769 14 20.769C15.8403 20.769 17.6053 20.0379 18.9066 18.7366C20.2079 17.4353 20.939 15.6703 20.939 13.83C20.939 11.9897 20.2079 10.2247 18.9066 8.92339C17.6053 7.62208 15.8403 6.89101 14 6.89101ZM22.9577 6.76501C22.9577 7.20003 22.7849 7.61723 22.4773 7.92484C22.1696 8.23244 21.7524 8.40526 21.3174 8.40526C20.8824 8.40526 20.4652 8.23244 20.1576 7.92484C19.85 7.61723 19.6772 7.20003 19.6772 6.76501C19.6772 6.32998 19.85 5.91278 20.1576 5.60517C20.4652 5.29757 20.8824 5.12476 21.3174 5.12476C21.7524 5.12476 22.1696 5.29757 22.4773 5.60517C22.7849 5.91278 22.9577 6.32998 22.9577 6.76501Z" fill="white"/>
</g>
</svg>
