<svg width="36" height="37" viewBox="0 0 36 37" fill="none" xmlns="http://www.w3.org/2000/svg">
<path fill-rule="evenodd" clip-rule="evenodd" d="M4.5 18.4251C4.5 10.9007 10.395 5.33008 18 5.33008C25.605 5.33008 31.5 10.9007 31.5 18.4251C31.5 25.9494 25.605 31.5201 18 31.5201C16.634 31.5201 15.3235 31.3397 14.0922 31.0011C13.8528 30.9353 13.5983 30.9539 13.3711 31.0541L10.6916 32.2369C9.99064 32.5463 9.19943 32.0479 9.17594 31.2819L9.10242 28.8806C9.09338 28.5846 8.96027 28.3082 8.73976 28.1108C6.11298 25.7617 4.5 22.3608 4.5 18.4251ZM13.8589 15.9631L9.89331 22.2547C9.51274 22.8584 10.2549 23.5388 10.8235 23.1074L15.0832 19.8745C15.3713 19.6558 15.7695 19.6547 16.0589 19.8717L19.213 22.2373C20.1595 22.9472 21.5103 22.6979 22.1411 21.6971L26.1068 15.4055C26.4872 14.8017 25.7451 14.1213 25.1765 14.5528L20.9168 17.7856C20.6286 18.0043 20.2305 18.0055 19.9411 17.7884L16.787 15.4228C15.8405 14.713 14.4897 14.9622 13.8589 15.9631Z" fill="white"/>
</svg>
