<svg width="25" height="17" viewBox="0 0 25 17" fill="none" xmlns="http://www.w3.org/2000/svg">
<path d="M23.3036 7.46704H1.83698C1.13742 7.46704 0.570312 8.03415 0.570312 8.73371V8.86704C0.570312 9.5666 1.13742 10.1337 1.83698 10.1337H23.3036C24.0032 10.1337 24.5703 9.5666 24.5703 8.86704V8.73371C24.5703 8.03415 24.0032 7.46704 23.3036 7.46704Z" fill="black"/>
<path d="M23.3036 14.1335H1.83698C1.13742 14.1335 0.570312 14.7007 0.570312 15.4002V15.5335C0.570312 16.2331 1.13742 16.8002 1.83698 16.8002H23.3036C24.0032 16.8002 24.5703 16.2331 24.5703 15.5335V15.4002C24.5703 14.7007 24.0032 14.1335 23.3036 14.1335Z" fill="black"/>
<path d="M23.3036 0.800293H1.83698C1.13742 0.800293 0.570312 1.3674 0.570312 2.06696V2.20029C0.570312 2.89985 1.13742 3.46696 1.83698 3.46696H23.3036C24.0032 3.46696 24.5703 2.89985 24.5703 2.20029V2.06696C24.5703 1.3674 24.0032 0.800293 23.3036 0.800293Z" fill="black"/>
</svg>
