<svg width="421" height="362" viewBox="0 0 421 362" fill="none" xmlns="http://www.w3.org/2000/svg">
<path d="M187.785 133.353C178.7 133.353 168.506 132.547 157.273 130.938C141.968 128.744 130.309 125.829 129.821 125.705C121.556 123.625 116.544 115.249 118.628 106.996C120.711 98.7458 129.096 93.7429 137.358 95.819C148.888 98.7088 183.195 105.315 203.215 101.235C207.208 100.421 216.404 97.3917 233.132 86.2419C243.244 79.5015 250.829 73.286 250.904 73.2239C257.486 67.8151 267.212 68.7577 272.628 75.3279C278.045 81.8989 277.101 91.6102 270.52 97.019C270.164 97.3125 261.653 104.286 250.27 111.874C234.172 122.604 220.417 129.184 209.387 131.431C203.103 132.713 195.885 133.353 187.785 133.353Z" fill="#1D202F"/>
<path d="M275.416 50.6868C275.416 50.6868 275.564 50.4419 275.823 50.0161C275.56 50.4059 275.416 50.6868 275.416 50.6868Z" fill="#FDA3B5"/>
<path d="M261.137 81.7726C264.839 85.6464 273.321 87.4866 275.428 85.0694C276.865 83.4147 278.317 82.419 279.367 81.8428C280.321 81.3233 280.944 81.1496 280.944 81.1496C281.999 80.5833 282.947 79.8586 283.732 79.0709C286.908 75.8704 289.454 71.9182 290.433 66.3761C291.399 60.8952 286.591 53.9298 282.498 49.5725C285.152 45.9084 290.085 38.4668 288.524 35.8254C286.662 32.6798 277.834 46.7403 275.826 50.0164C275.565 50.444 275.419 50.6898 275.419 50.6898C275.419 50.6898 275.559 49.5401 275.638 48.0241C275.797 44.8722 275.687 40.1638 273.465 41.0794C270.173 42.4361 267.505 56.8503 264.379 60.582C263.281 61.8946 262.517 63.1261 262.021 64.2758C262.021 64.2758 261.991 64.3442 261.932 64.4783C261.922 64.5098 261.909 64.5405 261.895 64.5711C261.087 66.4832 256.824 77.2568 261.137 81.7726Z" fill="#FF9680"/>
<path d="M279.369 81.8414C279.912 81.656 280.441 81.4192 280.946 81.1482C280.946 81.1482 280.323 81.3229 279.369 81.8414Z" fill="#FDA3B5"/>
<path d="M275.471 60.5138C275.471 60.5138 272.469 61.7265 270.405 64.051C270.066 64.4336 269.445 64.3364 269.246 63.8655C269.134 63.6035 269.193 63.301 269.396 63.1012C270.338 62.1775 273.133 59.627 275.823 59.0157L275.471 60.5138Z" fill="#F6655C"/>
<path d="M274.52 67.4765C274.398 67.4495 274.28 67.4134 274.168 67.3675C273.765 67.2037 272.837 66.6509 272.931 65.0628C273.183 60.7676 280.608 52.0377 280.924 51.6686C281.184 51.3652 281.64 51.3292 281.944 51.5885C282.247 51.8477 282.284 52.3033 282.024 52.6067C279.959 55.0212 274.56 61.983 274.374 65.1484C274.332 65.8758 274.618 65.9928 274.713 66.0306C275.269 66.2548 276.467 65.8497 277.29 64.9017C277.446 64.7225 277.736 64.3273 278.071 63.87C279.459 61.9767 282.042 58.4539 284.563 57.1404C284.916 56.9568 285.354 57.0927 285.539 57.4465C285.723 57.8003 285.586 58.2361 285.232 58.4206C283.009 59.5784 280.556 62.9247 279.238 64.7225C278.855 65.2456 278.578 65.6228 278.382 65.8479C277.308 67.084 275.717 67.7357 274.52 67.4765Z" fill="#F6655C"/>
<path d="M278.367 72.3118C278.295 72.2965 278.224 72.2776 278.153 72.2542C277.354 71.9994 276.806 71.335 276.611 70.3825C275.823 66.55 283.077 58.4674 283.908 57.5581C284.177 57.2628 284.635 57.243 284.929 57.5104C285.224 57.7787 285.246 58.236 284.977 58.5304C282.035 61.7552 277.546 67.7456 278.028 70.0917C278.161 70.7399 278.487 70.8443 278.594 70.8786C279.005 71.0091 279.617 70.8254 280.02 70.4518C280.451 70.0512 281.005 69.3121 281.646 68.4577C283.051 66.5843 284.799 64.2535 286.959 63.1281C287.313 62.9445 287.75 63.0804 287.935 63.4342C288.119 63.788 287.982 64.2237 287.628 64.4083C285.761 65.3815 284.121 67.5665 282.804 69.3229C282.121 70.234 281.531 71.0199 281.005 71.5088C280.388 72.0813 279.357 72.527 278.367 72.3118Z" fill="#F6655C"/>
<path d="M282.42 74.8674C282.22 74.8241 282.027 74.7566 281.848 74.6648C281.172 74.32 280.758 73.6781 280.712 72.903C280.537 69.9528 285.667 64.2162 286.252 63.5725C286.52 63.2772 286.978 63.2556 287.273 63.523C287.569 63.7913 287.591 64.2477 287.323 64.543C285.269 66.8045 282.05 71.0502 282.154 72.8183C282.17 73.0884 282.281 73.2667 282.504 73.3801C282.822 73.543 283.238 73.5016 283.442 73.372C283.938 73.056 284.566 72.1395 285.173 71.2537C286.109 69.8879 287.169 68.3404 288.533 67.6301C288.887 67.4464 289.323 67.5823 289.508 67.9362C289.693 68.29 289.556 68.7257 289.202 68.9103C288.158 69.454 287.206 70.8431 286.366 72.0684C285.613 73.1667 284.964 74.1147 284.219 74.5892C283.72 74.907 283.041 75.0024 282.42 74.8674Z" fill="#F6655C"/>
<path d="M267.891 76.6484C267.517 76.4197 267.472 75.8939 267.804 75.6085C269.444 74.2023 271.924 71.4439 272.645 68.1345L272.654 68.0931C272.739 67.7041 273.122 67.4566 273.512 67.5394L273.515 67.5403C273.902 67.6249 274.15 68.0066 274.068 68.3965C273.288 72.0264 270.405 75.0918 268.66 76.5943C268.447 76.7771 268.142 76.8005 267.903 76.6547C267.898 76.6538 267.894 76.6511 267.891 76.6484Z" fill="#F6655C"/>
<path d="M154.039 247.27L166.156 282.181C166.156 282.181 89.388 296.332 70.2763 290.802C67.0203 278.582 67.9274 265.171 64.7229 253.146L154.039 247.27Z" fill="#0068A3"/>
<path d="M194.626 361.109L162.988 273.047C147.219 265.54 115.442 283.322 115.442 283.322L157.097 361.109H194.626Z" fill="#0068A3"/>
<path d="M108.011 361.108L113.207 277.33L66.5704 263.044L72.0796 361.108H108.011Z" fill="#0068A3"/>
<path d="M83.0139 314.152C80.8003 314.152 78.7292 313.382 76.8393 311.855C66.8912 303.812 65.059 276.263 64.986 275.095C64.931 274.221 65.5964 273.468 66.4728 273.413C67.3465 273.361 68.103 274.023 68.1571 274.897C68.1743 275.17 69.9704 302.222 78.8392 309.39C80.4441 310.687 82.1366 311.183 84.0156 310.904C90.3985 309.96 92.6067 299.697 93.3352 291.253C94.1666 281.613 93.2532 272.073 93.2442 271.978C93.1585 271.106 93.7969 270.33 94.6706 270.245C95.5461 270.158 96.3207 270.797 96.4063 271.669C96.4451 272.068 97.3567 281.56 96.5046 291.487C95.3063 305.45 91.2614 313.039 84.4818 314.042C83.9868 314.115 83.4972 314.152 83.0139 314.152Z" fill="#FFAC32"/>
<path d="M164.422 361.108H167.016L125.868 286.818C125.564 286.269 124.874 286.072 124.324 286.374C123.775 286.677 123.578 287.367 123.88 287.915L164.422 361.108Z" fill="#0B447C"/>
<path d="M104.257 361.109L108.825 289.384C108.865 288.761 108.389 288.221 107.765 288.183C107.138 288.142 106.601 288.616 106.56 289.241L101.983 361.109H104.257Z" fill="#0B447C"/>
<path d="M166.158 266.241L77.1864 277.155L75.3686 277.379L64.7263 278.684C64.7263 278.684 58.1603 249.535 54.5329 207.102C52.9325 188.388 54.6348 166.746 58.0142 147.048C59.0178 141.206 60.1656 135.536 61.4234 130.163C66.8253 107.066 74.1766 89.4859 80.1159 87.5261C92.5463 83.4289 160.041 102.986 162.006 117.344C161.405 127.982 150.454 157.15 149.238 163.14C142.683 195.35 166.158 266.241 166.158 266.241Z" fill="#F4EEE9"/>
<path d="M124.323 111.944C123.929 111.944 123.522 111.932 123.098 111.905C112.785 111.246 106.9 100.931 106.654 100.492C106.41 100.054 106.567 99.5024 107.004 99.2584C107.441 99.0144 107.994 99.1702 108.239 99.6068C108.295 99.7058 113.899 109.501 123.214 110.095C132.109 110.662 132.87 104.335 132.898 104.066C132.95 103.57 133.396 103.206 133.891 103.256C134.389 103.305 134.752 103.744 134.705 104.24C134.697 104.32 133.859 111.944 124.323 111.944Z" fill="#E6D6C7"/>
<path d="M116.349 135.519C114.179 135.08 112.302 133.916 110.753 132.045C102.599 122.192 106.273 94.8283 106.434 93.6679C106.554 92.8 107.355 92.1941 108.225 92.313C109.092 92.4345 109.702 93.2331 109.582 94.1009C109.545 94.371 105.933 121.242 113.204 130.024C114.519 131.613 116.08 132.434 117.977 132.533C124.421 132.87 128.623 123.248 131.013 115.117C133.743 105.832 134.741 96.3012 134.751 96.2067C134.84 95.3352 135.62 94.7005 136.493 94.7905C137.368 94.8779 138 95.6584 137.912 96.5299C137.871 96.9287 136.88 106.412 134.074 115.974C130.127 129.423 124.655 136.061 117.81 135.703C117.309 135.676 116.822 135.614 116.349 135.519Z" fill="#FFAC32"/>
<path d="M132.808 21.3411C132.808 21.3411 145.314 23.5512 141.885 38.2284C141.885 38.2284 131.9 29.4993 132.808 21.3411Z" fill="#1D202F"/>
<path d="M133.952 25.0587L129.178 28.5571L112.038 41.1187L107.982 44.0914L100.478 49.5893L96.9926 52.1434C96.9898 52.1461 96.9898 52.1461 96.9898 52.1461C96.9898 52.1461 94.9719 51.1288 92.8954 48.6836C90.8955 46.3312 88.8397 42.6581 88.4673 37.2988C87.7117 26.3623 101.481 17.717 112.096 11.975C122.713 6.23489 122.816 -3.28279 133.794 2.15576C144.776 7.5934 133.952 25.0587 133.952 25.0587Z" fill="#1D202F"/>
<path d="M106.51 93.3224C121.596 109.525 131.523 102.357 131.523 102.357L132.733 90.9592L133.593 82.8442L116.151 71.9428L111.659 69.1384L111.52 69.7848L111.27 70.966L106.51 93.3224Z" fill="#FF9680"/>
<path d="M111.81 70.8354C113.496 74.9739 123.963 95.6289 132.908 89.345L133.597 82.8423L116.155 71.9409L111.525 69.783L111.81 70.8354Z" fill="#1D202F"/>
<path d="M133.598 42.618C133.598 42.618 142.547 36.795 147.419 45.4188C152.29 54.0425 145.294 61.3635 136.426 59.5512L133.598 42.618Z" fill="#F6655C"/>
<path d="M142.882 78.5874C134.026 91.8547 120.089 82.1723 109.462 69.9718C108.173 68.4864 106.925 66.9667 105.746 65.4434C102.558 61.3274 99.8359 57.2096 97.8884 53.8164C97.5656 53.2547 97.268 52.6965 96.9939 52.1428C88.6742 35.2888 102.427 21.7154 111.052 19.1821C119.402 16.7198 127.21 18.0972 133.955 25.0572C135.182 26.323 136.375 27.7734 137.53 29.42C137.53 29.42 144.384 40.6851 146.711 53.8353C146.918 55.0039 147.09 56.185 147.217 57.3761C147.991 64.6332 147.148 72.2009 142.882 78.5874Z" fill="#FF9680"/>
<path d="M105.744 65.4432C106.923 66.9646 108.169 68.4861 109.458 69.9707C111.494 67.63 112.098 64.4025 112.098 64.4025L105.744 65.4432Z" fill="#F6655C"/>
<path d="M108.209 55.6595C108.209 55.6595 109.9 65.0673 112.831 74.1853C115.706 83.1313 127.885 91.8216 140.822 83.8866C153.759 75.9516 147.215 57.3781 147.215 57.3781C147.215 57.3781 146.233 61.2285 143.056 61.6048C139.878 61.9812 135.654 59.4046 129.022 62.6015C125.588 64.2571 123.424 65.8136 119.338 62.8769C115.253 59.9412 112.054 53.9039 112.054 53.9039L108.209 55.6595Z" fill="#1D202F"/>
<path d="M133.952 25.0583C133.382 26.4384 131.564 27.6052 129.178 28.5568C123.685 30.7409 115.191 31.7789 112.052 31.6366C112.052 31.6366 112.049 31.6366 112.045 31.6366C109.727 31.6996 107.916 33.3138 107.397 35.3692C107.187 36.1875 107.183 37.0752 107.435 37.9619C107.79 39.2106 108.01 40.6177 107.856 42.0006C107.787 42.6172 107.842 43.3285 107.983 44.0919C108.325 45.9663 109.19 48.1503 110.034 49.9815C111.057 52.2024 112.052 53.904 112.052 53.904L108.207 55.6577L106.662 52.8344L104.683 49.2198C103.125 48.7985 101.685 49.0704 100.479 49.589C98.4178 50.473 97.05 52.0746 96.9932 52.143C96.9905 52.1457 96.9905 52.1457 96.9905 52.1457C96.0032 50.1444 95.3269 48.189 94.9185 46.2922C94.0925 42.4939 94.3351 38.9315 95.2791 35.714C97.83 27.0119 105.5 20.8144 111.048 19.185C119.399 16.7209 127.206 18.0983 133.952 25.0583Z" fill="#1D202F"/>
<path d="M110.034 49.9812L106.662 52.8342L104.683 49.2196C103.126 48.7983 101.685 49.0701 100.479 49.5887L96.9937 52.1428C96.991 52.1455 96.991 52.1455 96.991 52.1455C96.991 52.1455 94.973 51.1282 92.8965 48.683C93.5249 47.8764 94.2039 47.0787 94.9189 46.2919C99.0404 41.7509 104.293 37.6421 107.397 35.3689C107.188 36.1872 107.183 37.0749 107.436 37.9617C107.79 39.2104 108.01 40.6175 107.856 42.0003C107.788 42.617 107.843 43.3282 107.983 44.0916C108.325 45.966 109.19 48.1501 110.034 49.9812Z" fill="#41555B"/>
<path d="M135.731 73.5481C135.723 73.5481 135.717 73.5481 135.71 73.5481C134.172 73.5418 132.785 72.6361 132.726 72.5974C132.422 72.3958 132.338 71.9852 132.54 71.6809C132.742 71.3766 133.152 71.2929 133.458 71.4946C133.467 71.5009 134.578 72.2202 135.715 72.2256C135.72 72.2256 135.725 72.2256 135.73 72.2256C137.064 72.2256 137.661 71.4261 137.667 71.418C137.876 71.1183 138.29 71.0453 138.589 71.2542C138.889 71.4631 138.962 71.8754 138.753 72.1752C138.714 72.2301 137.77 73.5481 135.731 73.5481Z" fill="#41555B"/>
<path d="M105.119 48.7179C105.119 48.7179 94.4374 48.7809 95.1299 58.6578C95.8224 68.5347 105.701 70.7962 112.102 64.4051L105.119 48.7179Z" fill="#FF9680"/>
<path d="M124.275 54.3826C125.009 56.1553 126.306 57.304 127.171 56.9466C128.036 56.5892 128.142 54.8625 127.408 53.0898C126.674 51.3172 125.378 50.1693 124.512 50.5258C123.647 50.8824 123.541 52.6091 124.275 54.3826Z" fill="#1D202F"/>
<path d="M138.861 50.9094C139.595 52.682 140.892 53.8308 141.757 53.4734C142.623 53.116 142.728 51.3892 141.994 49.6166C141.26 47.8431 139.964 46.6952 139.098 47.0526C138.233 47.4091 138.127 49.1368 138.861 50.9094Z" fill="#1D202F"/>
<path d="M139.372 37.5764C137.958 36.759 135.141 35.4302 132.442 35.9271C131.674 36.0685 131.125 36.7545 131.125 37.5341V37.9032C131.125 38.8323 131.889 39.593 132.818 39.5642C134.059 39.5264 135.878 39.6759 137.922 40.5104C138.933 40.9227 140.06 40.2673 140.183 39.1843C140.256 38.5343 139.939 37.905 139.372 37.5764Z" fill="#1D202F"/>
<path d="M117.573 41.3021C118.608 40.04 120.776 37.8055 123.476 37.322C124.245 37.1843 125.001 37.6326 125.276 38.3628L125.413 38.7274C125.74 39.5952 125.283 40.5594 124.404 40.8592C123.23 41.2598 121.582 42.0404 119.963 43.5384C119.163 44.2802 117.877 44.0624 117.379 43.0919C117.082 42.5094 117.157 41.809 117.573 41.3021Z" fill="#1D202F"/>
<path d="M130.574 46.0308C130.574 46.0308 140.739 55.3396 141.274 58.6346C141.435 59.6231 140.978 60.3397 140.258 60.8574C138.028 62.4634 134.842 61.3417 133.848 58.7822C132.865 56.2534 131.608 52.1661 130.574 46.0308Z" fill="#F6655C"/>
<path d="M140.818 63.5146C140.818 63.5146 141.081 70.806 135.471 70.8357C130.573 70.8618 128.695 64.5797 128.695 64.5797C133.204 65.8274 137.245 65.4727 140.818 63.5146Z" fill="#F4EEE9"/>
<path d="M107.88 62.6013C107.642 62.6013 107.411 62.4726 107.293 62.2475C107.268 62.1998 104.69 57.441 99.5984 57.5328C99.5939 57.5328 99.5903 57.5328 99.5858 57.5328C99.2251 57.5328 98.9303 57.2447 98.924 56.8837C98.9167 56.5182 99.208 56.2166 99.5741 56.2103C99.6345 56.2094 99.6949 56.2085 99.7544 56.2085C105.559 56.2085 108.349 61.4103 108.466 61.6344C108.636 61.9585 108.51 62.3573 108.186 62.5266C108.088 62.577 107.984 62.6013 107.88 62.6013Z" fill="#F6655C"/>
<path d="M101.605 62.8769C101.571 62.8769 101.536 62.8742 101.5 62.8688C101.139 62.8121 100.893 62.4736 100.95 62.1126C101.317 59.7935 103.467 57.6427 103.558 57.5518C103.818 57.2952 104.238 57.297 104.495 57.5563C104.752 57.8156 104.75 58.2342 104.49 58.4917C104.461 58.5214 102.555 60.4372 102.257 62.3187C102.207 62.6446 101.925 62.8769 101.605 62.8769Z" fill="#F6655C"/>
<g opacity="0.5">
<path d="M118.246 60.8343C118.375 61.8147 120.809 62.3036 123.681 61.9246C126.554 61.5465 128.777 60.4445 128.647 59.4641C128.517 58.4837 126.084 57.9949 123.212 58.373C120.339 58.752 118.116 59.854 118.246 60.8343Z" fill="#F6655C"/>
</g>
<g opacity="0.5">
<path d="M141.99 56.2636C142.116 57.2206 144.433 57.7086 147.214 57.3773C147.088 56.188 146.918 55.006 146.709 53.8374C143.955 54.2461 141.864 55.3094 141.99 56.2636Z" fill="#F6655C"/>
</g>
<path d="M140.694 223.664C134.412 223.664 127.842 222.552 121.073 220.335C113.505 217.857 105.673 214 97.7931 208.872C84.3998 200.156 75.3669 190.632 75.2776 190.536C74.9341 190.172 74.9521 189.598 75.3173 189.255C75.6825 188.912 76.2568 188.93 76.6004 189.294C76.6887 189.387 85.5981 198.777 98.8192 207.375C110.957 215.268 129.323 224.096 147.89 221.326C148.385 221.25 148.847 221.593 148.922 222.088C148.996 222.583 148.654 223.045 148.158 223.119C145.721 223.483 143.231 223.664 140.694 223.664Z" fill="#E6D6C7"/>
<path d="M135.941 215.453C135.908 215.453 135.876 215.451 135.843 215.447C128.605 214.678 120.167 210.371 110.763 202.643C103.806 196.926 98.8723 191.351 98.8236 191.295C98.4927 190.918 98.5297 190.347 98.9056 190.015C99.2825 189.685 99.856 189.721 100.187 190.097C100.379 190.315 119.566 211.894 136.035 213.644C136.534 213.697 136.896 214.144 136.842 214.642C136.793 215.108 136.399 215.453 135.941 215.453Z" fill="#E6D6C7"/>
<path d="M79.2366 87.5457C79.2366 87.5457 56.9312 125.431 51.7015 171.66C46.4709 217.889 53.9232 265.477 53.9232 265.477L97.7974 258.716C97.7974 258.716 86.2001 200.667 107.442 130.417C115.504 103.752 116.114 101.202 116.114 101.202L118.655 93.7054C118.655 93.7054 112.577 88.2038 108.92 82.0037L103.733 86.9732C103.733 86.9732 87.9025 82.9526 79.2366 87.5457Z" fill="#1D202F"/>
<path d="M93.6479 253.041C89.356 237.459 87.7294 219.535 88.8141 199.77C89.6806 183.978 92.2684 166.979 96.5071 149.244C103.721 119.058 113.358 96.8911 113.455 96.6714L114.911 97.307C114.815 97.5266 105.227 119.586 98.0463 149.642C91.4289 177.34 85.56 217.69 95.1799 252.621L93.6479 253.041Z" fill="#41555B"/>
<path d="M108.922 82.0034C108.922 82.0034 104.927 83.6401 103.734 86.9729C103.734 86.9729 106.437 96.613 115.894 102.015C115.894 102.015 118.429 99.0312 118.656 93.7052C118.656 93.7052 115.415 90.6973 108.922 82.0034Z" fill="#41555B"/>
<path d="M52.4773 254.162C52.4773 254.162 51.6252 259.964 53.0625 266.233C67.9535 265.379 82.7111 263.211 98.6065 259.435C98.6065 259.435 98.2621 253.966 96.3163 248.542C96.3163 248.542 76.8584 251.91 52.4773 254.162Z" fill="#41555B"/>
<path d="M159.792 219.722C163.127 235.37 166.156 248.724 166.156 248.724L132.432 254.161C128.254 240.906 126.186 218.791 124.875 173.741C123.585 129.445 128.697 94.7642 128.697 94.7642L132.752 92.1948C132.752 92.1948 164.865 107.666 166.157 114.802C167.447 121.94 150.17 159.686 151.25 173.741C151.806 180.981 155.747 200.668 159.435 218.049C159.554 218.609 159.673 219.167 159.792 219.722Z" fill="#1D202F"/>
<path d="M159.793 219.722C153.223 218.573 148.125 214.12 144.911 206.65C142.061 200.022 141.702 193.451 141.688 193.174C141.668 192.737 142.004 192.365 142.442 192.342C142.88 192.322 143.255 192.658 143.275 193.095C143.28 193.161 143.639 199.691 146.387 206.062C149.308 212.828 153.686 216.846 159.435 218.047C159.555 218.609 159.673 219.167 159.793 219.722Z" fill="#41555B"/>
<path d="M133.983 247.574C127.905 219.256 127.088 180.629 127.473 153.213C127.889 123.524 129.765 100.216 129.784 99.9849L131.367 100.114C131.348 100.345 129.476 123.609 129.061 153.246C128.678 180.577 129.49 219.071 135.536 247.242L133.983 247.574Z" fill="#41555B"/>
<path d="M129.983 244.072C129.983 244.072 129.323 249.464 132.198 255.205C132.198 255.205 157.144 253.59 167.594 249.638C167.594 249.638 166.985 244.264 164.118 239.612C164.118 239.612 147.329 242.816 129.983 244.072Z" fill="#41555B"/>
<path d="M128.697 94.7627C128.697 94.7627 126.883 98.3089 127.592 103.768C127.592 103.768 134.786 101.823 139.714 95.7242C139.714 95.7242 136.178 91.8161 132.751 92.1942L128.697 94.7627Z" fill="#41555B"/>
<path d="M34.7467 218.034C29.5017 218.034 24.3883 215.363 21.4949 210.544C21.2235 210.091 14.7729 199.317 9.16639 187.175C5.68055 179.628 3.20547 173.012 1.80879 167.51C0.780894 163.463 0.291289 159.908 0.311126 156.645C0.345389 151.042 1.89716 146.249 4.92585 142.398C12.4322 132.851 26.8976 120.838 47.92 106.696C62.9995 96.5517 75.9384 89.0137 76.4812 88.6977C83.8478 84.4151 93.2954 86.9062 97.5846 94.2605C101.874 101.615 99.379 111.049 92.0133 115.331C79.1934 122.789 44.9265 144.245 31.4709 158.792C32.0561 161.546 33.8089 167.463 39.0575 178.176C43.4802 187.201 47.9254 194.625 47.9705 194.698C52.3535 201.998 49.9794 211.462 42.6687 215.839C40.1828 217.325 37.4471 218.034 34.7467 218.034Z" fill="#1D202F"/>
<path d="M50.8287 181.455C50.8287 181.455 40.5831 205.616 60.3314 214.644C80.0797 223.672 91.4749 200.037 91.4749 200.037C76.8048 196.289 63.2564 190.095 50.8287 181.455Z" fill="#F4EEE9"/>
<path d="M51.9037 193.043C51.9037 193.043 48.398 206.141 61.382 212.353C74.366 218.566 82.4458 207.006 82.4458 207.006C82.4458 207.006 74.8881 200.256 67.0598 199.972C55.8566 199.566 51.9037 193.043 51.9037 193.043Z" fill="#E13149"/>
<path d="M58.9024 212.604L47.5469 237.366L51.2212 239.046L62.5767 214.284L58.9024 212.604Z" fill="#F4EEE9"/>
<path d="M63.5142 249.661C52.3371 246.17 41.7741 241.341 31.8242 235.174L50.6131 235.998L63.5142 249.661Z" fill="#F4EEE9"/>
<path d="M50.3019 203.749C49.5364 202.192 48.0947 201.076 46.3959 200.713C41.9525 199.766 33.4714 199.06 30.3661 206.384C26.0769 216.501 48.9738 225.9 63.9279 226.171C74.7362 226.368 89.8382 215.211 89.1556 210.336C88.4731 205.46 75.8092 215.18 65.6537 215.305C56.6623 215.416 53.1692 209.578 50.3019 203.749Z" fill="#FF9680"/>
<path d="M45.7022 200.575C45.7022 200.575 50.9418 202.102 53.8786 202.583C57.102 203.112 61.1938 204.321 62.3254 206.436C63.4569 208.55 60.7763 209.145 56.2698 209.457C50.2872 209.871 49.3098 210.212 49.3098 210.212C49.3098 210.212 44.7789 203.805 45.7022 200.575Z" fill="#FF9680"/>
<path d="M333.938 128.003L332.479 129.576L331.047 131.105L328.183 134.133C326.27 136.145 324.349 138.144 322.415 140.134C318.551 144.115 314.636 148.056 310.66 151.967C306.674 155.873 302.624 159.744 298.441 163.57C296.331 165.478 294.221 167.382 292.013 169.266C290.93 170.21 289.785 171.147 288.669 172.085C287.506 173.021 286.378 173.954 285.155 174.885C284.552 175.35 283.965 175.814 283.321 176.28L282.374 176.976C282.052 177.209 281.757 177.438 281.41 177.673L279.383 179.068L277.167 180.472L275.912 181.19L275.281 181.544L274.964 181.72L274.805 181.808L274.616 181.902C274.112 182.151 273.606 182.396 273.098 182.635L272.331 182.99C272.004 183.124 271.677 183.255 271.348 183.382L270.854 183.569L270.37 183.73C270.048 183.836 269.724 183.938 269.399 184.037C269.082 184.126 268.768 184.206 268.452 184.287C268.135 184.368 267.817 184.448 267.515 184.505L266.594 184.686C266.285 184.747 265.997 184.782 265.698 184.828C265.403 184.868 265.099 184.916 264.813 184.946L263.953 185.028C261.67 185.226 259.597 185.16 257.66 184.981C255.721 184.8 253.917 184.498 252.197 184.134C248.764 183.397 245.657 182.412 242.695 181.322C239.736 180.229 236.937 179.018 234.222 177.738C231.509 176.457 228.884 175.104 226.317 173.696C223.75 172.287 221.243 170.824 218.772 169.308C217.536 168.548 216.311 167.777 215.089 166.986C214.478 166.59 213.868 166.19 213.254 165.782L212.329 165.16L211.329 164.477C206.255 161.007 204.958 154.086 208.434 149.019C211.749 144.186 218.21 142.786 223.203 145.678L223.604 145.912L225.123 146.798L226.768 147.728C227.874 148.346 228.996 148.952 230.121 149.546C232.374 150.732 234.652 151.866 236.934 152.929C239.216 153.992 241.506 154.985 243.782 155.879C246.056 156.773 248.321 157.574 250.521 158.22C252.717 158.867 254.862 159.367 256.78 159.634C257.737 159.767 258.633 159.841 259.411 159.85C260.188 159.863 260.848 159.806 261.273 159.71C261.695 159.617 261.915 159.505 261.798 159.486C261.784 159.484 261.77 159.485 261.759 159.49C261.802 159.458 261.856 159.42 261.904 159.387C262.003 159.319 262.104 159.257 262.208 159.201L262.246 159.18L262.306 159.137L262.428 159.052L262.673 158.883L263.169 158.552C263.558 158.259 263.95 157.969 264.343 157.684L265.613 156.673C265.821 156.514 266.05 156.309 266.268 156.128L266.93 155.569C267.367 155.21 267.82 154.796 268.27 154.4C269.166 153.622 270.078 152.756 270.984 151.926C271.894 151.049 272.805 150.204 273.715 149.296C275.536 147.523 277.349 145.657 279.158 143.791C282.769 140.024 286.343 136.13 289.88 132.175C293.412 128.212 296.913 124.192 300.372 120.124C302.102 118.093 303.822 116.05 305.529 114.001L308.078 110.924L309.339 109.388L310.559 107.884L310.615 107.816C315.987 101.201 325.713 100.188 332.337 105.551C338.962 110.915 339.977 120.626 334.605 127.24C334.398 127.491 334.156 127.767 333.938 128.003Z" fill="#873523"/>
<path d="M348.962 20.1331C348.962 20.1331 343.594 7.14039 356.443 7.89572C369.292 8.65104 376.947 28.3166 371.108 33.7299C365.269 39.1433 354.991 31.0399 354.991 31.0399L348.962 20.1331Z" fill="#1D202F"/>
<path d="M325.861 17.5051C319.036 21.2089 308.441 30.8454 308.67 39.623C308.86 46.9179 310.474 51.3797 307.297 56.8182C304.119 62.2568 297.79 66.4944 298.111 73.5498C298.655 85.4658 312.939 82.1222 309.989 88.4772C307.039 94.8322 310.472 102.603 317.85 100.899C325.227 99.195 333.397 83.4492 341.568 88.9427C349.739 94.4361 368.039 99.2868 367.393 83.586C367.037 74.9371 365.415 74.1872 371.327 71.715C378.733 68.6172 381.168 57.3926 371.837 47.8425C366.585 42.467 368.473 36.9537 358.175 25.044C350.114 15.7199 335.467 11.6741 325.861 17.5051Z" fill="#1D202F"/>
<path d="M306.242 247.269L294.125 282.18C294.125 282.18 370.893 296.331 390.005 290.801C393.26 278.581 390.547 265.87 387.236 254.406L306.242 247.269Z" fill="#83794E"/>
<path d="M303.184 361.106L317.879 333.663L341.577 289.411L344.841 283.317C344.841 283.317 313.063 265.534 297.294 273.045L297.251 273.171L286.116 304.161L279.546 322.446L265.656 361.106H303.184Z" fill="#83794E"/>
<path d="M336.371 287.899L335.926 288.702L311.784 332.293C311.038 332.116 310.297 331.935 309.562 331.751L333.577 288.391L334.439 286.834C334.734 286.3 335.406 286.107 335.94 286.401C336.475 286.699 336.667 287.369 336.371 287.899Z" fill="#5E522B"/>
<path d="M303.184 361.109L317.879 333.666C302.403 330.383 288.966 325.971 279.545 322.449L265.656 361.109H303.184Z" fill="#873523"/>
<path d="M281.947 314.352C281.947 314.352 278.451 318.618 279.18 323.038C279.18 323.038 297.958 334.981 316.381 336.467C316.381 336.467 319.655 334.337 320.716 328.371C320.716 328.371 297.22 323.356 281.947 314.352Z" fill="#968D63"/>
<path d="M350.841 338.119L352.267 361.109H393.31C393.377 351.735 393.42 342.947 393.387 334.336C393.312 315.235 392.859 297.002 391.426 275.132L391.33 275.133L347.07 277.329L347.865 290.144L350.841 338.119Z" fill="#83794E"/>
<path d="M356.816 338.32C356.077 338.309 355.337 338.293 354.599 338.268L351.558 290.535L351.485 289.379C351.446 288.774 351.907 288.248 352.517 288.209C353.128 288.173 353.65 288.633 353.688 289.24L353.786 290.756L356.816 338.32Z" fill="#5E522B"/>
<path d="M393.316 361.109C393.383 351.736 393.426 342.948 393.393 334.337C379.428 337.94 364.895 338.842 350.846 338.119L352.272 361.109H393.316Z" fill="#873523"/>
<path d="M350.563 333.558C350.563 333.558 348.938 338.769 350.847 342.178C350.847 342.178 376.133 344.001 393.404 337.429C393.404 337.429 394.778 334.37 393.399 329.157C393.399 329.157 368.231 335.125 350.563 333.558Z" fill="#968D63"/>
<path d="M392.526 150.949C391.671 154.835 390.749 158.841 389.855 162.853C389.262 165.507 388.682 168.163 388.137 170.787C387.148 175.543 386.279 180.191 385.685 184.524C385.594 185.195 385.509 185.888 385.429 186.607C383.033 208.579 386.873 251.907 389.44 263.006C389.44 263.006 320.414 276.021 301.271 261.578C301.271 261.578 311.056 192.901 311.276 179.234C311.499 165.565 297.365 151.456 301.34 140.212C305.316 128.969 307.888 128.845 309.511 113.097C311.056 98.1043 324.771 96.9448 331.59 94.1368L352.584 90.5339C352.584 90.5339 387.448 108.33 394.03 121.145C396.715 126.372 395.72 136.448 392.526 150.949Z" fill="#FFAC32"/>
<path d="M332.146 131.666C322.89 131.666 319.535 124.623 319.395 124.32C319.212 123.922 319.386 123.451 319.785 123.268C320.182 123.085 320.654 123.258 320.838 123.655C320.968 123.932 324.009 130.217 332.426 130.076C341.04 129.933 350.255 119.428 350.347 119.322C350.633 118.99 351.135 118.954 351.467 119.242C351.799 119.528 351.835 120.029 351.548 120.36C351.153 120.815 341.779 131.507 332.453 131.662C332.349 131.665 332.246 131.666 332.146 131.666Z" fill="#F38400"/>
<path d="M389.861 162.852C389.268 165.506 388.688 168.162 388.143 170.787C387.154 175.543 386.285 180.191 385.692 184.524C385.6 185.194 385.515 185.888 385.435 186.606L365.225 132.745L389.861 162.852Z" fill="#F38400"/>
<path d="M318.326 137.827C318.054 137.827 317.781 137.74 317.551 137.56L311.083 132.499C310.537 132.071 310.441 131.282 310.87 130.736C311.298 130.19 312.089 130.094 312.635 130.523L319.103 135.584C319.649 136.012 319.746 136.801 319.317 137.347C319.069 137.662 318.699 137.827 318.326 137.827Z" fill="#F38400"/>
<path d="M321.677 166.065C321.406 166.065 321.133 165.978 320.902 165.798L314.435 160.737C313.889 160.309 313.792 159.52 314.221 158.974C314.649 158.428 315.44 158.333 315.987 158.761L322.454 163.822C323 164.25 323.097 165.039 322.668 165.585C322.42 165.901 322.051 166.065 321.677 166.065Z" fill="#F38400"/>
<path d="M359.052 119.05C358.826 119.05 358.598 118.99 358.392 118.863C357.801 118.498 357.618 117.725 357.982 117.134L362.297 110.152C362.662 109.561 363.436 109.378 364.027 109.742C364.618 110.107 364.802 110.88 364.437 111.47L360.123 118.453C359.886 118.838 359.474 119.05 359.052 119.05Z" fill="#F38400"/>
<path d="M337.303 150.634C337.078 150.634 336.85 150.573 336.644 150.447C336.053 150.082 335.87 149.309 336.234 148.719L340.549 141.736C340.914 141.146 341.688 140.963 342.28 141.328C342.871 141.692 343.054 142.466 342.69 143.055L338.376 150.038C338.137 150.422 337.725 150.634 337.303 150.634Z" fill="#F38400"/>
<path d="M320.859 114.263C320.769 114.469 320.622 114.653 320.423 114.79C319.852 115.185 319.069 115.042 318.673 114.473L313.997 107.726C313.602 107.156 313.744 106.374 314.315 105.978C314.886 105.584 315.669 105.726 316.065 106.296L320.741 113.043C321 113.416 321.029 113.877 320.859 114.263Z" fill="#F38400"/>
<path d="M345.936 192.77C345.312 192.77 344.77 192.306 344.69 191.671L343.657 183.532C343.569 182.844 344.057 182.216 344.746 182.129C345.437 182.041 346.064 182.528 346.152 183.216L347.185 191.355C347.272 192.043 346.784 192.672 346.096 192.759C346.042 192.766 345.989 192.77 345.936 192.77Z" fill="#F38400"/>
<path d="M314.708 217.679C314.225 217.679 313.763 217.399 313.556 216.928C313.276 216.293 313.565 215.552 314.201 215.273L321.722 211.969C322.357 211.69 323.1 211.978 323.38 212.613C323.659 213.247 323.371 213.988 322.735 214.267L315.213 217.571C315.049 217.644 314.877 217.679 314.708 217.679Z" fill="#F38400"/>
<path d="M346.113 226.549C346.033 226.457 345.967 226.351 345.915 226.234L342.62 218.719C342.341 218.083 342.631 217.343 343.267 217.065C343.903 216.787 344.644 217.076 344.923 217.712L348.219 225.228C348.497 225.863 348.207 226.603 347.571 226.882C347.053 227.108 346.463 226.957 346.113 226.549Z" fill="#F38400"/>
<path d="M363.274 154.422C363.002 154.422 362.729 154.335 362.498 154.154L356.031 149.093C355.484 148.665 355.388 147.876 355.817 147.33C356.245 146.785 357.036 146.689 357.583 147.117L364.05 152.178C364.597 152.606 364.693 153.396 364.264 153.942C364.016 154.257 363.647 154.422 363.274 154.422Z" fill="#F38400"/>
<path d="M346.208 171.476C346.013 171.476 345.813 171.431 345.628 171.334C345.013 171.014 344.773 170.256 345.094 169.64L348.891 162.364C349.212 161.749 349.971 161.51 350.588 161.831C351.203 162.151 351.442 162.909 351.121 163.525L347.324 170.801C347.101 171.23 346.663 171.476 346.208 171.476Z" fill="#F38400"/>
<path d="M319.721 185.69C319.526 185.69 319.327 185.644 319.142 185.548C318.526 185.228 318.287 184.47 318.607 183.854L322.404 176.578C322.725 175.963 323.484 175.724 324.101 176.044C324.717 176.364 324.956 177.122 324.635 177.738L320.838 185.014C320.613 185.445 320.175 185.69 319.721 185.69Z" fill="#F38400"/>
<path d="M373.938 204.313C373.785 204.492 373.581 204.63 373.338 204.701L365.459 207.032C364.794 207.229 364.093 206.849 363.896 206.185C363.698 205.52 364.078 204.821 364.744 204.624L372.623 202.293C373.289 202.096 373.989 202.476 374.187 203.14C374.313 203.564 374.205 204.001 373.938 204.313Z" fill="#F38400"/>
<path d="M374.952 248.095C374.807 248.095 374.66 248.07 374.517 248.017L366.806 245.182C366.154 244.942 365.82 244.22 366.06 243.569C366.3 242.918 367.024 242.585 367.675 242.825L375.386 245.661C376.038 245.9 376.372 246.622 376.132 247.273C375.945 247.78 375.464 248.095 374.952 248.095Z" fill="#F38400"/>
<path d="M317.958 250.169C317.732 250.169 317.504 250.108 317.298 249.981C316.707 249.617 316.524 248.843 316.889 248.254L321.204 241.271C321.569 240.681 322.343 240.498 322.934 240.862C323.525 241.226 323.708 242 323.344 242.59L319.03 249.573C318.792 249.956 318.38 250.169 317.958 250.169Z" fill="#F38400"/>
<path d="M374.953 186.359C374.616 186.359 374.28 186.225 374.032 185.959L368.431 179.956C367.958 179.449 367.986 178.655 368.494 178.182C369.003 177.709 369.799 177.737 370.272 178.245L375.873 184.248C376.346 184.756 376.318 185.55 375.81 186.022C375.568 186.247 375.26 186.359 374.953 186.359Z" fill="#F38400"/>
<path d="M354.175 91.8069C341.585 110.011 330.728 104.348 330.728 104.348L327.885 93.2438L325.861 85.3367L341.547 72.0388L345.587 68.6168L345.818 69.2371L346.237 70.3706L354.175 91.8069Z" fill="#873523"/>
<path d="M329.331 98.8955C329.331 98.8955 320.802 108.026 325.459 119.737C330.294 131.892 355.103 121.539 354.173 91.8068L329.331 98.8955Z" fill="#873523"/>
<path d="M346.236 70.3697C345.166 74.7081 338.202 90.0523 327.483 91.671L325.861 85.3358L341.547 72.0379L345.817 69.2362L346.236 70.3697Z" fill="#1D202F"/>
<path d="M320.047 45.5304C320.047 45.5304 310.351 41.0561 306.775 50.2911C303.199 59.5261 311.179 65.764 319.693 62.6932L320.047 45.5304Z" fill="#5E1720"/>
<path d="M313.452 62.9523C313.505 63.2854 313.509 63.632 313.459 63.9813C313.183 65.8692 311.418 67.1836 309.527 66.909C307.633 66.6335 306.319 64.8717 306.595 62.9829C306.66 62.5391 306.807 62.1276 307.019 61.7621C307.631 60.6971 308.788 60.0111 310.058 60.0219C310.574 59.7311 310.449 58.8344 310.127 58.6652C308.394 58.6256 306.804 59.5259 305.921 60.9456C305.582 61.4921 305.346 62.1123 305.248 62.7876C304.864 65.4181 306.694 67.8714 309.331 68.2549C311.966 68.6384 314.423 66.8082 314.807 64.1785C314.882 63.6608 314.873 63.1486 314.783 62.6588L313.452 62.9523Z" fill="#FFAC32"/>
<path d="M357.005 51.4724C355.567 55.1104 353.468 59.5785 350.908 64.1096C349.959 65.7868 348.947 67.4694 347.885 69.125C339.129 82.7272 325.661 89.3208 317.664 82.3455C311.873 77.295 308.987 69.3879 308.705 62.0957C308.659 60.901 308.657 59.7063 308.694 58.5207C309.098 45.1732 314.254 33.0376 314.254 33.0376C320.128 21.3763 328.789 17.6375 338.977 19.0959C348.171 20.4022 364.478 32.5757 357.005 51.4724Z" fill="#873523"/>
<path d="M321.731 50.5636C321.731 50.5636 321.729 61.257 320.769 63.848C320.769 63.848 317.929 64.2612 316.704 61.9889C316.273 61.1877 321.731 50.5636 321.731 50.5636Z" fill="#5E1720"/>
<path d="M322.399 76.446C322.407 76.4451 322.413 76.4442 322.42 76.4433C323.941 76.2155 325.183 75.1199 325.235 75.0731C325.507 74.83 325.531 74.4114 325.287 74.1395C325.043 73.8667 324.625 73.8442 324.352 74.0873C324.343 74.0954 323.348 74.9669 322.224 75.1352C320.896 75.336 320.2 74.6401 320.171 74.6104C319.916 74.3529 319.499 74.3448 319.237 74.5959C318.977 74.8471 318.963 75.2576 319.211 75.5214C319.257 75.5718 320.381 76.7395 322.399 76.446Z" fill="#5E1720"/>
<path d="M350.909 64.1099C349.963 65.7853 348.949 67.4697 347.887 69.1244C345.535 67.1015 344.471 63.9946 344.471 63.9946L350.909 64.1099Z" fill="#5E1720"/>
<path d="M360.428 55.8628C360.747 60.1076 359.183 63.2028 356.718 64.9259C356.243 65.2563 355.736 65.5381 355.201 65.7667C352.057 67.1081 347.998 66.6265 344.463 63.9941L349.106 47.4651C349.106 47.4651 359.687 45.9905 360.428 55.8628Z" fill="#873523"/>
<path d="M356.722 64.9258C356.246 65.2562 355.74 65.538 355.204 65.7666C354.643 64.6575 353.312 63.4286 353.312 63.4286C355.247 62.9029 356.252 64.0534 356.722 64.9258Z" fill="#5E1720"/>
<path d="M348.582 66.0671C348.493 66.556 348.483 67.0682 348.559 67.5868C348.943 70.2174 351.4 72.0467 354.034 71.6632C356.671 71.2797 358.501 68.8265 358.117 66.1959C358.019 65.5207 357.784 64.9004 357.445 64.3539C356.561 62.9342 354.97 62.0339 353.238 62.0735C352.916 62.2428 352.791 63.1394 353.308 63.4302C354.577 63.4194 355.734 64.1054 356.346 65.1705C356.558 65.536 356.705 65.9474 356.77 66.3912C357.046 68.2791 355.731 70.0418 353.839 70.3173C351.948 70.5928 350.183 69.2784 349.907 67.3896C349.855 67.0394 349.86 66.6937 349.912 66.3606L348.582 66.0671Z" fill="#FFAC32"/>
<path d="M330.971 55.8311C330.501 57.6911 329.383 59.0136 328.476 58.7849C327.568 58.5562 327.214 56.8628 327.685 55.002C328.155 53.142 329.273 51.8195 330.18 52.0482C331.088 52.2777 331.442 53.9712 330.971 55.8311Z" fill="#1D202F"/>
<path d="M316.038 54.4932C315.567 56.3532 314.45 57.6757 313.543 57.447C312.635 57.2183 312.28 55.5249 312.751 53.6641C313.222 51.8041 314.339 50.4816 315.246 50.7103C316.153 50.9398 316.507 52.6333 316.038 54.4932Z" fill="#1D202F"/>
<path d="M313.608 41.3734C314.889 40.3606 317.485 38.6402 320.227 38.7437C321.008 38.7734 321.65 39.3721 321.762 40.1445L321.816 40.5101C321.95 41.4292 321.304 42.2926 320.379 42.3979C319.146 42.5384 317.368 42.9489 315.466 44.0688C314.526 44.6225 313.316 44.1364 313.037 43.0821C312.87 42.4492 313.094 41.7803 313.608 41.3734Z" fill="#1D202F"/>
<path d="M335.716 41.9234C334.509 40.8233 332.041 38.9246 329.299 38.8346C328.518 38.8094 327.835 39.3621 327.668 40.1238L327.585 40.5046C327.387 41.4111 327.978 42.2988 328.891 42.469C330.111 42.6967 331.855 43.2306 333.672 44.4802C334.57 45.0987 335.812 44.6989 336.164 43.6663C336.376 43.0478 336.199 42.3645 335.716 41.9234Z" fill="#1D202F"/>
<path d="M315.922 67.2477C315.922 67.2477 316.714 74.5003 322.27 73.7224C327.121 73.0427 328.072 66.5563 328.072 66.5563C323.791 68.4405 319.74 68.671 315.922 67.2477Z" fill="#F4EEE9"/>
<path d="M348.379 61.6034C348.615 61.5692 348.824 61.4081 348.909 61.1686C348.935 61.0966 350.795 56.0379 355.842 55.3952C355.846 55.3943 355.85 55.3943 355.855 55.3934C356.211 55.3411 356.461 55.0143 356.416 54.656C356.37 54.2932 356.039 54.0375 355.676 54.0835C355.617 54.0907 355.556 54.0997 355.498 54.1078C349.753 54.9432 347.743 60.4925 347.66 60.7302C347.539 61.075 347.722 61.4522 348.066 61.5728C348.169 61.6097 348.276 61.6178 348.379 61.6034Z" fill="#5E1720"/>
<path d="M354.633 60.974C354.667 60.9695 354.701 60.9614 354.735 60.9506C355.085 60.8425 355.279 60.4716 355.171 60.1223C354.473 57.8807 352.034 56.0612 351.931 55.9847C351.637 55.7677 351.222 55.8298 351.005 56.1233C350.787 56.4168 350.85 56.8309 351.144 57.0479C351.178 57.0731 353.34 58.6945 353.906 60.5139C354.004 60.8299 354.316 61.0199 354.633 60.974Z" fill="#5E1720"/>
<g opacity="0.5">
<path d="M337.869 61.3475C337.882 62.3369 335.544 63.1696 332.647 63.2092C329.75 63.2488 327.391 62.4782 327.377 61.4897C327.363 60.5003 329.701 59.6675 332.599 59.6279C335.496 59.5883 337.855 60.3581 337.869 61.3475Z" fill="#5E1720"/>
</g>
<g opacity="0.5">
<path d="M313.714 60.2426C313.728 61.2077 311.505 62.0234 308.705 62.0972C308.659 60.9025 308.657 59.7079 308.694 58.5222C311.478 58.5294 313.701 59.2802 313.714 60.2426Z" fill="#5E1720"/>
</g>
<path d="M324.838 33.6273C328.004 31.6233 330.699 30.2396 334.479 30.8878C334.647 34.6509 337.424 44.0534 346.019 45.0599C345.715 51.5265 342.238 64.7668 345.213 61.6294C346.189 60.5986 349.586 52.7815 350.183 51.7822C352.619 47.7085 356.915 49.0472 358.962 51.188C365.459 36.9007 358.924 17.9743 340.777 15.9361C322.629 13.8978 315.923 25.2431 311.195 32.8225C306.483 40.3758 317.076 38.5437 324.838 33.6273Z" fill="#1D202F"/>
<path d="M420.676 192.419C420.662 192.117 420.641 191.814 420.617 191.512C420.587 191.202 420.548 190.889 420.503 190.579L420.408 189.887C420.346 189.475 420.292 189.054 420.224 188.652C419.97 187.016 419.661 185.445 419.328 183.902C418.994 182.359 418.626 180.857 418.236 179.377C416.672 173.466 414.777 167.914 412.734 162.487C410.689 157.064 408.481 151.787 406.177 146.584C403.869 141.383 401.458 136.264 398.962 131.193C397.711 128.657 396.442 126.133 395.144 123.615C394.495 122.358 393.839 121.1 393.172 119.84L392.162 117.946L391.647 116.989L391.091 115.978L391.046 115.892C390.819 115.482 390.569 115.078 390.301 114.682C385.512 107.63 375.905 105.787 368.84 110.569C361.777 115.35 359.931 124.942 364.72 131.997L364.961 132.348L365.221 132.742L365.755 133.549L366.826 135.189C367.539 136.29 368.252 137.401 368.958 138.519C370.372 140.75 371.767 143.003 373.143 145.267C375.892 149.793 378.561 154.363 381.11 158.964C383.656 163.566 386.091 168.198 388.329 172.84C390.564 177.476 392.617 182.142 394.262 186.688C394.675 187.823 395.059 188.949 395.404 190.055C395.497 190.354 395.589 190.653 395.679 190.95C395.869 191.58 396.047 192.2 396.207 192.81C395.944 193.189 395.631 193.606 395.284 194.034C394.946 194.451 394.576 194.881 394.181 195.319C393.852 195.683 393.507 196.053 393.15 196.422C391.573 198.056 389.774 199.715 387.883 201.342C384.086 204.606 379.927 207.769 375.659 210.826C373.521 212.354 371.346 213.855 369.15 215.329C368.053 216.065 366.951 216.793 365.843 217.513L364.186 218.581L362.579 219.598L362.332 219.756C358.07 222.472 356.534 228.042 358.926 232.594C361.452 237.396 367.396 239.246 372.207 236.723L374.161 235.699L376.045 234.69C377.293 234.015 378.534 233.331 379.772 232.639C382.246 231.257 384.704 229.839 387.148 228.375C392.039 225.44 396.882 222.356 401.699 218.862C404.109 217.105 406.51 215.247 408.923 213.135C410.131 212.074 411.341 210.948 412.56 209.691C413.779 208.428 415.013 207.042 416.257 205.335C416.879 204.469 417.504 203.526 418.12 202.412C418.427 201.856 418.731 201.245 419.021 200.592C419.314 199.928 419.595 199.201 419.847 198.401C420.342 196.795 420.752 194.808 420.676 192.419Z" fill="#873523"/>
<path d="M409.03 195.108C409.03 195.108 400.289 194.718 394.18 195.321C394.575 194.884 394.944 194.454 395.282 194.037C395.63 193.608 395.942 193.191 396.206 192.813C396.044 192.204 395.868 191.583 395.677 190.952C399.393 191.505 404.949 192.685 409.03 195.108Z" fill="#5E1720"/>
<path d="M364.727 202.205C364.727 202.205 362.105 228.311 340.439 226.77C318.773 225.229 320.136 199.034 320.136 199.034C334.809 202.774 349.672 203.831 364.727 202.205Z" fill="#F4EEE9"/>
<path d="M358.215 211.856C358.215 211.856 354.996 225.026 340.619 224.256C326.241 223.486 324.709 209.473 324.709 209.473C324.709 209.473 334.583 207.171 341.588 210.673C351.612 215.684 358.215 211.856 358.215 211.856Z" fill="#E13149"/>
<path d="M338.662 225.378L336.723 252.545L340.754 252.832L342.693 225.665L338.662 225.378Z" fill="#F4EEE9"/>
<path d="M320.82 255.965C332.304 258.257 343.893 259.081 355.586 258.438L338.706 250.159L320.82 255.965Z" fill="#F4EEE9"/>
<path d="M354.48 222.016C355.901 221.017 357.701 220.729 359.367 221.225C363.721 222.523 377.01 223.441 376.215 231.357C375.117 242.287 345 242.088 331.75 235.161C322.174 230.155 314.286 213.132 317.228 209.18C320.17 205.229 326.609 219.825 335.459 224.801C343.293 229.204 349.163 225.757 354.48 222.016Z" fill="#873523"/>
<path d="M360.04 221.436C360.04 221.436 354.71 220.265 351.902 219.281C348.819 218.2 344.649 217.3 342.64 218.613C340.63 219.927 342.697 221.733 346.501 224.165C351.551 227.395 352.245 228.163 352.245 228.163C352.245 228.163 359.298 224.712 360.04 221.436Z" fill="#873523"/>
<path d="M243.688 43.981C243.688 43.981 244.709 18.6222 220.449 13.8633C196.191 9.10448 172.075 29.7846 182.968 60.1184C194.031 90.9212 185.37 103.259 173.616 110.561C161.862 117.862 140.086 156.271 165.612 175.306C191.138 194.34 243.07 159.945 258.731 132.335C269.141 113.98 244.152 97.7003 243.687 86.5369" fill="#FF5326"/>
<path d="M310.605 188.647C310.039 194.492 309.168 202.002 308.183 209.974C305.734 210.407 303.258 210.788 300.734 211.095C298.146 211.408 295.512 211.657 292.783 211.76C290.053 211.862 287.239 211.853 284.216 211.569C282.702 211.424 281.136 211.204 279.481 210.855C277.822 210.5 276.076 210.023 274.193 209.255C272.32 208.487 270.271 207.415 268.226 205.723C267.687 205.276 267.282 204.88 266.842 204.458C266.728 204.347 266.649 204.258 266.551 204.161L266.276 203.871C266.097 203.681 265.897 203.472 265.747 203.296C265.436 202.935 265.096 202.55 264.83 202.213L264.412 201.689C264.272 201.512 264.156 201.351 264.027 201.181C263.018 199.837 262.2 198.586 261.437 197.36C260.677 196.134 259.996 194.945 259.347 193.766C258.698 192.586 258.087 191.421 257.502 190.265C256.911 189.105 256.352 187.953 255.802 186.807C254.709 184.511 253.675 182.229 252.684 179.95C250.692 175.397 248.883 170.843 247.128 166.29C245.383 161.733 243.695 157.18 242.096 152.602C241.295 150.314 240.506 148.022 239.731 145.724C239.343 144.575 238.955 143.427 238.578 142.268L237.443 138.746C235.375 132.338 238.904 125.471 245.323 123.409C251.74 121.345 258.619 124.868 260.684 131.277C260.696 131.313 260.707 131.35 260.718 131.386L260.787 131.604L261.792 134.887L262.829 138.221C263.526 140.447 264.238 142.669 264.962 144.886C266.412 149.319 267.875 153.745 269.413 158.115C270.945 162.489 272.55 166.815 274.202 171.05C275.03 173.167 275.882 175.252 276.76 177.287C277.2 178.302 277.643 179.308 278.097 180.287C278.549 181.269 279.007 182.229 279.472 183.152C279.935 184.075 280.403 184.97 280.868 185.783C281.329 186.598 281.792 187.351 282.186 187.929C282.234 187.997 282.286 188.083 282.329 188.139L282.461 188.319C282.554 188.457 282.611 188.516 282.679 188.613C282.718 188.67 282.727 188.672 282.75 188.701L282.777 188.737C282.781 188.744 282.793 188.76 282.793 188.764C282.784 188.753 282.793 188.782 282.711 188.717C282.488 188.56 282.536 188.676 282.856 188.83C283.163 188.991 283.712 189.193 284.374 189.367C285.042 189.544 285.832 189.696 286.685 189.818C288.396 190.068 290.352 190.186 292.381 190.204C296.459 190.238 300.84 189.92 305.234 189.384C307.019 189.162 308.811 188.922 310.605 188.647Z" fill="#FDB086"/>
<path d="M246.033 103.937C246.033 103.937 258.668 113.903 266.122 137.896L247.403 144.041C247.403 144.041 241.054 116.619 246.033 103.937Z" fill="#0B447C"/>
<path d="M253.131 247.269L265.248 282.18C265.248 282.18 188.48 296.331 169.368 290.801C166.112 278.581 168.826 265.871 172.137 254.407L253.131 247.269Z" fill="#FFAC32"/>
<path d="M256.188 361.109H293.717L273.258 304.162L262.123 273.173L262.078 273.048C246.31 265.538 214.533 283.32 214.533 283.32L217.797 289.413L256.188 361.109Z" fill="#FFAC32"/>
<path d="M207.105 361.107L211.506 290.143L212.3 277.329L168.04 275.134L167.944 275.13C165.869 306.859 165.847 330.934 166.061 361.107H207.105Z" fill="#FFAC32"/>
<path d="M223.442 288.703L263.544 361.109H266.067L225.79 288.392L224.928 286.835C224.633 286.301 223.961 286.108 223.428 286.404C222.893 286.699 222.7 287.37 222.996 287.901L223.442 288.703Z" fill="#F38400"/>
<path d="M203.32 361.107L207.815 290.536L207.889 289.381C207.927 288.775 207.466 288.25 206.856 288.211C206.245 288.174 205.724 288.634 205.683 289.242L205.587 290.757L201.107 361.107H203.32Z" fill="#F38400"/>
<path d="M248.087 179.233C248.307 192.9 258.092 261.578 258.092 261.578C242.63 273.246 194.606 266.991 176.726 264.159C176.172 264.072 175.646 263.987 175.151 263.905C171.853 263.367 169.925 263.006 169.925 263.006C172.575 251.543 176.582 205.713 173.679 184.522C173.084 180.189 172.218 175.541 171.227 170.785C169.861 164.2 168.259 157.406 166.838 150.948C163.643 136.447 162.648 126.371 165.336 121.143C171.918 108.329 206.779 90.5322 206.779 90.5322L227.774 94.1351C234.592 96.9431 248.307 98.1035 249.853 113.096C251.476 128.843 254.049 128.968 258.024 140.21C261.997 151.455 247.867 165.565 248.087 179.233Z" fill="#0068A3"/>
<path d="M176.727 264.159C176.174 264.073 175.647 263.987 175.152 263.905C178.754 249.552 180.386 227.769 179.884 200.435C179.464 177.595 177.691 158.755 177.673 158.566C177.633 158.132 177.953 157.744 178.39 157.703C178.83 157.663 179.214 157.982 179.255 158.417C179.273 158.605 181.05 177.506 181.472 200.406C181.832 219.902 181.244 246.06 176.727 264.159Z" fill="#0B447C"/>
<path d="M192.291 219.223C192.047 219.223 191.808 219.109 191.658 218.894C191.413 218.546 191.497 218.064 191.846 217.819C193.214 216.861 225.551 194.315 242.562 192.771C242.988 192.732 243.363 193.046 243.402 193.47C243.441 193.894 243.127 194.269 242.702 194.308C226.098 195.815 193.066 218.85 192.734 219.082C192.599 219.177 192.444 219.223 192.291 219.223Z" fill="#0B447C"/>
<path d="M225.078 111.923C216.7 111.923 209.206 104.74 208.878 104.421C208.616 104.166 208.61 103.747 208.866 103.486C209.121 103.224 209.54 103.218 209.802 103.472C209.882 103.549 217.866 111.195 226.07 110.562C233.983 109.954 234.495 102.255 234.513 101.927C234.532 101.563 234.843 101.282 235.209 101.302C235.574 101.321 235.854 101.632 235.835 101.996C235.831 102.088 235.258 111.183 226.172 111.881C225.806 111.909 225.441 111.923 225.078 111.923Z" fill="#0B447C"/>
<path d="M205.6 93.3221C220.687 109.524 230.613 102.356 230.613 102.356L231.823 90.9589L232.683 82.8438L215.241 71.9424L210.749 69.1381L210.61 69.7845L210.36 70.9656L205.6 93.3221Z" fill="#FDB086"/>
<path d="M210.36 70.9658C212.045 75.1043 221.152 89.2863 231.993 89.3449L232.683 82.8422L215.241 71.9408L210.611 69.7828L210.36 70.9658Z" fill="#1D202F"/>
<path d="M232.688 42.6179C232.688 42.6179 241.637 36.7949 246.508 45.4186C251.381 54.0423 244.384 61.3634 235.516 59.5511L232.688 42.6179Z" fill="#FF7D6B"/>
<path d="M196.976 53.819C198.924 57.2121 201.647 61.3309 204.834 65.446C206.014 66.9684 207.26 68.488 208.55 69.9735C219.179 82.1731 233.457 86.7591 240.363 78.7061C245.364 72.8742 247.078 64.6349 246.303 57.3787C246.177 56.1894 246.007 55.0074 245.798 53.8388C243.471 40.6885 236.617 29.4225 236.617 29.4225C229.12 18.7282 220.01 16.2758 210.139 19.1855C201.231 21.8017 186.852 36.1953 196.976 53.819Z" fill="#FDB086"/>
<path d="M231.752 47.8408C231.752 47.8408 233.298 58.4226 234.622 60.848C234.622 60.848 237.492 60.848 238.376 58.4226C238.687 57.5692 231.752 47.8408 231.752 47.8408Z" fill="#FF7D6B"/>
<path d="M234.821 73.5488C234.814 73.5488 234.807 73.5488 234.8 73.5488C233.262 73.5425 231.875 72.6368 231.816 72.5981C231.512 72.3965 231.428 71.9859 231.63 71.6816C231.832 71.3773 232.243 71.2936 232.548 71.4953C232.558 71.5016 233.669 72.2209 234.805 72.2263C236.149 72.2344 236.737 71.4449 236.762 71.4116C236.977 71.1199 237.39 71.0524 237.684 71.263C237.978 71.4737 238.05 71.8788 237.843 72.175C237.804 72.2308 236.859 73.5488 234.821 73.5488Z" fill="#FF7D6B"/>
<path d="M204.834 65.4451C206.013 66.9666 207.259 68.4881 208.548 69.9726C210.584 67.6319 211.188 64.4044 211.188 64.4044L204.834 65.4451Z" fill="#FF7D6B"/>
<path d="M194.218 58.657C194.515 62.9036 196.51 65.7413 199.198 67.0917C199.715 67.3501 200.258 67.5562 200.821 67.7057C204.125 68.5807 208.072 67.5202 211.191 64.4062L204.209 48.718C204.209 48.718 193.525 48.781 194.218 58.657Z" fill="#FDB086"/>
<path d="M202.134 68.616C203.299 68.616 204.244 67.6732 204.244 66.5103C204.244 65.3473 203.299 64.4045 202.134 64.4045C200.97 64.4045 200.026 65.3473 200.026 66.5103C200.026 67.6732 200.97 68.616 202.134 68.616Z" fill="#F4EEE9"/>
<path d="M223.363 54.3825C224.097 56.1551 225.394 57.3039 226.258 56.9465C227.124 56.5891 227.229 54.8623 226.495 53.0897C225.762 51.3171 224.465 50.1692 223.6 50.5257C222.736 50.8822 222.629 52.609 223.363 54.3825Z" fill="#1D202F"/>
<path d="M237.949 50.9091C238.683 52.6818 239.979 53.8305 240.845 53.4731C241.711 53.1157 241.816 51.389 241.082 49.6164C240.348 47.8428 239.052 46.695 238.187 47.0524C237.321 47.4089 237.215 49.1365 237.949 50.9091Z" fill="#1D202F"/>
<path d="M238.462 37.5785C237.048 36.7611 234.231 35.4323 231.532 35.9292C230.764 36.0705 230.215 36.7566 230.215 37.5362V37.9053C230.215 38.8344 230.979 39.5951 231.908 39.5663C233.149 39.5285 234.968 39.6779 237.012 40.5125C238.023 40.9248 239.15 40.2694 239.273 39.1864C239.347 38.5364 239.029 37.9071 238.462 37.5785Z" fill="#FF5326"/>
<path d="M216.663 41.3021C217.698 40.04 219.865 37.8055 222.566 37.322C223.335 37.1843 224.09 37.6326 224.365 38.3628L224.502 38.7274C224.83 39.5952 224.374 40.5594 223.494 40.8592C222.32 41.2598 220.672 42.0404 219.054 43.5384C218.253 44.2802 216.967 44.0624 216.47 43.0919C216.172 42.5094 216.248 41.809 216.663 41.3021Z" fill="#FF5326"/>
<path d="M239.907 63.5148C239.907 63.5148 240.171 70.8061 234.56 70.8358C229.664 70.8619 227.785 64.5798 227.785 64.5798C232.293 65.8276 236.333 65.4729 239.907 63.5148Z" fill="#F4EEE9"/>
<path d="M206.969 62.6019C206.731 62.6019 206.501 62.4731 206.382 62.2472C206.346 62.1796 203.775 57.4415 198.688 57.5324C198.684 57.5324 198.68 57.5324 198.676 57.5324C198.315 57.5324 198.02 57.2443 198.014 56.8833C198.007 56.5178 198.298 56.2162 198.664 56.2099C198.725 56.209 198.785 56.2081 198.844 56.2081C204.649 56.2081 207.439 61.4099 207.556 61.6341C207.726 61.9582 207.601 62.357 207.276 62.5262C207.178 62.5776 207.072 62.6019 206.969 62.6019Z" fill="#FF7D6B"/>
<path d="M200.689 62.8767C200.654 62.8767 200.619 62.874 200.585 62.8686C200.223 62.8118 199.977 62.4724 200.034 62.1123C200.401 59.7932 202.551 57.6425 202.642 57.5516C202.902 57.295 203.321 57.2968 203.579 57.5561C203.837 57.8153 203.835 58.234 203.576 58.4914C203.546 58.5212 201.64 60.4369 201.342 62.3185C201.29 62.6444 201.009 62.8767 200.689 62.8767Z" fill="#FF7D6B"/>
<g opacity="0.5">
<path d="M217.336 60.8345C217.466 61.8149 219.899 62.3037 222.771 61.9247C225.644 61.5466 227.867 60.4447 227.737 59.4643C227.608 58.4839 225.174 57.995 222.302 58.3731C219.429 58.7521 217.206 59.8541 217.336 60.8345Z" fill="#FF7D6B"/>
</g>
<g opacity="0.5">
<path d="M241.08 56.2652C241.206 57.2222 243.522 57.7102 246.304 57.3789C246.178 56.1896 246.007 55.0075 245.799 53.839C243.045 54.2477 240.954 55.3109 241.08 56.2652Z" fill="#FF7D6B"/>
</g>
<path d="M208.629 31.5016C208.629 31.5016 213.993 37.167 219.141 36.4873C224.29 35.8076 216.288 28.2156 216.288 28.2156C216.288 28.2156 223.434 33.9944 226.983 33.7676C230.531 33.5407 226.332 26.3394 226.332 26.3394C226.332 26.3394 232.687 34.107 236.319 32.4073C239.95 30.7075 234.231 23.1165 227.785 19.717C221.339 16.3176 202.135 12.3519 194.184 24.9296C187.753 35.1027 194.143 47.4067 196.078 52.1448C196.078 52.1448 201.89 47.9487 205.6 51.5083C209.31 55.0689 210.105 59.1003 212.488 57.4808C214.871 55.8612 207.611 46.7972 207.496 39.9984C207.381 33.2013 208.629 31.5016 208.629 31.5016Z" fill="#FF5326"/>
<path d="M228.595 122.278C212.923 122.278 202.083 94.3578 201.628 93.1641C201.404 92.5798 201.698 91.9253 202.283 91.702C202.868 91.4787 203.525 91.7722 203.747 92.3565C203.854 92.6347 214.568 120.213 228.752 120.01C231.41 119.971 233.276 119.097 234.46 117.339C238.735 110.984 232.85 95.7829 232.79 95.6308C232.561 95.0483 232.85 94.3911 233.433 94.1624C234.016 93.9347 234.675 94.2219 234.904 94.8044C235.166 95.4733 241.275 111.274 236.345 118.603C234.738 120.991 232.195 122.228 228.787 122.277C228.723 122.278 228.658 122.278 228.595 122.278Z" fill="#F4EEE9"/>
<path d="M264.106 215.776L263.459 216.192L262.899 216.548L261.809 217.221C261.09 217.661 260.373 218.085 259.654 218.502C258.217 219.335 256.769 220.133 255.305 220.906C252.377 222.449 249.376 223.886 246.267 225.201C243.156 226.512 239.938 227.702 236.551 228.704C233.164 229.702 229.613 230.519 225.798 230.984C221.989 231.439 217.893 231.555 213.508 230.887C211.321 230.551 209.064 230.003 206.815 229.185C204.568 228.367 202.328 227.272 200.236 225.902C198.143 224.538 196.201 222.895 194.525 221.118C192.88 219.373 191.604 217.694 190.465 216.053C189.33 214.414 188.359 212.817 187.46 211.237C186.565 209.66 185.753 208.101 184.995 206.556C183.476 203.465 182.158 200.42 180.939 197.388C179.72 194.355 178.61 191.34 177.564 188.327C175.474 182.308 173.64 176.309 171.945 170.309C170.254 164.306 168.706 158.306 167.263 152.287C166.54 149.277 165.846 146.266 165.177 143.241C164.843 141.729 164.514 140.213 164.192 138.691L163.715 136.398L163.482 135.237L163.241 134.016C161.643 125.889 166.948 118.005 175.088 116.413C183.229 114.817 191.123 120.113 192.721 128.242C192.771 128.503 192.817 128.763 192.853 129.024L192.869 129.137L193.008 130.139L193.162 131.201L193.485 133.348C193.705 134.784 193.934 136.226 194.17 137.667C194.64 140.55 195.137 143.432 195.659 146.31C196.703 152.063 197.843 157.79 199.104 163.453C200.364 169.114 201.743 174.718 203.3 180.165C204.078 182.887 204.901 185.57 205.781 188.176C206.659 190.782 207.599 193.318 208.602 195.691C209.102 196.875 209.621 198.018 210.148 199.092C210.677 200.161 211.217 201.17 211.744 202.04C212.068 202.579 212.39 203.071 212.681 203.481C212.858 203.731 213.024 203.953 213.172 204.134C213.523 204.581 213.866 204.927 214.268 205.253C214.651 205.561 215.094 205.837 215.632 206.091C215.65 206.1 215.668 206.109 215.689 206.118C216.252 206.379 216.922 206.61 217.703 206.785C219.26 207.14 221.243 207.267 223.425 207.129C225.606 206.996 227.977 206.613 230.406 206.039C232.834 205.466 235.327 204.707 237.819 203.814C240.313 202.919 242.814 201.887 245.281 200.755C246.514 200.188 247.739 199.597 248.944 198.985C249.546 198.679 250.143 198.368 250.726 198.056L251.584 197.587L252.308 197.186L252.768 196.928C258.084 193.97 264.793 195.873 267.757 201.181C270.593 206.265 268.929 212.651 264.106 215.776Z" fill="#FDB086"/>
<path d="M215.631 206.09C211.889 210.265 208.066 215.375 208.066 215.375C208.348 212.372 210.828 207.08 212.68 203.48C212.857 203.73 213.023 203.952 213.171 204.133C213.522 204.579 213.865 204.926 214.267 205.252C214.651 205.56 215.094 205.836 215.631 206.09Z" fill="#FF7D6B"/>
<path d="M261.266 190.999C261.266 190.999 259.885 182.916 262.609 180.273C265.333 177.629 268.328 184.744 268.328 184.744C268.328 184.744 267.412 192.283 261.266 190.999Z" fill="#FF7D6B"/>
<path d="M269.65 203.427C274.018 214.471 278.553 225.787 278.553 225.787C279.694 228.69 300.849 220.403 299.71 217.501C299.71 217.501 295.329 206.125 291.012 195.061C289.902 192.215 288.796 189.39 287.769 186.786C285.583 181.233 283.758 176.672 283.026 175.033C280.615 169.634 272.591 165.353 272.591 165.353L265.114 146.323L255.453 150.107L262.93 169.137C262.93 169.137 259.961 177.722 261.869 183.319C262.448 185.017 264.216 189.601 266.394 195.156C267.413 197.764 268.526 200.587 269.65 203.427Z" fill="#83794E"/>
<path d="M264.114 182.541C263.918 181.968 263.787 181.339 263.707 180.68C264.4 180.427 265.107 180.201 265.822 180.001C268.149 179.346 270.498 178.865 272.78 178.053C274.966 177.276 277.123 176.316 279.062 175.038C279.361 174.841 279.654 174.635 279.943 174.42C280.31 174.934 280.622 175.458 280.858 175.985C281.488 177.394 283.041 181.245 285.476 187.431C286.381 189.725 287.422 192.38 288.656 195.546C292.212 204.659 295.852 214.092 296.898 216.805C295.933 217.659 293.145 219.307 288.875 220.98C284.606 222.652 281.439 223.336 280.149 223.365C279.076 220.685 275.318 211.287 271.716 202.181C270.482 199.062 269.437 196.409 268.521 194.07C266.093 187.877 264.61 183.999 264.114 182.541Z" fill="#5E522B"/>
<path d="M267.487 152.354L257.826 156.139L261.149 164.594L270.81 160.81L267.487 152.354Z" fill="#FFAC32"/>
<path d="M255.156 152.193L266.747 147.653C266.83 147.621 266.871 147.527 266.839 147.444L265.542 144.144C265.509 144.061 265.416 144.021 265.333 144.053L253.741 148.593C253.658 148.625 253.617 148.719 253.65 148.802L254.946 152.102C254.98 152.185 255.073 152.226 255.156 152.193Z" fill="#FF5326"/>
<path d="M256.686 153.239L266.817 150.649L265.789 148.033L256.127 151.817L256.686 153.239Z" fill="#5E522B"/>
<path d="M269.655 203.426L291.017 195.06C289.907 192.214 288.8 189.389 287.773 186.785L266.398 195.156C267.418 197.763 268.532 200.586 269.655 203.426Z" fill="#FFAC32"/>
<path d="M269.044 198.894C271.136 204.222 277.16 206.846 282.495 204.757C287.831 202.667 290.459 196.653 288.366 191.325C286.274 185.998 280.251 183.373 274.915 185.463C269.579 187.553 266.951 193.566 269.044 198.894Z" fill="#FFAC32"/>
<path d="M253.645 197.008C253.645 197.008 267.83 184.126 271.915 181.897C276 179.668 284.02 178.802 285.533 179.462C287.046 180.121 286.967 184.743 286.967 184.743C286.967 184.743 288.975 186.081 289.656 187.482C290.337 188.883 289.364 190.835 289.364 190.835C289.364 190.835 292.494 191.805 292.607 193.857C292.721 195.909 291.874 197.262 291.874 197.262C291.874 197.262 294.1 197.923 293.743 199.534C293.385 201.146 283.189 208.1 274.905 210.219C266.62 212.338 265.43 214.77 265.43 214.77L253.645 197.008Z" fill="#FDB086"/>
<path d="M171.069 116.127C171.069 116.127 158.921 121.126 162.045 142.202C165.168 163.276 167.9 171.435 167.9 171.435L200.028 158.517C200.028 158.517 198.759 105.181 171.069 116.127Z" fill="#0B447C"/>
<path d="M243.607 200.778C243.607 200.778 248.49 215.461 255.15 221.969C257.654 222.081 259.736 220.279 261.757 218.193C261.757 218.193 253.032 207.385 251.088 197.262C251.088 197.262 245.03 197.52 243.607 200.778Z" fill="#FF5326"/>
</svg>
