<svg width="149" height="112" viewBox="0 0 149 112" fill="none" xmlns="http://www.w3.org/2000/svg">
<g filter="url(#filter0_d_2052_8122)">
<rect x="52.7617" y="3" width="84.08" height="81.4758" rx="40.7379" transform="rotate(23.8866 52.7617 3)" fill="url(#paint0_linear_2052_8122)"/>
<rect x="52.7617" y="3" width="84.08" height="81.4758" rx="40.7379" transform="rotate(23.8866 52.7617 3)" fill="url(#paint1_linear_2052_8122)"/>
</g>
<g clip-path="url(#clip0_2052_8122)">
<path d="M73.5674 43.6186C69.5249 41.8284 64.8111 43.5638 63.0763 47.4811C61.9032 50.13 62.8592 53.5366 64.2383 57.2068C65.6174 60.877 67.5619 64.8368 68.9681 68.3146C69.0753 68.5796 69.2846 68.7945 69.5501 68.912C69.8155 69.0296 70.1153 69.0402 70.3836 68.9415C73.9039 67.6454 78.1429 66.424 81.7875 64.9786C85.4321 63.5332 88.5971 61.9517 89.7702 59.3028C91.505 55.3855 89.6221 50.7286 85.5796 48.9384C83.2597 47.9109 80.7052 48.2234 78.131 49.5359C77.3727 46.7476 75.8874 44.646 73.5674 43.6186Z" fill="white"/>
</g>
<defs>
<filter id="filter0_d_2052_8122" x="0.766357" y="-0.00354004" width="147.877" height="146.551" filterUnits="userSpaceOnUse" color-interpolation-filters="sRGB">
<feFlood flood-opacity="0" result="BackgroundImageFix"/>
<feColorMatrix in="SourceAlpha" type="matrix" values="0 0 0 0 0 0 0 0 0 0 0 0 0 0 0 0 0 0 127 0" result="hardAlpha"/>
<feOffset dy="16"/>
<feGaussianBlur stdDeviation="16"/>
<feComposite in2="hardAlpha" operator="out"/>
<feColorMatrix type="matrix" values="0 0 0 0 0.568627 0 0 0 0 0.431373 0 0 0 0 1 0 0 0 0.27 0"/>
<feBlend mode="normal" in2="BackgroundImageFix" result="effect1_dropShadow_2052_8122"/>
<feBlend mode="normal" in="SourceGraphic" in2="effect1_dropShadow_2052_8122" result="shape"/>
</filter>
<linearGradient id="paint0_linear_2052_8122" x1="94.8017" y1="3" x2="94.8017" y2="84.4758" gradientUnits="userSpaceOnUse">
<stop stop-color="#38E9EA"/>
<stop offset="1" stop-color="#D32180"/>
</linearGradient>
<linearGradient id="paint1_linear_2052_8122" x1="94.8017" y1="3" x2="94.8017" y2="84.4758" gradientUnits="userSpaceOnUse">
<stop stop-color="#BD9DFE"/>
<stop offset="1" stop-color="#916EFF"/>
</linearGradient>
<clipPath id="clip0_2052_8122">
<rect width="35.0333" height="33.9483" fill="white" transform="translate(65.5625 34.6587) rotate(23.8866)"/>
</clipPath>
</defs>
</svg>
