<svg width="170" height="169" viewBox="0 0 170 169" fill="none" xmlns="http://www.w3.org/2000/svg">
<g filter="url(#filter0_d_2864_6581)">
<rect x="57.4814" width="105.716" height="102.442" rx="51.2211" transform="rotate(23.8866 57.4814 0)" fill="url(#paint0_linear_2864_6581)"/>
<rect x="57.4814" width="105.716" height="102.442" rx="51.2211" transform="rotate(23.8866 57.4814 0)" fill="url(#paint1_linear_2864_6581)"/>
</g>
<g clip-path="url(#clip0_2864_6581)">
<path d="M83.642 51.0712C78.5592 48.8202 72.6324 51.0023 70.4512 55.9276C68.9762 59.2582 70.1783 63.5414 71.9122 68.156C73.6462 72.7707 76.0911 77.7495 77.8591 82.1222C77.9939 82.4554 78.2571 82.7256 78.5908 82.8734C78.9246 83.0212 79.3016 83.0345 79.6389 82.9104C84.065 81.2808 89.3949 79.7451 93.9773 77.9278C98.5598 76.1104 102.539 74.1219 104.014 70.7913C106.196 65.866 103.828 60.0108 98.7453 57.7598C95.8283 56.468 92.6166 56.8609 89.3799 58.5111C88.4265 55.0053 86.559 52.363 83.642 51.0712Z" fill="white"/>
</g>
<defs>
<filter id="filter0_d_2864_6581" x="0.34082" y="0.34082" width="169.462" height="167.794" filterUnits="userSpaceOnUse" color-interpolation-filters="sRGB">
<feFlood flood-opacity="0" result="BackgroundImageFix"/>
<feColorMatrix in="SourceAlpha" type="matrix" values="0 0 0 0 0 0 0 0 0 0 0 0 0 0 0 0 0 0 127 0" result="hardAlpha"/>
<feOffset dy="16"/>
<feGaussianBlur stdDeviation="16"/>
<feComposite in2="hardAlpha" operator="out"/>
<feColorMatrix type="matrix" values="0 0 0 0 0.568627 0 0 0 0 0.431373 0 0 0 0 1 0 0 0 0.27 0"/>
<feBlend mode="normal" in2="BackgroundImageFix" result="effect1_dropShadow_2864_6581"/>
<feBlend mode="normal" in="SourceGraphic" in2="effect1_dropShadow_2864_6581" result="shape"/>
</filter>
<linearGradient id="paint0_linear_2864_6581" x1="110.34" y1="0" x2="110.34" y2="102.442" gradientUnits="userSpaceOnUse">
<stop stop-color="#38E9EA"/>
<stop offset="1" stop-color="#D32180"/>
</linearGradient>
<linearGradient id="paint1_linear_2864_6581" x1="110.34" y1="0" x2="110.34" y2="102.442" gradientUnits="userSpaceOnUse">
<stop stop-color="#BD9DFE"/>
<stop offset="1" stop-color="#916EFF"/>
</linearGradient>
<clipPath id="clip0_2864_6581">
<rect width="44.0485" height="42.6842" fill="white" transform="translate(73.5762 39.8054) rotate(23.8866)"/>
</clipPath>
</defs>
</svg>
