<svg width="36" height="37" viewBox="0 0 36 37" fill="none" xmlns="http://www.w3.org/2000/svg">
<g id="icon/snapchat">
<path id="vector" d="M32.8915 25.6672C32.6847 25.1003 32.2863 24.7939 31.8344 24.5488C31.7501 24.5028 31.6735 24.4568 31.6045 24.4262C31.4666 24.3573 31.3288 24.2883 31.1909 24.2194C29.7813 23.4686 28.6781 22.534 27.9197 21.4155C27.7052 21.1014 27.5137 20.7644 27.3605 20.4196C27.2915 20.2358 27.2992 20.1285 27.3452 20.0289C27.3911 19.9523 27.4524 19.891 27.529 19.8374C27.7742 19.6765 28.0193 19.5157 28.1878 19.4084C28.4866 19.2092 28.7318 19.056 28.885 18.9488C29.4595 18.5428 29.8656 18.1138 30.1184 17.6311C30.4784 16.957 30.5244 16.1679 30.2486 15.4555C29.8656 14.4443 28.9156 13.8237 27.7588 13.8237C27.5137 13.8237 27.2762 13.8467 27.0311 13.9003C26.9698 13.9157 26.9008 13.931 26.8396 13.9463C26.8472 13.2568 26.8319 12.5291 26.7706 11.809C26.5561 9.28859 25.6675 7.97094 24.7482 6.92142C24.1583 6.2626 23.4688 5.70336 22.6951 5.2667C21.3008 4.46998 19.7151 4.06396 17.9914 4.06396C16.2677 4.06396 14.6896 4.46998 13.2954 5.2667C12.5216 5.70336 11.8322 6.2626 11.2423 6.92142C10.323 7.97094 9.44203 9.29625 9.21987 11.809C9.15858 12.5291 9.14326 13.2568 9.15092 13.9463C9.08964 13.931 9.02835 13.9157 8.9594 13.9003C8.72192 13.8467 8.47678 13.8237 8.2393 13.8237C7.08252 13.8237 6.13259 14.4519 5.74956 15.4555C5.47377 16.1679 5.51973 16.957 5.87979 17.6311C6.13259 18.1138 6.53861 18.5428 7.11317 18.9488C7.26638 19.056 7.50386 19.2092 7.81029 19.4084C7.97117 19.5157 8.20865 19.6689 8.44613 19.8221C8.5304 19.8757 8.59935 19.9447 8.65297 20.0289C8.69894 20.1285 8.7066 20.2358 8.62999 20.435C8.47678 20.772 8.29292 21.1014 8.07842 21.4079C7.33533 22.4957 6.26283 23.4226 4.89921 24.1657C4.17911 24.5488 3.42835 24.8016 3.1066 25.6672C2.86912 26.3184 3.02233 27.0538 3.62753 27.682C3.84969 27.9118 4.11016 28.111 4.39361 28.2642C4.98348 28.586 5.61166 28.8388 6.27049 29.015C6.40838 29.0533 6.53095 29.1069 6.64586 29.1835C6.86802 29.375 6.83738 29.6661 7.12849 30.0951C7.27404 30.3173 7.46556 30.5088 7.68006 30.662C8.30058 31.091 8.99771 31.114 9.73314 31.1447C10.3996 31.1676 11.1504 31.1983 12.016 31.4817C12.3761 31.5966 12.7438 31.8265 13.1728 32.0946C14.207 32.7304 15.6166 33.5961 17.9838 33.5961C20.3509 33.5961 21.7682 32.7228 22.81 32.0869C23.239 31.8265 23.6067 31.5966 23.9515 31.4817C24.8095 31.1983 25.5679 31.1676 26.2344 31.1447C26.9698 31.114 27.6669 31.091 28.2874 30.662C28.5479 30.4782 28.7624 30.2484 28.9156 29.9726C29.1301 29.6125 29.1225 29.3597 29.3216 29.1835C29.4289 29.1069 29.5515 29.0533 29.674 29.0226C30.3329 28.8464 30.9764 28.5936 31.5739 28.2642C31.8727 28.1034 32.1485 27.8889 32.3783 27.636L32.3859 27.6284C32.9835 27.0155 33.129 26.2954 32.8915 25.6672ZM30.7925 26.7934C29.5132 27.4982 28.6552 27.4215 27.9963 27.8505C27.4294 28.2106 27.7665 28.992 27.3605 29.2754C26.8549 29.6202 25.3687 29.2525 23.4535 29.8883C21.8677 30.4092 20.8642 31.9184 18.0144 31.9184C15.1646 31.9184 14.184 30.4169 12.5753 29.8883C10.6601 29.2525 9.1739 29.6278 8.6683 29.2754C8.26228 28.992 8.59169 28.2106 8.03246 27.8505C7.36597 27.4215 6.51563 27.4982 5.23629 26.7934C4.41659 26.3414 4.88389 26.0656 5.15202 25.9354C9.79442 23.6908 10.5375 20.2205 10.5682 19.96C10.6065 19.6459 10.6524 19.4008 10.3077 19.0867C9.97828 18.7802 8.50742 17.8686 8.09374 17.5852C7.4196 17.1102 7.12083 16.6429 7.34299 16.0607C7.4962 15.6623 7.87158 15.5091 8.26228 15.5091C8.38485 15.5091 8.50742 15.5244 8.62999 15.5474C9.37308 15.7083 10.0932 16.076 10.5069 16.1832C10.5605 16.1986 10.6065 16.2062 10.6601 16.2062C10.8822 16.2062 10.9589 16.0913 10.9435 15.8385C10.8976 15.0265 10.7827 13.4484 10.9129 11.9698C11.0891 9.93975 11.7403 8.92853 12.5216 8.03989C12.897 7.61089 14.6513 5.75699 18.0144 5.75699C21.3775 5.75699 23.1318 7.60322 23.5071 8.03223C24.2885 8.92087 24.9397 9.93209 25.1159 11.9622C25.2461 13.4407 25.1312 15.0188 25.0776 15.8309C25.0623 16.099 25.1389 16.1986 25.361 16.1986C25.4147 16.1986 25.4606 16.1909 25.5143 16.1756C25.9279 16.076 26.648 15.7006 27.3911 15.5397C27.5137 15.5091 27.6363 15.5014 27.7588 15.5014C28.1495 15.5014 28.5249 15.6547 28.6781 16.053C28.9003 16.6352 28.6015 17.1025 27.9274 17.5775C27.5214 17.8609 26.0505 18.7726 25.7134 19.079C25.3687 19.3931 25.4147 19.6382 25.453 19.9523C25.4836 20.2128 26.2267 23.6831 30.8691 25.9277C31.1449 26.0579 31.6045 26.3414 30.7925 26.7934Z" fill="white"/>
</g>
</svg>
