<svg width="191" height="29" viewBox="0 0 191 29" fill="none" xmlns="http://www.w3.org/2000/svg">
<path d="M28.2606 10.656C28.174 10.4007 28.0145 10.1764 27.8018 10.0108C27.5891 9.84512 27.3326 9.74539 27.0638 9.72389L19.2033 9.09929L15.8019 1.5697C15.6935 1.32719 15.5173 1.12121 15.2945 0.976627C15.0717 0.832042 14.8118 0.755029 14.5462 0.754883C14.2806 0.754737 14.0206 0.831465 13.7977 0.975806C13.5747 1.12015 13.3983 1.32593 13.2897 1.56833L9.88822 9.09929L2.02772 9.72389C1.76362 9.74481 1.51114 9.84138 1.30048 10.002C1.08982 10.1627 0.929912 10.3806 0.839877 10.6298C0.749843 10.879 0.733496 11.1488 0.792794 11.407C0.852092 11.6652 0.984523 11.9008 1.17424 12.0858L6.9831 17.7485L4.9287 26.6444C4.86632 26.9137 4.88631 27.1955 4.98608 27.4533C5.08586 27.7111 5.2608 27.9329 5.48822 28.09C5.71563 28.2471 5.98502 28.3323 6.26142 28.3344C6.53782 28.3365 6.80847 28.2555 7.03825 28.1018L14.5458 23.0968L22.0533 28.1018C22.2882 28.2578 22.5651 28.338 22.847 28.3319C23.1288 28.3257 23.402 28.2333 23.6298 28.0673C23.8576 27.9012 24.0291 27.6693 24.1212 27.4029C24.2133 27.1364 24.2216 26.8482 24.1449 26.5769L21.6231 17.7526L27.8773 12.1244C28.2868 11.7549 28.4371 11.1785 28.2606 10.656Z" fill="#E77C40"/>
<path d="M68.87 10.6561C68.7833 10.4009 68.6238 10.1766 68.4111 10.0109C68.1985 9.84531 67.9419 9.74558 67.6732 9.72407L59.8127 9.09948L56.4112 1.56989C56.3029 1.32738 56.1267 1.1214 55.9039 0.976811C55.6811 0.832225 55.4212 0.755212 55.1556 0.755066C54.89 0.75492 54.63 0.831648 54.4071 0.975989C54.1841 1.12033 54.0077 1.32612 53.8991 1.56851L50.4976 9.09948L42.6371 9.72407C42.373 9.74499 42.1205 9.84156 41.9099 10.0022C41.6992 10.1629 41.5393 10.3808 41.4493 10.63C41.3592 10.8791 41.3429 11.149 41.4022 11.4072C41.4615 11.6654 41.5939 11.901 41.7836 12.0859L47.5925 17.7486L45.5381 26.6446C45.4757 26.9139 45.4957 27.1957 45.5955 27.4535C45.6952 27.7113 45.8702 27.9331 46.0976 28.0902C46.325 28.2473 46.5944 28.3324 46.8708 28.3345C47.1472 28.3367 47.4178 28.2556 47.6476 28.102L55.1552 23.097L62.6627 28.102C62.8975 28.2579 63.1745 28.3382 63.4564 28.332C63.7382 28.3259 64.0114 28.2335 64.2392 28.0674C64.467 27.9014 64.6385 27.6695 64.7306 27.4031C64.8226 27.1366 64.8309 26.8484 64.7543 26.5771L62.2325 17.7528L68.4867 12.1246C68.8962 11.755 69.0465 11.1787 68.87 10.6561Z" fill="#E77C40"/>
<path d="M109.474 10.6561C109.387 10.4009 109.227 10.1766 109.015 10.0109C108.802 9.84531 108.545 9.74558 108.277 9.72407L100.416 9.09948L97.0148 1.56989C96.9064 1.32738 96.7302 1.1214 96.5074 0.976811C96.2846 0.832225 96.0247 0.755212 95.7591 0.755066C95.4935 0.75492 95.2335 0.831648 95.0106 0.975989C94.7876 1.12033 94.6112 1.32612 94.5026 1.56851L91.1011 9.09948L83.2406 9.72407C82.9765 9.74499 82.724 9.84156 82.5134 10.0022C82.3027 10.1629 82.1428 10.3808 82.0528 10.63C81.9627 10.8791 81.9464 11.149 82.0057 11.4072C82.065 11.6654 82.1974 11.901 82.3871 12.0859L88.196 17.7486L86.1416 26.6446C86.0792 26.9139 86.0992 27.1957 86.199 27.4535C86.2987 27.7113 86.4737 27.9331 86.7011 28.0902C86.9285 28.2473 87.1979 28.3324 87.4743 28.3345C87.7507 28.3367 88.0214 28.2556 88.2511 28.102L95.7587 23.097L103.266 28.102C103.501 28.2579 103.778 28.3382 104.06 28.332C104.342 28.3259 104.615 28.2335 104.843 28.0674C105.071 27.9014 105.242 27.6695 105.334 27.4031C105.426 27.1366 105.434 26.8484 105.358 26.5771L102.836 17.7528L109.09 12.1246C109.5 11.755 109.65 11.1787 109.474 10.6561Z" fill="#E77C40"/>
<path d="M150.079 10.6561C149.992 10.4009 149.833 10.1766 149.62 10.0109C149.407 9.84531 149.151 9.74558 148.882 9.72407L141.022 9.09948L137.62 1.56989C137.512 1.32738 137.336 1.1214 137.113 0.976811C136.89 0.832225 136.63 0.755212 136.365 0.755066C136.099 0.75492 135.839 0.831648 135.616 0.975989C135.393 1.12033 135.217 1.32612 135.108 1.56851L131.707 9.09948L123.846 9.72407C123.582 9.74499 123.329 9.84156 123.119 10.0022C122.908 10.1629 122.748 10.3808 122.658 10.63C122.568 10.8791 122.552 11.149 122.611 11.4072C122.67 11.6654 122.803 11.901 122.993 12.0859L128.801 17.7486L126.747 26.6446C126.685 26.9139 126.705 27.1957 126.804 27.4535C126.904 27.7113 127.079 27.9331 127.307 28.0902C127.534 28.2473 127.803 28.3324 128.08 28.3345C128.356 28.3367 128.627 28.2556 128.857 28.102L136.364 23.097L143.872 28.102C144.107 28.2579 144.384 28.3382 144.665 28.332C144.947 28.3259 145.22 28.2335 145.448 28.0674C145.676 27.9014 145.847 27.6695 145.94 27.4031C146.032 27.1366 146.04 26.8484 145.963 26.5771L143.441 17.7528L149.696 12.1246C150.105 11.755 150.255 11.1787 150.079 10.6561Z" fill="#E77C40"/>
<path d="M169.412 17.7489L167.358 26.6448C167.294 26.9142 167.313 27.1965 167.413 27.4549C167.512 27.7132 167.687 27.9356 167.915 28.093C168.142 28.2504 168.412 28.3355 168.689 28.3371C168.966 28.3388 169.236 28.2569 169.466 28.1022L176.974 23.0972L184.481 28.1022C184.716 28.2582 184.993 28.3384 185.275 28.3323C185.557 28.3261 185.83 28.2337 186.058 28.0677C186.285 27.9016 186.457 27.6697 186.549 27.4033C186.641 27.1368 186.649 26.8486 186.573 26.5773L184.051 17.753L190.305 12.1248C190.505 11.9444 190.648 11.7093 190.717 11.4485C190.785 11.1877 190.775 10.9127 190.688 10.6574C190.602 10.4021 190.442 10.1778 190.23 10.0122C190.017 9.84663 189.76 9.74701 189.492 9.72568L181.631 9.0997L178.23 1.57011C178.121 1.32766 177.945 1.12178 177.722 0.977315C177.499 0.832852 177.239 0.755981 176.974 0.755981C176.708 0.755981 176.448 0.832852 176.225 0.977315C176.002 1.12178 175.826 1.32766 175.717 1.57011L172.316 9.0997L164.455 9.7243C164.191 9.74522 163.939 9.84178 163.728 10.0024C163.518 10.1631 163.358 10.381 163.268 10.6302C163.178 10.8794 163.161 11.1492 163.221 11.4074C163.28 11.6656 163.412 11.9013 163.602 12.0862L169.412 17.7489ZM173.346 11.7842C173.592 11.7648 173.828 11.6796 174.03 11.5374C174.232 11.3953 174.392 11.2014 174.493 10.9762L176.974 5.48727L179.454 10.9762C179.555 11.2014 179.715 11.3953 179.917 11.5374C180.119 11.6796 180.355 11.7648 180.601 11.7842L186.078 12.2185L181.568 16.2777C181.176 16.6307 181.02 17.1739 181.164 17.6813L182.891 23.7273L177.74 20.2927C177.514 20.141 177.248 20.06 176.976 20.06C176.703 20.06 176.437 20.141 176.211 20.2927L170.828 23.8817L172.276 17.6138C172.329 17.3832 172.322 17.1429 172.255 16.9159C172.189 16.6889 172.065 16.4829 171.895 16.3177L167.707 12.2337L173.346 11.7842Z" fill="#E77C40"/>
</svg>
