<svg width="71" height="64" viewBox="0 0 71 64" fill="none" xmlns="http://www.w3.org/2000/svg">
<path id="Vector" d="M63.4513 63.5566C65.3078 63.5566 67.0882 62.8191 68.401 61.5064C69.7137 60.1936 70.4512 58.4132 70.4512 56.5566V39.4626C70.4512 37.6061 69.7137 35.8256 68.401 34.5129C67.0882 33.2001 65.3078 32.4626 63.4513 32.4626H53.7355C53.7355 30.0033 53.8801 27.544 54.1695 25.0846C54.6035 22.4806 55.3268 20.166 56.3394 18.1406C57.3521 16.1153 58.6564 14.5216 60.2524 13.3596C61.839 12.0576 63.8643 11.4066 66.3282 11.4066V0.556641C62.2777 0.556641 58.7311 1.42464 55.6884 3.16064C52.6669 4.87476 50.0709 7.24832 48.0936 10.1046C46.1029 13.2487 44.6371 16.6957 43.7537 20.3106C42.8604 24.2988 42.4236 28.3757 42.4517 32.4626V56.5566C42.4517 58.4132 43.1892 60.1936 44.5019 61.5064C45.8146 62.8191 47.5951 63.5566 49.4516 63.5566H63.4513ZM21.4521 63.5566C23.3085 63.5566 25.089 62.8191 26.4017 61.5064C27.7145 60.1936 28.4519 58.4132 28.4519 56.5566V39.4626C28.4519 37.6061 27.7145 35.8256 26.4017 34.5129C25.089 33.2001 23.3085 32.4626 21.4521 32.4626H11.7362C11.7362 30.0033 11.8809 27.544 12.1702 25.0846C12.6089 22.4806 13.3322 20.166 14.3402 18.1406C15.3528 16.1153 16.6572 14.5216 18.2531 13.3596C19.8398 12.0576 21.8651 11.4066 24.329 11.4066V0.556641C20.2784 0.556641 16.7318 1.42464 13.6892 3.16064C10.6677 4.87476 8.07162 7.24832 6.09435 10.1046C4.10366 13.2487 2.63786 16.6957 1.75443 20.3106C0.861126 24.2988 0.424326 28.3757 0.452448 32.4626V56.5566C0.452448 58.4132 1.18993 60.1936 2.50266 61.5064C3.81539 62.8191 5.59584 63.5566 7.45232 63.5566H21.4521Z" fill="#DBDBDB"/>
</svg>
