<svg width="183" height="88" viewBox="0 0 183 88" fill="none" xmlns="http://www.w3.org/2000/svg">
<path d="M15.8621 1.66242C15.8621 1.66242 15.9447 1.66102 16.1099 1.65821C18.6999 1.72427 21.3651 2.97331 24.1055 5.40534C24.2185 5.56866 24.3851 5.64845 24.6053 5.6447C25.3763 5.63157 25.9941 4.7122 26.4587 2.88658C26.5613 2.44418 26.6364 2.00225 26.684 1.56079L27.2622 1.55094L27.4257 16.0071L26.3519 16.0254C25.2808 8.11188 22.2313 3.70217 17.2034 2.79631C16.8721 2.74687 16.5683 2.69696 16.292 2.64658C16.1819 2.64845 16.0993 2.64986 16.0442 2.6508C12.1345 2.71736 9.76027 3.99713 8.92141 6.4901C8.81971 6.98757 8.74555 7.48457 8.69893 7.9811C8.85125 10.4572 10.3541 12.9929 13.2075 15.5883C18.3532 20.1826 21.4586 23.0215 22.5236 24.105C27.7936 29.5235 30.4651 34.3803 30.5382 38.6754C30.5607 39.997 30.362 41.2673 29.9421 42.4862C27.8677 46.8179 24.3031 49.3573 19.2483 50.1043C18.4792 50.2276 17.7368 50.2953 17.0209 50.3075C12.835 50.3237 8.98678 49.1499 5.47638 46.7861C5.03022 46.4632 4.58688 46.3055 4.14636 46.313C2.98997 46.3327 2.15052 47.1732 1.62798 48.8345C1.47216 49.388 1.37141 49.9405 1.32572 50.4921L0.664926 50.5034L0.5 35.9646L1.65638 35.9449C1.91321 38.0887 3.55419 40.6496 6.57932 43.6276C10.0506 46.9285 13.1909 48.5826 16.0002 48.5898C18.5313 48.4366 20.3223 46.8638 21.3729 43.8715C21.4243 43.6503 21.4485 43.4571 21.4457 43.2919C21.4129 41.3646 19.3808 38.4798 15.3495 34.6376C10.5883 29.9817 8.06718 27.4908 7.78622 27.1651C3.29844 22.3943 1.02408 18.2193 0.96314 14.64C0.959389 14.4198 0.956108 14.227 0.953295 14.0618C1.73871 8.4301 4.70405 4.66158 9.84931 2.75627C11.7654 2.06267 13.7696 1.69805 15.8621 1.66242Z" fill="white"/>
<path d="M34.6429 17.3715C34.6139 15.6644 35.3917 14.4394 36.9764 13.6963C37.4692 13.5227 37.9904 13.4037 38.5402 13.3392C40.2472 13.3102 41.4447 14.0885 42.1327 15.6741C42.3614 16.166 42.4804 16.6872 42.4898 17.2379C42.5189 18.9449 41.7406 20.1424 40.1549 20.8304C39.6621 21.004 39.1684 21.1226 38.6738 21.1861C36.9667 21.2152 35.7417 20.4373 34.9986 18.8526C34.825 18.3598 34.7064 17.8661 34.6429 17.3715ZM39.9409 22.817L42.4188 22.7748L42.7525 47.2255C43.3182 48.0971 44.1251 48.5791 45.1732 48.6715C45.5587 48.6649 45.9441 48.6583 46.3296 48.6518L46.3465 49.643L31.4787 49.8961L31.3792 48.9063C33.1955 48.8203 34.3985 48.3041 34.9883 47.3577L34.6915 29.9293C34.5104 28.996 33.7011 28.3763 32.2638 28.0703C31.9315 27.9658 31.6002 27.9164 31.2698 27.922L31.2529 26.9308C33.0122 26.7356 35.3641 25.7592 38.3086 24.0015C39.1812 23.4909 39.7253 23.0961 39.9409 22.817Z" fill="white"/>
<path d="M76.8711 27.3934L77.1078 46.1448C77.1265 47.2461 77.7706 47.8686 79.0399 48.0122C79.4814 48.0598 80.0325 48.0779 80.6933 48.0667L80.7088 48.9753L65.0976 49.2411L65.0821 48.3325C66.8993 48.3015 67.967 47.9253 68.2852 47.2038C68.3365 46.9826 68.3883 46.789 68.4406 46.6228L68.2795 27.4571C68.2785 27.402 68.2776 27.347 68.2766 27.2919C68.1506 26.3576 67.7016 25.8696 66.9298 25.8276C65.2778 25.8557 63.2628 27.212 60.8849 29.8964C60.3987 30.4555 59.9671 30.9862 59.5901 31.4883L59.7705 46.9357C59.7845 47.7617 60.2055 48.2227 61.0334 48.3188C61.4748 48.3664 62.2462 48.3808 63.3475 48.362L63.363 49.2706L48.4952 49.5237L48.4798 48.6152C50.4621 48.5814 51.5868 48.3144 51.8536 47.8141C52.0151 47.591 52.0935 47.3418 52.0888 47.0665L51.8047 30.3815C51.6655 28.6764 50.5496 27.8416 48.4571 27.8772C48.347 27.8791 48.2369 27.881 48.1268 27.8828L48.1085 26.8091C49.8678 26.6139 52.2472 25.637 55.2467 23.8783C56.1735 23.3117 56.7447 22.8889 56.9602 22.6098L59.4382 22.5676L59.5423 28.68C61.5394 26.2774 64.2617 24.4134 67.7093 23.0878C72.1975 21.414 75.0722 22.026 76.3334 24.9239C76.6218 25.6901 76.8011 26.5133 76.8711 27.3934Z" fill="white"/>
<path d="M93.0987 23.0686C91.667 23.093 90.6167 24.4879 89.9477 27.2534C89.2778 29.9638 89.2411 32.6634 89.8377 35.3523C90.4343 38.0412 91.5026 39.3174 93.0426 39.181C94.5294 39.1557 95.6077 37.7878 96.2776 35.0774C97.0026 32.3661 97.0668 29.6659 96.4702 26.9771C95.8736 24.2882 94.7498 22.9854 93.0987 23.0686ZM102.298 10.1881C104.171 10.1562 105.368 10.9345 105.891 12.5229C106.187 13.7297 105.903 14.8637 105.04 15.925C104.556 16.5942 103.083 17.4455 100.622 18.4789C98.0507 19.5141 96.6106 20.6678 96.3018 21.94C96.2495 22.1061 96.2248 22.2718 96.2276 22.437C99.6577 23.315 101.868 25.3704 102.86 28.6034C103.905 31.7803 103.403 34.6256 101.353 37.1392C99.4116 39.5958 96.5963 40.8556 92.9069 40.9184C90.2638 40.9634 88.0223 40.3406 86.1827 39.0499C85.1664 40.8299 86.1768 41.9418 89.2139 42.3859C90.5943 42.5827 92.2477 42.6372 94.174 42.5493C99.6769 42.2352 103.896 44.1464 106.83 48.2826C109.425 51.8738 110.236 55.7984 109.262 60.0563C108.182 64.5914 105.344 67.7518 100.748 69.5376C98.5031 70.347 96.0317 70.7746 93.3334 70.8206C85.9546 70.9462 80.964 68.9932 78.3616 64.9614C76.4396 62.0748 76.2789 59.1031 77.8793 56.0464C79.4778 52.8795 82.202 51.1256 86.052 50.7846C86.2713 50.7258 86.4911 50.6945 86.7113 50.6908C90.2869 50.4095 92.8937 51.4668 94.5319 53.8625C95.6632 55.6059 95.9737 57.6661 95.4634 60.0434C93.0152 58.5978 91.1481 58.9326 89.8621 61.0476C88.7908 62.8284 88.6309 64.759 89.3824 66.8393C90.131 68.7545 91.4961 69.6676 93.4775 69.5788C96.5631 69.6364 98.6242 67.7561 99.6608 63.9378C100.592 60.3967 100.425 57.0671 99.1602 53.9489C99.0445 53.6204 98.9297 53.347 98.8158 53.1286C97.9673 51.8211 96.8486 50.8211 95.4598 50.1287C94.127 49.4904 92.7433 49.1008 91.3088 48.96C89.9302 48.8733 88.5797 48.8137 87.2572 48.7811C85.9337 48.6935 84.6635 48.4948 83.4464 48.185C82.2835 47.8193 81.3921 47.2285 80.7723 46.4129C79.3134 44.8403 79.5564 42.9359 81.5012 40.6995C82.4746 39.6364 83.6445 38.7902 85.0108 38.161C82.6577 35.8326 81.811 33.0103 82.4706 29.6941C83.1302 26.378 85.0741 24.0865 88.3024 22.8198C89.7247 22.2447 91.2899 21.9702 92.9978 21.9962C93.6586 21.985 94.3204 22.0288 94.983 22.1277C94.8351 16.6771 96.1228 13.0473 98.8461 11.2383C99.6637 10.7286 100.567 10.3828 101.555 10.2007C101.775 10.197 102.023 10.1927 102.298 10.1881Z" fill="white"/>
<path d="M107.806 6.70673C109.182 6.62823 111.521 4.85333 114.821 1.38205C115.362 0.766954 115.712 0.320334 115.873 0.0421917L118.351 0L119.382 46.0033C119.672 46.8797 120.286 47.3375 121.223 47.3766C121.609 47.4251 122.188 47.4428 122.959 47.4296L122.976 48.4208L108.108 48.674L108.091 47.6828C109.853 47.6528 110.923 47.4142 111.301 46.9672C111.463 46.7441 111.596 46.4664 111.7 46.1341L110.684 10.7063L110.764 10.5397C110.567 8.72529 109.698 7.80371 108.155 7.77489C107.99 7.77771 107.88 7.77958 107.825 7.78052L107.806 6.70673Z" fill="white"/>
<path d="M136.351 22.0843C134.643 22.0583 133.327 24.0361 132.404 28.0177C132.046 29.6763 131.854 31.3045 131.826 32.9023L138.763 32.7016C138.734 27.7998 138.631 24.9648 138.453 24.1967C138.044 22.8266 137.343 22.1225 136.351 22.0843ZM136.172 21.2611C142.504 21.1533 145.714 25.2298 145.799 33.4906C145.801 33.6007 145.802 33.6558 145.802 33.6558L131.848 34.2239C131.859 34.8296 131.927 35.6271 132.054 36.6164C132.722 40.2405 134.412 42.4425 137.124 43.2226C139.669 43.8953 141.914 43.1135 143.859 40.8771C144.669 39.9269 145.311 38.8143 145.785 37.5394C144.91 44.3293 141.114 47.8366 134.397 48.0611C130.047 48.1352 127.01 46.0938 125.287 41.9369C123.625 38.1095 123.583 34.0617 125.163 29.7935C126.796 25.4142 129.531 22.6961 133.369 21.6393C134.301 21.4031 135.236 21.2771 136.172 21.2611Z" fill="white"/>
<path d="M155.193 20.772C155.193 20.772 155.221 20.7715 155.276 20.7706C157.478 20.7331 159.914 21.4077 162.581 22.7944C162.97 23.0081 163.322 22.6441 163.637 21.7023C163.74 21.315 163.844 20.9552 163.949 20.6229L164.61 20.6117L164.572 28.131L163.664 28.1464C163.413 26.333 162.311 24.6993 160.358 23.2454C159.188 22.4391 158.079 22.0173 157.032 21.98C155.765 22.0016 154.919 22.4842 154.495 23.4278C154.444 23.649 154.42 23.8697 154.424 24.09C154.439 25.0261 155.653 26.7405 158.064 29.2333C161.428 32.7012 163.513 35.4474 164.318 37.4717C164.778 38.6206 165.017 39.6906 165.034 40.6818C165.055 41.9483 164.801 43.1644 164.27 44.3302C162.708 46.4499 160.386 47.536 157.302 47.5885C154.824 47.6307 152.556 47.0359 150.497 45.804C149.995 45.427 149.578 45.2413 149.248 45.2469C148.479 45.3702 148.025 46.1766 147.885 47.6662L147.224 47.6775L147.099 40.3262L147.759 40.3149C148.12 42.0714 149.384 43.5371 151.552 44.712C152.775 45.3521 153.937 45.6628 155.038 45.6441C155.644 45.6338 156.166 45.5423 156.604 45.3696C157.309 44.7517 157.683 44.0843 157.726 43.3675C157.708 42.3213 156.523 40.6614 154.171 38.3881C151.09 35.3559 149.149 32.9378 148.347 31.1338C147.887 30.04 147.621 28.9704 147.549 27.9251L147.547 27.8425C147.497 24.924 148.866 22.8351 151.654 21.5759C152.802 21.0606 153.982 20.7926 155.193 20.772Z" fill="white"/>
<path fill-rule="evenodd" clip-rule="evenodd" d="M29.941 59.82C28.4056 60.1003 27.7893 60.5466 24.0301 64.101C22.7004 65.3583 21.5162 66.4097 21.3987 66.4373C21.2812 66.4651 20.767 66.0328 20.2561 65.4767C15.918 60.7556 15.4721 60.454 12.8253 60.451C10.8093 60.4486 10.1446 60.7062 8.71511 62.0433C7.49693 63.1825 7.06799 64.2664 7.0645 66.2124C7.0624 67.5217 7.13174 67.9264 7.48069 68.6351C7.85426 69.394 9.64111 71.4716 12.8318 74.8575C13.4202 75.4819 14.5309 76.6608 15.3001 77.4773C16.0694 78.2938 17.5926 79.9255 18.685 81.1035C19.7774 82.2814 20.7291 83.2245 20.7998 83.1993C20.8706 83.174 21.9738 82.1771 23.2516 80.9839C24.5293 79.7907 26.5947 77.8652 27.8412 76.705C33.2061 71.7119 35.6318 69.3887 35.9372 68.9507C36.562 68.0555 36.9272 66.7821 36.9231 65.5138C36.912 61.9406 33.5119 59.1679 29.941 59.82Z" fill="white"/>
<path d="M65.1338 67.9623L65.0703 82.3874C65.0703 83.2347 65.5575 83.7219 66.5318 83.849C66.8708 83.8914 67.2944 83.9125 67.8028 83.9125V84.6116H55.7924V83.9125C57.1905 83.9125 58.0166 83.6372 58.2708 83.0864C58.3131 82.917 58.3555 82.7687 58.3979 82.6416L58.5249 67.8988C58.5249 67.8564 58.5249 67.814 58.5249 67.7717C58.4402 67.0515 58.1013 66.6702 57.5082 66.6278C56.2373 66.6278 54.6698 67.6446 52.8057 69.6781C52.4245 70.1017 52.0855 70.5042 51.789 70.8854L51.7254 82.7687C51.7254 83.4042 52.0432 83.7643 52.6786 83.849C53.0176 83.8914 53.6107 83.9125 54.458 83.9125V84.6116H43.0195V83.9125C44.5447 83.9125 45.4131 83.7219 45.6249 83.3406C45.752 83.1712 45.8156 82.9805 45.8156 82.7687V69.9322C45.7309 68.6189 44.8836 67.9623 43.2737 67.9623C43.189 67.9623 43.1043 67.9623 43.0195 67.9623V67.1362C44.3752 67.0091 46.2181 66.2889 48.5481 64.9756C49.2683 64.552 49.7131 64.2342 49.8826 64.0224H51.789V68.7249C53.3565 66.9032 55.4747 65.5052 58.1437 64.5308C61.6176 63.3022 63.8205 63.8106 64.7525 66.0559C64.9644 66.649 65.0914 67.2845 65.1338 67.9623Z" fill="white"/>
<path d="M87.1367 50.303C87.1367 50.303 87.2002 50.303 87.3273 50.303C89.3184 50.3877 91.3519 51.3833 93.4278 53.2897C93.5125 53.4168 93.6396 53.4803 93.8091 53.4803C94.4022 53.4803 94.8894 52.7813 95.2707 51.3833C95.3554 51.0444 95.4189 50.7054 95.4613 50.3665H95.9061L95.8426 61.4872H95.0165C94.2963 55.3867 92.0086 51.9552 88.1534 51.1926C87.8992 51.1503 87.6662 51.1079 87.4544 51.0655C87.3697 51.0655 87.3061 51.0655 87.2638 51.0655C84.2559 51.0655 82.413 52.0187 81.7352 53.9251C81.6505 54.3064 81.5869 54.6877 81.5446 55.069C81.6293 56.9754 82.7519 58.9453 84.9125 60.9788C88.8101 64.5798 91.1613 66.804 91.9662 67.6513C95.9485 71.8877 97.9396 75.6581 97.9396 78.9626C97.9396 79.9793 97.7702 80.9537 97.4312 81.8857C95.779 85.1902 93.0042 87.0966 89.1066 87.6049C88.5135 87.6897 87.9416 87.732 87.3909 87.732C84.1712 87.6897 81.2268 86.7365 78.5579 84.8724C78.2189 84.6182 77.88 84.4911 77.5411 84.4911C76.6515 84.4911 75.9948 85.1266 75.5712 86.3976C75.4441 86.8212 75.3593 87.2448 75.317 87.6685H74.8086L74.8721 76.4843H75.7618C75.9313 78.1365 77.1598 80.1276 79.4475 82.4577C82.0741 85.0419 84.4677 86.3552 86.6283 86.3976C88.5771 86.3128 89.9751 85.1266 90.8224 82.8389C90.8647 82.6695 90.8859 82.5212 90.8859 82.3941C90.8859 80.9113 89.3608 78.666 86.3106 75.6581C82.7096 72.0148 80.8032 70.066 80.5914 69.8118C77.2022 66.0838 75.5076 62.8429 75.5076 60.0892C75.5076 59.9197 75.5076 59.7715 75.5076 59.6444C76.1854 55.3232 78.5155 52.4636 82.4978 51.0655C83.9805 50.5572 85.5268 50.303 87.1367 50.303Z" fill="white"/>
<path d="M110.19 76.4207C110.402 76.5478 110.635 76.6113 110.889 76.6113C111.864 76.6113 112.753 75.7005 113.558 73.8788C114.067 72.735 114.321 71.6335 114.321 70.5744C114.236 68.8375 113.516 67.9266 112.16 67.8419C112.075 67.8419 112.012 67.8419 111.97 67.8419C110.317 67.7995 109.152 69.134 108.474 71.8453C107.754 74.8109 107.881 77.6493 108.856 80.3606C109.661 82.3517 110.762 83.4744 112.16 83.7286C113.812 83.9828 115.422 83.4109 116.99 82.0128C117.795 81.335 118.451 80.5301 118.96 79.598C118.494 82.1823 117.286 84.2793 115.338 85.8892C113.94 86.9907 112.436 87.5414 110.826 87.5414C107.182 87.5414 104.577 85.9527 103.009 82.7754C101.611 79.8946 101.506 76.8444 102.692 73.6246C103.92 70.3202 106.144 68.2232 109.364 67.3335C110.296 67.0793 111.271 66.9522 112.287 66.9522C115.634 66.9522 117.731 68.1596 118.578 70.5744C118.917 71.5912 118.981 72.7562 118.769 74.0695C118.473 75.9759 117.265 77.2468 115.147 77.8823C113.283 78.433 111.842 78.2847 110.826 77.4375C110.487 77.0985 110.275 76.7596 110.19 76.4207Z" fill="white"/>
<path d="M132.19 67.5877C130.877 67.5453 129.839 69.0493 129.076 72.0995C128.78 73.3705 128.61 74.6202 128.568 75.8488L133.906 75.7852C133.948 72.0148 133.906 69.833 133.779 69.2399C133.482 68.1808 132.952 67.6301 132.19 67.5877ZM132.063 66.9522C136.935 66.9522 139.349 70.1296 139.307 76.4843C139.307 76.569 139.307 76.6113 139.307 76.6113L128.568 76.8655C128.568 77.3315 128.61 77.9458 128.695 78.7084C129.161 81.5045 130.432 83.2202 132.508 83.8557C134.456 84.4064 136.193 83.8345 137.718 82.1399C138.354 81.4197 138.862 80.5724 139.244 79.598C138.481 84.8089 135.515 87.4567 130.347 87.5414C127 87.5414 124.691 85.9315 123.42 82.7118C122.192 79.7463 122.213 76.6325 123.484 73.3705C124.797 70.0237 126.937 67.969 129.902 67.2064C130.622 67.037 131.343 66.9522 132.063 66.9522Z" fill="white"/>
<path d="M162.766 70.8921L162.702 85.3173C162.702 86.1646 163.189 86.6517 164.164 86.7788C164.503 86.8212 164.926 86.8424 165.435 86.8424V87.5414H153.424V86.8424C154.822 86.8424 155.649 86.567 155.903 86.0163C155.945 85.8468 155.987 85.6985 156.03 85.5714L156.157 70.8286C156.157 70.7862 156.157 70.7439 156.157 70.7015C156.072 69.9813 155.733 69.6 155.14 69.5577C153.869 69.5577 152.302 70.5744 150.438 72.6079C150.056 73.0315 149.718 73.434 149.421 73.8153L149.357 85.6985C149.357 86.334 149.675 86.6941 150.311 86.7788C150.65 86.8212 151.243 86.8424 152.09 86.8424V87.5414H140.652V86.8424C142.177 86.8424 143.045 86.6517 143.257 86.2705C143.384 86.101 143.448 85.9104 143.448 85.6985V72.8621C143.363 71.5488 142.516 70.8921 140.906 70.8921C140.821 70.8921 140.736 70.8921 140.652 70.8921V70.066C142.007 69.9389 143.85 69.2187 146.18 67.9054C146.9 67.4818 147.345 67.1641 147.515 66.9522H149.421V71.6547C150.988 69.833 153.107 68.435 155.776 67.4606C159.25 66.232 161.452 66.7404 162.385 68.9857C162.596 69.5788 162.723 70.2143 162.766 70.8921Z" fill="white"/>
<path d="M175.382 67.5877C174.069 67.5453 173.031 69.0493 172.268 72.0995C171.971 73.3705 171.802 74.6202 171.76 75.8488L177.098 75.7852C177.14 72.0148 177.098 69.833 176.97 69.2399C176.674 68.1808 176.144 67.6301 175.382 67.5877ZM175.255 66.9522C180.127 66.9522 182.541 70.1296 182.499 76.4843C182.499 76.569 182.499 76.6113 182.499 76.6113L171.76 76.8655C171.76 77.3315 171.802 77.9458 171.887 78.7084C172.353 81.5045 173.624 83.2202 175.7 83.8557C177.648 84.4064 179.385 83.8345 180.91 82.1399C181.546 81.4197 182.054 80.5724 182.436 79.598C181.673 84.8089 178.707 87.4567 173.539 87.5414C170.192 87.5414 167.883 85.9315 166.612 82.7118C165.384 79.7463 165.405 76.6325 166.676 73.3705C167.989 70.0237 170.129 67.969 173.094 67.2064C173.814 67.037 174.535 66.9522 175.255 66.9522Z" fill="white"/>
</svg>
